<?xml version="1.0" encoding="utf-8"?>
<!-- Generator: Adobe Illustrator 19.0.1, SVG Export Plug-In . SVG Version: 6.00 Build 0)  -->
<svg version="1.1" id="Layer_1" xmlns="http://www.w3.org/2000/svg" xmlns:xlink="http://www.w3.org/1999/xlink" x="0px" y="0px"
	 viewBox="175 175 50 50" style="enable-background:new 175 175 50 50;" xml:space="preserve">
<style type="text/css">
	.st0{fill:#12B0FF;}
</style>
<g>
	<g>
		<g>
			<g>
				<path class="st0" d="M202.1,224.5h-4.2c-1.9,0-3.5-1.4-3.8-3.2l-0.5-2.7c-0.8-0.3-1.5-0.6-2.2-0.9l-2.3,1.6
					c-1.5,1.1-3.6,0.9-5-0.4l-2.9-2.9c-1.3-1.3-1.5-3.4-0.4-5l1.6-2.2c-0.4-0.7-0.7-1.5-1-2.3l-2.8-0.5c-1.9-0.3-3.2-1.9-3.2-3.8
					V198c0-1.9,1.4-3.5,3.2-3.8l2.7-0.5c0.3-0.8,0.6-1.6,0.9-2.3l-1.6-2.3c-1.1-1.5-0.9-3.6,0.4-5l2.9-2.9c1.3-1.3,3.5-1.5,5-0.4
					l2.2,1.6c0.7-0.4,1.5-0.7,2.3-1l0.5-2.8c0.3-1.9,1.9-3.2,3.8-3.2h4.1c1.9,0,3.5,1.4,3.8,3.2l0.5,2.7c0.8,0.3,1.6,0.6,2.4,1
					l2.3-1.6c1.5-1.1,3.7-0.9,5,0.4l2.9,2.9c1.3,1.3,1.5,3.4,0.4,5l-1.6,2.3c0.4,0.7,0.7,1.5,0.9,2.3l2.7,0.5
					c1.9,0.3,3.2,1.9,3.2,3.8v4.1c0,1.9-1.4,3.5-3.2,3.8l-2.7,0.5c-0.3,0.8-0.6,1.5-1,2.3l1.6,2.3c1.1,1.5,0.9,3.6-0.4,5l-2.9,2.9
					c-1.3,1.3-3.5,1.5-5,0.4l-2.3-1.6c-0.7,0.4-1.5,0.7-2.3,0.9l-0.5,2.7C205.6,223.1,204,224.5,202.1,224.5z M191.8,215.7
					c0.9,0.5,1.9,0.9,3,1.2l0.6,0.7l0.6,3.3c0.2,1,1,1.6,1.9,1.6h4.2c1,0,1.8-0.7,1.9-1.6l0.6-3.3l0.7-0.7c1.1-0.3,2.1-0.8,3-1.3
					l1,0.1l2.7,1.9c0.8,0.5,1.9,0.5,2.5-0.2l2.9-2.9c0.7-0.7,0.8-1.8,0.2-2.5l-1.9-2.7l-0.1-1c0.5-1,1-2,1.3-3l0.7-0.7l3.3-0.6
					c1-0.2,1.6-1,1.6-1.9v-4.1c0-1-0.7-1.8-1.6-1.9l0,0l-3.3-0.6l-0.7-0.7c-0.3-1.1-0.8-2.1-1.3-3l0.1-1l1.9-2.7
					c0.6-0.8,0.5-1.9-0.2-2.5l-2.9-2.9c-0.7-0.7-1.8-0.8-2.5-0.2l-2.7,2l-1,0.1c-1-0.5-2.1-1-3.2-1.3l-0.7-0.7l-0.6-3.3
					c-0.2-1-1-1.6-1.9-1.6h-4.1c-1,0-1.8,0.7-1.9,1.6l-0.6,3.3l-0.6,0.7c-1,0.3-2.1,0.8-3,1.3l-1-0.1l-2.7-1.9
					c-0.7-0.5-1.9-0.5-2.5,0.2l-3,2.9c-0.7,0.7-0.8,1.7-0.2,2.5l2,2.8l0.1,1c-0.5,1-0.9,2-1.2,3.1l-0.7,0.7l-3.3,0.6
					c-1,0.2-1.6,1-1.6,1.9v4.1c0,1,0.7,1.8,1.6,1.9l3.3,0.6l0.7,0.6c0.3,1,0.8,2.1,1.3,3l-0.1,1l-1.9,2.7c-0.6,0.8-0.5,1.9,0.2,2.5
					l2.9,2.9c0.7,0.7,1.8,0.8,2.5,0.2l2.8-2L191.8,215.7z"/>
			</g>
		</g>
	</g>
	<g>
		<path class="st0" d="M200,210c-5.5,0-10-4.5-10-10c0-5.5,4.5-10,10-10c5.5,0,10,4.5,10,10C210,205.5,205.5,210,200,210z
			 M200,191.9c-4.5,0-8.1,3.6-8.1,8.1s3.6,8.1,8.1,8.1c4.5,0,8.1-3.6,8.1-8.1S204.5,191.9,200,191.9z"/>
	</g>
</g>
</svg>
