<svg id="Layer_1" xmlns="http://www.w3.org/2000/svg" viewBox="0 0 115 30"><style>.st0{fill:#fff}</style><path class="st0" d="M51.2 13.5h-6.6c-.2 0-.3.1-.3.3V17c0 .2.1.3.3.3h2.6v4s-.6.2-2.2.2c-1.9 0-4.5-.7-4.5-6.5s2.7-6.6 5.3-6.6c2.2 0 3.2.4 3.8.6.2.1.4-.1.4-.2l.7-3.1c0-.1 0-.2-.1-.2-.2-.2-1.8-1-5.6-1-4.4 0-8.9 1.9-8.9 10.9s5.2 10.4 9.5 10.4c3.6 0 5.8-1.5 5.8-1.5.1-.1.1-.2.1-.2V13.8c0-.2-.1-.3-.3-.3m34.1-8.1c0-.2-.1-.3-.3-.3h-3.7c-.2 0-.3.1-.3.3v7.2h-5.8V5.4c0-.2-.1-.3-.3-.3h-3.7c-.2 0-.3.1-.3.3v19.5c0 .2.1.3.3.3h3.7c.2 0 .3-.1.3-.3v-8.3H81v8.3c0 .2.1.3.3.3H85c.2 0 .3-.1.3-.3V5.4M58.2 8c0-1.3-1.1-2.4-2.4-2.4-1.3 0-2.4 1.1-2.4 2.4 0 1.3 1.1 2.4 2.4 2.4 1.4 0 2.4-1.1 2.4-2.4M58 20.8v-9c0-.2-.1-.3-.3-.3H54c-.2 0-.3.2-.3.3v12.9c0 .4.2.5.5.5h3.3c.4 0 .5-.2.5-.5v-3.9m41.4-9.3h-3.7c-.2 0-.3.1-.3.3v9.5s-.9.7-2.3.7-1.7-.6-1.7-1.9v-8.3c0-.2-.1-.3-.3-.3h-3.7c-.2 0-.3.1-.3.3v9c0 3.9 2.2 4.8 5.1 4.8 2.4 0 4.4-1.3 4.4-1.3s.1.7.1.8c0 .1.2.2.3.2h2.4c.2 0 .3-.1.3-.3V11.9c0-.2-.1-.4-.3-.4m8.7 10.6c-1.3 0-2.1-.6-2.1-.6v-6.2s.9-.5 1.9-.6c1.3-.1 2.6.3 2.6 3.5-.1 3.3-.7 3.9-2.4 3.9zm1.4-11c-2.1 0-3.5.9-3.5.9V5.4c0-.2-.1-.3-.3-.3H102c-.2 0-.3.1-.3.3v19.5c0 .2.1.3.3.3h2.6c.1 0 .2-.1.3-.2.1-.1.2-.9.2-.9s1.5 1.4 4.4 1.4c3.4 0 5.3-1.7 5.3-7.7-.1-5.9-3.2-6.7-5.3-6.7m-40.8.4h-2.8V7.8c0-.1-.1-.2-.2-.2h-3.8c-.1 0-.2.1-.2.2v3.8s-1.9.5-2 .5c-.1 0-.2.2-.2.3v2.4c0 .2.1.3.3.3h2v5.8c0 4.3 3 4.7 5 4.7.9 0 2-.3 2.2-.4.1 0 .2-.2.2-.3v-2.6c0-.2-.1-.3-.3-.3-.2 0-.6.1-1 .1-1.4 0-1.8-.6-1.8-1.5v-5.5h2.8c.2 0 .3-.1.3-.3v-3c-.2-.2-.4-.3-.5-.3" id="Layer_1_2_"/><path class="st0" d="M15.7 0C7.2 0 .3 6.9.3 15.4.3 22.2 4.7 28 10.8 30c.8.1 1.1-.3 1.1-.7v-2.9c-4.3.9-5.2-1.8-5.2-1.8C6 22.8 5 22.3 5 22.3c-1.4-1 .1-.9.1-.9 1.5.1 2.3 1.6 2.3 1.6 1.4 2.4 3.6 1.7 4.5 1.3.1-1 .5-1.7 1-2.1-3.4-.4-7-1.7-7-7.6 0-1.7.6-3.1 1.6-4.1-.2-.4-.7-2 .1-4.1 0 0 1.3-.4 4.2 1.6 1.2-.3 2.5-.5 3.8-.5 1.3 0 2.6.2 3.9.5 2.9-2 4.2-1.6 4.2-1.6.8 2.1.3 3.7.2 4.1 1 1.1 1.6 2.4 1.6 4.1 0 5.9-3.6 7.2-7 7.6.6.5 1 1.4 1 2.8v4.2c0 .4.3.9 1.1.7 6.1-2 10.5-7.8 10.5-14.6C31 6.9 24.2 0 15.7 0"/><path class="st0" d="M6 21.9c0 .1-.1.1-.2.1-.1-.1-.2-.2-.1-.2 0-.1.2-.1.3 0 0-.1.1 0 0 .1m.8.7c-.1.1-.2 0-.3-.1-.1-.1-.1-.3 0-.3.1-.1.2 0 .3.1.1.1.1.2 0 .3m.5.8c-.1.1-.2 0-.3-.1-.1-.1-.1-.3 0-.4.1-.1.2 0 .3.1.1.2.1.4 0 .4m.9 1c-.1.1-.3.1-.4-.1-.1-.1-.2-.3-.1-.4.1-.1.3-.1.4.1.1.2.2.4.1.4m1.1.4c0 .1-.2.2-.4.1s-.3-.2-.3-.3c0-.1.2-.2.4-.1.3 0 .4.2.3.3m1.3.1c0 .1-.1.2-.3.2-.2 0-.3-.1-.3-.2s.1-.2.3-.2c.2 0 .3.1.3.2m1.3 0c0 .1-.1.3-.3.3-.2 0-.3 0-.4-.2 0-.1.1-.3.3-.3.2 0 .4.1.4.2"/></svg>