<svg id="Layer_1" xmlns="http://www.w3.org/2000/svg" viewBox="0 0 200 162"><style>.st0{fill:#fff}.st1{fill:#12b0ff}</style><path class="st0" d="M0 132.3c0-.4.2-.6.6-.6h9c3.5 0 5.4 1.9 5.4 5.4v9.2c0 3.5-1.9 5.4-5.4 5.4H5.1v9.5c0 .4-.2.6-.6.6H.6c-.4 0-.6-.2-.6-.6v-28.9zm8.4 14.4c1 0 1.5-.6 1.5-1.5v-7.1c0-1-.5-1.5-1.5-1.5H5.1v10.1h3.3zm26.5-15c.4 0 .8.3.8.8v23.9c0 3.5-1.9 5.4-5.4 5.4H26c-3.5 0-5.4-1.9-5.4-5.4v-23.9c0-.4.3-.8.8-.8H25c.4 0 .8.3.8.8v22.8c0 1 .5 1.5 1.5 1.5h2c1 0 1.5-.5 1.5-1.5v-22.8c0-.4.3-.8.8-.8h3.3zm16 0c3.5 0 5.4 1.9 5.4 5.4v4c0 .4-.2.6-.6.6h-3.9c-.4 0-.6-.2-.6-.6v-2.9c0-1-.5-1.5-1.5-1.5h-1.8c-.9 0-1.5.5-1.5 1.5v5.2l8.9 2.9c.6.3 1 .7 1 1.4v8.7c0 3.5-1.9 5.4-5.4 5.4h-4.2c-3.5 0-5.4-1.9-5.4-5.4v-3.9c0-.4.2-.6.6-.6h3.9c.4 0 .6.2.6.6v2.9c0 1 .6 1.5 1.5 1.5h1.8c1 0 1.5-.5 1.5-1.5v-5l-8.9-2.9c-.7-.2-1-.7-1-1.4v-8.9c0-3.5 1.9-5.4 5.4-5.4h4.2zm20.9.6c0-.4.2-.6.6-.6h3.9c.5 0 .6.2.6.6v28.8c0 .4-.2.6-.6.6h-3.9c-.4 0-.6-.2-.6-.6v-11.9H67v11.9c0 .4-.2.6-.6.6h-3.9c-.5 0-.6-.2-.6-.6v-28.8c0-.4.2-.6.6-.6h3.9c.4 0 .6.2.6.6v11.9h4.8v-11.9zm16.3 19.6c-.4.2-.5.5-.5.9v3.3c0 .5.3.8.8.8h4.1v-1.5c0-.5.3-.8.8-.8h3.6c.5 0 .8.3.8.8v5.7c0 .5-.3.8-.8.8H83.3c-.5 0-.8-.3-.8-.8V150c0-.7.3-1 1-1.4l8.9-4.8v-5.6c0-1-.6-1.5-1.5-1.5h-1.8c-1 0-1.5.5-1.5 1.5v2.9c0 .4-.2.6-.6.6h-3.9c-.4 0-.6-.2-.6-.6v-4c0-3.5 1.9-5.4 5.4-5.4h4.2c3.5 0 5.4 1.9 5.4 5.4v8.9c0 .7-.3 1-1 1.4l-8.4 4.5zm30.1-10.7c0 .4-.2.6-.6.6h-3.8c-.4 0-.6-.2-.6-.6v-3c0-1-.5-1.5-1.5-1.5h-2c-1 0-1.5.5-1.5 1.5v17.1c0 1 .5 1.5 1.5 1.5h2c1 0 1.5-.5 1.5-1.5v-3c0-.4.2-.6.6-.6h3.8c.4 0 .6.2.6.6v4.1c0 3.5-1.9 5.4-5.4 5.4h-4.2c-3.5 0-5.4-1.9-5.4-5.4v-19.2c0-3.5 1.9-5.4 5.4-5.4h4.2c3.5 0 5.4 1.9 5.4 5.4v4zm10.7 15.6h8.9c.4 0 .6.2.6.6v3.8c0 .4-.2.6-.6.6h-13.4c-.4 0-.6-.2-.6-.6v-28.8c0-.4.2-.6.6-.6h3.9c.4 0 .6.2.6.6v24.4zm14-19.7c0-3.5 1.9-5.4 5.4-5.4h4.2c3.5 0 5.4 1.9 5.4 5.4v19.2c0 3.5-1.9 5.4-5.4 5.4h-4.2c-3.5 0-5.4-1.9-5.4-5.4v-19.2zm8.7 19.8c1 0 1.5-.5 1.5-1.5v-17.3c0-1-.5-1.5-1.5-1.5h-2.2c-1 0-1.5.5-1.5 1.5v17.3c0 1 .5 1.5 1.5 1.5h2.2zm26.2-25.2c.4 0 .8.3.8.8v23.9c0 3.5-1.9 5.4-5.4 5.4H169c-3.5 0-5.4-1.9-5.4-5.4v-23.9c0-.4.3-.8.8-.8h3.6c.4 0 .8.3.8.8v22.8c0 1 .5 1.5 1.5 1.5h2c1 0 1.5-.5 1.5-1.5v-22.8c0-.4.3-.8.8-.8h3.2zm6.4.6c0-.4.2-.6.6-.6h9c3.5 0 5.4 1.9 5.4 5.4v19.2c0 3.5-1.9 5.4-5.4 5.4h-9c-.4 0-.6-.2-.6-.6v-28.8zm8.6 24.5c1 0 1.5-.5 1.5-1.5v-17.1c0-1-.5-1.5-1.5-1.5h-3.5v20.1h3.5z"/><path class="st1" d="M37.4 44C17.2 44 1 60.5 1 80.7v33.2c0 1.8 1 4.2 2.8 4.2h33.4C57.4 118 74 101.2 74 81c0-20.2-16.4-37-36.6-37zm-.3 51H22V80.7c0-8.5 6.8-15.5 15.3-15.5s15.3 6.5 15.3 15S45.7 95 37.1 95z"/><path class="st1" d="M127.7 10.4c-7.4-7-17-10.5-27.2-10-19.2 1-34.4 16.9-34.7 36.1-.2 11.8 5.4 23 14.8 30l.4.3c.5.3 1.1.5 1.8.5.9 0 1.8-.3 2.3-1L94 54.2c.1-.1.1-.2.2-.2.3-.5.6-1.1.6-1.8 0-.9-.2-1.7-1-2.3 0 0-.6-.4-.7-.5-3.9-3-6.1-7.6-6.1-12.5.1-8.1 6.5-14.8 14.6-15.2 4.3-.2 8.4 1.3 11.5 4.2 3.1 3 4.8 6.9 4.8 11.2 0 2.9-.8 5.7-2.4 8.2 0 0-51.3 69.3-51.4 69.5-.1.2-.2 1-.2 1.3 0 .8.7 2.1 1.4 2.1h62.8c.9 0 1.8-2.2 1.8-3.1V98.6c0-.9-.9-1.6-1.8-1.6h-23.8L133 57.8l.2-.5c3.9-6 6-13 6-20.2 0-10-4.2-19.8-11.5-26.7z"/><path class="st1" d="M199 96.6s-12.1-6-16.2-8c0 0-.3-.2-.7-.2-.9 0-1.4.7-1.4.7-2.9 4.2-7.9 6.7-13 6.7-8.5 0-15.7-6.9-15.7-15.5 0-8.5 7.2-15.5 15.7-15.5 5.1 0 10 2.5 12.9 6.7 0 0 .6.7 1.4.7.4 0 .8-.2.8-.2 4.1-2 16.2-8 16.2-8 .5-.3.9-.8.9-1.5 0-.5-.4-1.1-.4-1.1l-.4-.7c-6.7-10.8-18.1-17.3-30.8-17.3-20.2 0-36.3 16.4-36.3 36.6 0 20.2 16.1 36.6 36.3 36.6 12.7 0 24.2-6.5 30.9-17.3l.3-.7s.3-.6.3-1.1c.2 0-.2-.6-.8-.9z"/></svg>