<svg id="Layer_1" xmlns="http://www.w3.org/2000/svg" viewBox="77.5 175 245 50"><style>.st0{fill:#0b2538}.st1{fill:#12b0ff}</style><path class="st0" d="M172.1 198.9c0-.3.2-.5.5-.5h6.8c2.7 0 4.1 1.4 4.1 4.1v6.9c0 2.6-1.4 4.1-4.1 4.1H176v7.1c0 .3-.1.5-.5.5h-2.9c-.3 0-.5-.2-.5-.5v-21.7zm6.3 10.8c.8 0 1.1-.4 1.1-1.1v-5.3c0-.7-.4-1.1-1.1-1.1H176v7.6l2.4-.1zm20-11.2c.3 0 .6.3.6.6V217c0 2.7-1.4 4.1-4.1 4.1h-3.2c-2.7 0-4.1-1.4-4.1-4.1v-18c0-.3.3-.6.6-.6h2.7c.3 0 .6.3.6.6v17.2c0 .8.4 1.1 1.1 1.1h1.5c.7 0 1.1-.4 1.1-1.1V199c0-.3.3-.6.6-.6h2.6v.1zm12 0c2.7 0 4.1 1.4 4.1 4.1v3c0 .3-.1.5-.5.5h-2.9c-.3 0-.5-.2-.5-.5v-2.2c0-.7-.4-1.1-1.1-1.1h-1.4c-.7 0-1.1.4-1.1 1.1v3.9l6.7 2.2c.5.2.7.5.7 1v6.5c0 2.7-1.4 4.1-4.1 4.1h-3.2c-2.6 0-4.1-1.4-4.1-4.1v-3c0-.3.2-.5.5-.5h2.9c.3 0 .5.1.5.5v2.2c0 .8.4 1.1 1.1 1.1h1.4c.7 0 1.1-.4 1.1-1.1v-3.8l-6.7-2.2c-.5-.2-.8-.5-.8-1v-6.7c0-2.7 1.4-4.1 4.1-4.1h3.3v.1zm15.7.4c0-.3.2-.5.5-.5h2.9c.3 0 .5.2.5.5v21.7c0 .3-.1.5-.5.5h-2.9c-.3 0-.5-.2-.5-.5v-9h-3.6v9c0 .3-.2.5-.5.5h-2.9c-.3 0-.5-.2-.5-.5v-21.7c0-.3.1-.5.5-.5h2.9c.3 0 .5.2.5.5v9h3.6v-9zm12.3 14.7c-.3.2-.4.4-.4.7v2.5c0 .4.2.6.6.6h3v-1.2c0-.4.2-.6.6-.6h2.7c.4 0 .6.2.6.6v4.3c0 .4-.2.6-.6.6h-10.2c-.4 0-.6-.2-.6-.6v-8.3c0-.5.2-.8.7-1l6.7-3.6v-4.2c0-.7-.4-1.1-1.1-1.1H239c-.8 0-1.1.4-1.1 1.1v2.2c0 .3-.2.5-.5.5h-2.9c-.3 0-.5-.2-.5-.5v-3c0-2.7 1.4-4.1 4.1-4.1h3.2c2.6 0 4.1 1.4 4.1 4.1v6.7c0 .5-.2.8-.8 1l-6.2 3.3zm22.6-8c0 .3-.2.5-.5.5h-2.8c-.3 0-.5-.2-.5-.5v-2.3c0-.7-.4-1.1-1.1-1.1h-1.5c-.8 0-1.1.4-1.1 1.1v12.9c0 .8.4 1.1 1.1 1.1h1.5c.7 0 1.1-.4 1.1-1.1v-2.3c0-.3.1-.5.5-.5h2.8c.3 0 .5.2.5.5v3c0 2.7-1.4 4.1-4.1 4.1h-3.2c-2.7 0-4.1-1.4-4.1-4.1v-14.4c0-2.7 1.4-4.1 4.1-4.1h3.2c2.6 0 4.1 1.4 4.1 4.1v3.1zm8.1 11.7h6.7c.3 0 .5.2.5.5v2.8c0 .3-.1.5-.5.5h-10.1c-.3 0-.5-.1-.5-.5v-21.7c0-.3.2-.5.5-.5h2.9c.3 0 .5.2.5.5v18.4zm10.6-14.8c0-2.7 1.4-4.1 4.1-4.1h3.2c2.7 0 4.1 1.4 4.1 4.1V217c0 2.7-1.4 4.1-4.1 4.1h-3.2c-2.7 0-4.1-1.4-4.1-4.1v-14.5zm6.5 14.9c.7 0 1.1-.4 1.1-1.1v-13c0-.7-.4-1.1-1.1-1.1h-1.6c-.7 0-1.1.4-1.1 1.1v13c0 .8.4 1.1 1.1 1.1h1.6zm19.7-18.9c.3 0 .6.3.6.6V217c0 2.7-1.4 4.1-4.1 4.1h-3.2c-2.7 0-4.1-1.4-4.1-4.1v-18c0-.3.3-.6.6-.6h2.7c.3 0 .6.3.6.6v17.2c0 .8.4 1.1 1.1 1.1h1.5c.7 0 1.1-.4 1.1-1.1V199c0-.3.3-.6.6-.6l2.6.1zm4.8.4c0-.3.1-.5.5-.5h6.8c2.7 0 4.1 1.4 4.1 4.1V217c0 2.7-1.4 4.1-4.1 4.1h-6.8c-.3 0-.5-.1-.5-.5v-21.7zm6.4 18.4c.7 0 1.1-.4 1.1-1.1v-12.8c0-.8-.4-1.2-1.1-1.2h-2.6v15.1h2.6z"/><path class="st1" d="M133 216.8c0-.4.1-.8-.3-.8h-10.2l12.2-16.6.1-.1c1.7-2.6 2.6-5.5 2.6-8.6 0-4.3-1.8-8.4-4.9-11.4-3.1-3-7.3-4.5-11.6-4.3-8.2.4-14.7 7.2-14.8 15.4-.1 5 2.3 9.8 6.3 12.8l.2.1c.2.1.5.2.7.2.4 0 .8-.1 1-.4l3.8-5.2s0-.1.1-.1c.1-.2.2-.5.2-.8 0-.4-.1-.7-.4-1l-.3-.2c-1.7-1.3-2.6-3.3-2.6-5.3 0-3.5 2.8-6.3 6.2-6.5 1.8-.1 3.6.5 4.9 1.8s2.1 3 2.1 4.8c0 1.3-.4 2.4-1 3.5 0 0-21.9 29.6-21.9 29.7-.1.1-.1.3-.1.4 0 .4.3.8.6.8h26.8c.4 0 .3-.5.3-.9v-7.3z"/><path class="st1" d="M93.7 193.6c-8.6 0-15.7 7-15.7 15.7v14.2c0 .8.8 1.6 1.5 1.6h14.2c8.6 0 15.6-7.1 15.6-15.7.1-8.7-6.9-15.8-15.6-15.8zm.1 21.4H87v-5.8c0-3.6 3.1-6.6 6.7-6.6s6.6 2.6 6.6 6.2-2.9 6.2-6.5 6.2zm69.1 1.1s-5.2-2.6-6.9-3.4c0 0-.1-.1-.3-.1-.4 0-.6.3-.6.3-1.2 1.8-3.3 2.9-5.5 2.9-3.6 0-6.6-3-6.6-6.6s3-6.6 6.6-6.6c2.2 0 4.2 1.1 5.5 2.9 0 0 .2.3.6.3.2 0 .3-.1.3-.1 1.7-.9 6.9-3.4 6.9-3.4.2-.1.4-.4.4-.6 0-.2-.2-.5-.2-.5l-.2-.3c-2.9-4.6-7.9-7.4-13.3-7.4-8.6 0-15.7 7-15.7 15.7 0 8.6 7 15.7 15.7 15.7 5.4 0 10.4-2.8 13.3-7.4l.2-.3s.2-.3.2-.5c0-.3-.1-.5-.4-.6z"/></svg>