<?xml version="1.0" encoding="utf-8"?>
<!-- Generator: Adobe Illustrator 19.0.1, SVG Export Plug-In . SVG Version: 6.00 Build 0)  -->
<svg version="1.1" id="Layer_1" xmlns="http://www.w3.org/2000/svg" xmlns:xlink="http://www.w3.org/1999/xlink" x="0px" y="0px"
	 viewBox="175 175 50 50" style="enable-background:new 175 175 50 50;" xml:space="preserve">
<style type="text/css">
	.st0{fill:#12B0FF;}
</style>
<g>
	<g>
		<path class="st0" d="M201,204.8c-0.5,0-1-0.4-1-1v-1.9c0-0.5,0.5-1,1-1s1,0.4,1,1v1.9C202,204.4,201.5,204.8,201,204.8z"/>
	</g>
	<g>
		<path class="st0" d="M221.1,199h-39.4c-0.5,0-1-0.5-1-1s0.4-1,1-1h39.4c0.5,0,1,0.5,1,1S221.7,199,221.1,199z"/>
	</g>
	<g>
		<path class="st0" d="M201,212.5c-0.5,0-1-0.4-1-1v-1c0-0.5,0.5-1,1-1s1,0.4,1,1v1C202,212.1,201.5,212.5,201,212.5z"/>
	</g>
	<g>
		<path class="st0" d="M200.2,224.5c-2.6,0-4.6-2.1-4.6-4.6s2.1-4.6,4.6-4.6c2.6,0,4.6,2.1,4.6,4.6S202.7,224.5,200.2,224.5z
			 M200.2,217.1c-1.5,0-2.7,1.2-2.7,2.7c0,1.5,1.2,2.7,2.7,2.7c1.5,0,2.7-1.2,2.7-2.7C202.9,218.4,201.7,217.1,200.2,217.1z"/>
	</g>
	<g>
		<g>
			<path class="st0" d="M182,199c-0.5,0-1-0.4-1-1v-9.6c0-0.5,0.5-1,1-1s1,0.4,1,1v9.6C183,198.6,182.5,199,182,199z"/>
		</g>
		<g>
			<g>
				<path class="st0" d="M183,184.9c-0.2,0-0.5-0.1-0.7-0.3l-6.3-6.3c-0.4-0.4-0.4-1,0-1.4s1-0.4,1.4,0l6.3,6.3c0.4,0.4,0.4,1,0,1.4
					C183.5,184.8,183.3,184.9,183,184.9z"/>
			</g>
			<g>
				<path class="st0" d="M176.7,184.9c-0.2,0-0.5-0.1-0.7-0.3c-0.4-0.4-0.4-1,0-1.4l6.3-6.3c0.4-0.4,1-0.4,1.4,0s0.4,1,0,1.4
					l-6.3,6.3C177.2,184.8,177,184.9,176.7,184.9z"/>
			</g>
		</g>
	</g>
	<g>
		<g>
			<path class="st0" d="M221,199c-0.5,0-1-0.4-1-1v-9.6c0-0.5,0.5-1,1-1s1,0.4,1,1v9.6C222,198.6,221.5,199,221,199z"/>
		</g>
		<g>
			<g>
				<path class="st0" d="M223.3,184.9c-0.2,0-0.5-0.1-0.7-0.3l-6.3-6.3c-0.4-0.4-0.4-1,0-1.4s1-0.4,1.4,0l6.3,6.3
					c0.4,0.4,0.4,1,0,1.4C223.8,184.8,223.5,184.9,223.3,184.9z"/>
			</g>
			<g>
				<path class="st0" d="M217,184.9c-0.2,0-0.5-0.1-0.7-0.3c-0.4-0.4-0.4-1,0-1.4l6.3-6.3c0.4-0.4,1-0.4,1.4,0s0.4,1,0,1.4l-6.3,6.3
					C217.4,184.8,217.2,184.9,217,184.9z"/>
			</g>
		</g>
	</g>
	<g>
		<g>
			<path class="st0" d="M201,199c-0.5,0-1-0.4-1-1v-9.6c0-0.5,0.5-1,1-1s1,0.4,1,1v9.6C202,198.6,201.5,199,201,199z"/>
		</g>
		<g>
			<g>
				<path class="st0" d="M198.7,184.3c-0.2,0-0.5-0.1-0.7-0.3l-3.2-3.2c-0.4-0.4-0.4-1,0-1.4c0.4-0.4,1-0.4,1.4,0l3.2,3.2
					c0.4,0.4,0.4,1,0,1.4C199.2,184.2,199,184.3,198.7,184.3z"/>
			</g>
			<g>
				<path class="st0" d="M198.7,184.3c-0.2,0-0.5-0.1-0.7-0.3c-0.4-0.4-0.4-1,0-1.4l6.9-6.9c0.4-0.4,1-0.4,1.4,0s0.4,1,0,1.4
					l-6.9,6.9C199.2,184.2,199,184.3,198.7,184.3z"/>
			</g>
		</g>
	</g>
</g>
</svg>
