<?xml version="1.0" encoding="utf-8"?>
<!-- Generator: Adobe Illustrator 19.0.1, SVG Export Plug-In . SVG Version: 6.00 Build 0)  -->
<svg version="1.1" id="Layer_1" xmlns="http://www.w3.org/2000/svg" xmlns:xlink="http://www.w3.org/1999/xlink" x="0px" y="0px"
	 viewBox="175 175 50 50" style="enable-background:new 175 175 50 50;" xml:space="preserve">
<style type="text/css">
	.st0{fill:#12B0FF;}
</style>
<g>
	<g>
		<path class="st0" d="M200,224.5c-13.5,0-24.5-11-24.5-24.5c0-13.5,11-24.5,24.5-24.5c13.5,0,24.5,11,24.5,24.5
			C224.5,213.5,213.5,224.5,200,224.5z M200,177.4c-12.4,0-22.6,10.1-22.6,22.6c0,12.4,10.1,22.6,22.6,22.6
			c12.4,0,22.6-10.1,22.6-22.6C222.6,187.6,212.4,177.4,200,177.4z"/>
	</g>
	<g>
		<path class="st0" d="M189.8,222.2c-0.3,0-0.7-0.2-0.9-0.5c-3-5.7-4.7-13.4-4.7-21.7c0-8.2,1.7-15.9,4.7-21.7
			c0.2-0.5,0.8-0.7,1.3-0.4c0.5,0.2,0.7,0.8,0.4,1.3c-2.9,5.5-4.4,12.8-4.4,20.8c0,7.9,1.6,15.3,4.4,20.8c0.2,0.5,0.1,1.1-0.4,1.3
			C190.1,222.2,190,222.2,189.8,222.2z"/>
	</g>
	<g>
		<path class="st0" d="M210.2,222.2c-0.2,0-0.3,0-0.4-0.1c-0.5-0.2-0.7-0.8-0.4-1.3c2.9-5.5,4.4-12.8,4.4-20.8
			c0-7.9-1.6-15.3-4.4-20.8c-0.2-0.5-0.1-1.1,0.4-1.3c0.5-0.2,1.1-0.1,1.3,0.4c3,5.7,4.7,13.4,4.7,21.7c0,8.2-1.7,15.9-4.7,21.7
			C210.9,222,210.5,222.2,210.2,222.2z"/>
	</g>
	<g>
		<path class="st0" d="M221.2,190.8c-0.2,0-0.3,0-0.4-0.1c-5.5-2.9-12.8-4.4-20.8-4.4c-7.9,0-15.3,1.6-20.8,4.4
			c-0.5,0.2-1.1,0.1-1.3-0.4c-0.2-0.5-0.1-1.1,0.4-1.3c5.7-3,13.4-4.7,21.7-4.7c8.2,0,15.9,1.7,21.7,4.7c0.5,0.2,0.7,0.8,0.4,1.3
			C221.9,190.6,221.6,190.8,221.2,190.8z"/>
	</g>
	<g>
		<path class="st0" d="M200,215.7c-8.2,0-15.9-1.7-21.7-4.7c-0.5-0.2-0.7-0.8-0.4-1.3c0.2-0.5,0.8-0.7,1.3-0.4
			c5.5,2.9,12.8,4.4,20.8,4.4c7.9,0,15.3-1.6,20.8-4.4c0.5-0.2,1-0.1,1.3,0.4c0.2,0.5,0.1,1.1-0.4,1.3
			C215.9,214,208.2,215.7,200,215.7z"/>
	</g>
	<g>
		<path class="st0" d="M201,223.4c-0.5,0-1-0.4-1-1v-44.2c0-0.5,0.5-1,1-1s1,0.4,1,1v44.2C202,222.9,201.5,223.4,201,223.4z"/>
	</g>
	<g>
		<path class="st0" d="M223.5,201C223.5,201,223.5,201,223.5,201l-47.1-0.2c-0.5,0-1-0.4-1-0.9c0-0.5,0.4-0.9,1-0.9c0,0,0,0,0,0
			l47.1,0.4c0.5,0,1,0.3,1,0.8C224.5,200.7,224.1,201,223.5,201z"/>
	</g>
</g>
</svg>
