<?xml version="1.0" encoding="utf-8"?>
<!-- Generator: Adobe Illustrator 19.0.1, SVG Export Plug-In . SVG Version: 6.00 Build 0)  -->
<svg version="1.1" id="Layer_1" xmlns="http://www.w3.org/2000/svg" xmlns:xlink="http://www.w3.org/1999/xlink" x="0px" y="0px"
	 viewBox="175 175 50 50" style="enable-background:new 175 175 50 50;" xml:space="preserve">
<style type="text/css">
	.st0{fill:#12B0FF;}
</style>
<path class="st0" d="M208.3,180L208.3,180l1.2,0h1.2l0.8,0.2c0.6,0.1,1.1,0.3,1.5,0.4c0.5,0.2,0.9,0.4,1.3,0.6
	c0.4,0.2,0.8,0.5,1.2,0.7c0.3,0.2,0.7,0.5,0.9,0.8c0.3,0.3,0.7,0.3,1.3,0.2c0.6-0.1,1.2-0.3,1.9-0.6c0.7-0.2,1.3-0.5,2-0.8
	c0.7-0.3,1-0.5,1.2-0.6c0.1-0.1,0.2-0.1,0.2-0.1l0,0l0,0l0,0l0,0l0,0l0,0l0,0l0,0l0,0l0,0l0,0l0,0.1l0,0.1l0,0.1l0,0.1l0,0l0,0
	l0,0.1c0,0,0,0.1,0,0.2c0,0.1-0.2,0.4-0.4,0.9s-0.6,1-1,1.6c-0.4,0.5-0.8,0.9-1.1,1.2c-0.3,0.3-0.5,0.5-0.6,0.6
	c-0.1,0.1-0.2,0.2-0.4,0.3l-0.2,0.1l0,0l0,0l0,0l0,0l0,0l0,0l0,0l0,0l0,0l0,0l0,0l0,0l0,0l0,0l0,0l0,0h0.1h0.1l1.2-0.3
	c0.8-0.2,1.6-0.4,2.4-0.6s1.2-0.4,1.2-0.4c0,0,0.1,0,0.1,0l0.1,0l0,0l0,0l0,0l0,0l0.1,0l0.1,0v0v0l0,0l0,0l0,0l0,0l0,0l0,0l0,0l0,0
	l0,0l0,0l0,0l0,0l0,0l0,0l0,0c0,0-0.2,0.3-0.6,0.8c-0.4,0.5-0.6,0.7-0.6,0.8c0,0-0.1,0.1-0.1,0.1c-0.1,0.1-0.4,0.4-0.9,1
	c-0.6,0.6-1.1,1.1-1.7,1.5c-0.6,0.5-0.8,1-0.8,1.7c0,0.7,0,1.4-0.1,2.2c-0.1,0.8-0.2,1.7-0.3,2.7c-0.2,1-0.4,2-0.8,3.3
	c-0.3,1.2-0.8,2.4-1.2,3.6s-1,2.2-1.5,3.1c-0.5,0.9-1,1.7-1.5,2.3s-0.9,1.2-1.4,1.8c-0.5,0.6-1,1.2-1.7,1.9
	c-0.7,0.7-1.1,1.1-1.2,1.2c-0.1,0.1-0.4,0.3-0.9,0.7c-0.5,0.4-1.1,0.8-1.6,1.3c-0.6,0.4-1.1,0.8-1.6,1.1c-0.5,0.3-1.1,0.6-1.8,1
	c-0.7,0.4-1.4,0.7-2.2,1c-0.8,0.3-1.6,0.6-2.5,0.9c-0.9,0.3-1.7,0.5-2.6,0.6c-0.8,0.1-1.8,0.3-2.8,0.4l-1.6,0.2v0v0h-1.4h-1.4v0v0
	l-0.4,0c-0.3,0-0.5,0-0.6,0c-0.2,0-0.8-0.1-1.8-0.2c-1.1-0.1-1.9-0.3-2.5-0.4c-0.6-0.1-1.5-0.4-2.7-0.8c-1.2-0.4-2.2-0.8-3.1-1.3
	c-0.8-0.4-1.4-0.7-1.6-0.8c-0.2-0.1-0.5-0.2-0.7-0.4l-0.4-0.2l0,0l0,0l0,0l0,0l0,0l0,0l0,0l0,0l0,0l0,0l0,0l0,0h0h0v0v0l0,0l0,0
	l0.2,0c0.1,0,0.5,0,1.1,0.1c0.6,0,1.2,0,1.9,0c0.7,0,1.3-0.1,2-0.2c0.7-0.1,1.5-0.3,2.5-0.5c0.9-0.3,1.8-0.6,2.6-0.9
	c0.8-0.3,1.4-0.6,1.7-0.8c0.3-0.2,0.8-0.5,1.5-0.9l1-0.7l0,0l0,0l0,0l0,0l0,0l0,0l0,0l0,0l0,0l0,0l0,0l0,0l0,0l0,0l-0.4,0
	c-0.2,0-0.5,0-0.7,0c-0.2,0-0.6-0.1-1-0.2c-0.5-0.1-1-0.3-1.5-0.5c-0.5-0.2-1.1-0.5-1.6-0.8c-0.5-0.3-0.9-0.6-1.1-0.8
	c-0.2-0.2-0.5-0.5-0.9-0.9c-0.4-0.4-0.7-0.8-0.9-1.2s-0.5-0.9-0.8-1.4l-0.4-0.8l0-0.1l0-0.1l0,0l0,0l0.1,0l0.1,0l0.5,0.1
	c0.3,0,0.8,0.1,1.5,0c0.7,0,1.2,0,1.4-0.1c0.3,0,0.4-0.1,0.5-0.1l0.1,0l0.1,0l0.1,0l0,0l0,0l0,0l0,0l-0.1,0l-0.1,0l-0.1,0l-0.1,0
	l-0.1,0c-0.1,0-0.2,0-0.3-0.1c-0.1,0-0.5-0.2-1.2-0.5c-0.7-0.3-1.2-0.6-1.6-0.8c-0.4-0.3-0.8-0.6-1.1-0.9c-0.3-0.3-0.7-0.7-1.1-1.2
	c-0.4-0.5-0.8-1.1-1.1-1.8c-0.3-0.7-0.6-1.3-0.7-1.9c-0.2-0.6-0.3-1.2-0.3-1.8l-0.1-0.9l0,0l0,0l0,0l0,0l0,0l0,0l0.7,0.3
	c0.5,0.2,1,0.4,1.7,0.5c0.7,0.1,1.1,0.2,1.2,0.2l0.2,0h0.2h0.2l0,0l0,0l0,0l0,0l0,0l0,0l0,0l0,0l0,0l0,0l0,0l0,0l0,0l0,0l0,0l0,0
	l0,0c0,0-0.1-0.1-0.4-0.3c-0.2-0.2-0.5-0.4-0.8-0.7c-0.3-0.3-0.5-0.6-0.8-0.9c-0.3-0.3-0.5-0.7-0.7-1c-0.2-0.4-0.4-0.8-0.7-1.4
	c-0.2-0.6-0.4-1.1-0.5-1.7c-0.1-0.6-0.2-1.1-0.2-1.7c0-0.6,0-1,0-1.4c0-0.4,0.1-0.9,0.3-1.4c0.1-0.5,0.3-1,0.6-1.6l0.4-0.8l0-0.1
	l0-0.1l0,0l0,0l0,0l0,0l0,0l0,0l0,0l0,0l0,0l0,0l0,0l0,0l0,0l0,0l0,0l0,0l0.6,0.7c0.4,0.4,0.9,0.9,1.4,1.5c0.5,0.5,0.9,0.8,0.9,0.9
	c0.1,0,0.1,0.1,0.2,0.2c0.1,0.1,0.4,0.4,0.9,0.8c0.5,0.4,1.2,0.9,2,1.4c0.8,0.5,1.7,1.1,2.7,1.6c1,0.5,2.1,1,3.2,1.4
	c1.1,0.4,1.9,0.7,2.4,0.8c0.5,0.1,1.2,0.3,2.4,0.5c1.1,0.2,1.9,0.3,2.5,0.4c0.6,0.1,0.9,0.1,1.2,0.1l0.3,0l0-0.1l0-0.1l-0.1-0.6
	c-0.1-0.4-0.1-0.9-0.1-1.6c0-0.7,0.1-1.3,0.2-1.8c0.1-0.6,0.3-1.1,0.5-1.7c0.2-0.6,0.4-1,0.6-1.4c0.2-0.3,0.5-0.7,0.8-1.2
	c0.3-0.4,0.7-0.9,1.3-1.4c0.5-0.5,1.1-0.9,1.8-1.3c0.7-0.4,1.3-0.7,1.8-0.8c0.6-0.2,1-0.3,1.4-0.4C208.1,180.1,208.3,180,208.3,180z
	"/>
</svg>
