<svg id="Layer_1" xmlns="http://www.w3.org/2000/svg" viewBox="175 175 50 50"><style>.st0{fill:#12b0ff}</style><path class="st0" d="M223.5 224.5h-47.1c-.5 0-1-.4-1-1v-47.1c0-.5.4-1 1-1h47.1c.5 0 1 .4 1 1v47.1c0 .6-.4 1-1 1zm-46.1-1.9h45.2v-45.2h-45.2v45.2z"/><path class="st0" d="M217.6 218.8h-11.8c-.5 0-1-.4-1-1v-35.6c0-.5.4-1 1-1h11.8c.5 0 1 .4 1 1v35.6c-.1.5-.5 1-1 1zm-10.9-2h9.9v-33.7h-9.9v33.7zm-6.7 7c-.5 0-1-.4-1-1v-45.2c0-.5.5-1 1-1s1 .4 1 1v45.2c0 .5-.5 1-1 1z"/><path class="st0" d="M199.6 192h-22.1c-.5 0-1-.5-1-1s.4-1 1-1h22.1c.5 0 1 .5 1 1s-.4 1-1 1zm0 18h-22.1c-.5 0-1-.5-1-1s.4-1 1-1h22.1c.5 0 1 .5 1 1s-.4 1-1 1z"/></svg>