<svg id="Layer_1" xmlns="http://www.w3.org/2000/svg" viewBox="0 0 475 586"><style>.st0{fill:#a0dfff}.st1{fill:#91f2c6}.st2{fill:#12b0ff}.st3{fill:#3c5160}.st4{fill:#fff}.st5{fill:#47eaa0}.st6{fill:#0b2538}.st7{fill:none;stroke:#0b2538;stroke-width:2;stroke-linecap:round;stroke-linejoin:round;stroke-miterlimit:10}.st8{fill:#9da8af}</style><path class="st0" d="M231.9 484.7c0 2.7-2.2 5-5 5H37.2c-2.7 0-5-2.2-5-5V152.4c0-2.7 2.2-5 5-5h189.6c2.7 0 5 2.2 5 5v332.3z"/><path class="st1" d="M441.9 419c0 2.7-2.2 5-5 5H247.3c-2.7 0-5-2.2-5-5V152.4c0-2.7 2.2-5 5-5h189.6c2.7 0 5 2.2 5 5V419z"/><path class="st2" d="M231.9 197.7c0 2.7-2.2 5-5 5H37.2c-2.7 0-5-2.2-5-5v-45.3c0-2.7 2.2-5 5-5h189.6c2.7 0 5 2.2 5 5v45.3zM129.5 44.6c0-.4-1.6.4-2 .4h-10.8l12.9-18.2.1-.4c1.8-2.7 2.7-6 2.7-9.3 0-4.5-1.9-9-5.2-12.1-3.3-3.2-7.7-4.8-12.3-4.6-8.6.5-15.5 7.6-15.6 16.3-.1 5.3 2.4 10.4 6.7 13.6l.2.1c.2.1.5.2.8.2.4 0 .8-.2 1.1-.5l4-5.5.1-.1c.2-.2.2-.5.2-.8 0-.4-.1-.8-.5-1.1l-.3-.2c-1.8-1.3-2.8-3.5-2.7-5.7.1-3.7 3-6.7 6.6-6.9 1.9-.1 3.8.6 5.2 1.9 1.4 1.3 2.2 3.1 2.2 5.1 0 1.3-.4 2.6-1.1 3.7L98.6 51.9c-.1.1-.1.2-.1.3 0 .4.3.7.6.7h28.4c.4 0 2-.2 2-.6v-7.7z"/><path class="st2" d="M87.2 20.1c-9.1 0-15.7 7.4-15.7 16.6v15c0 .8-1.1 1.3-.3 1.3h15.1c9.2 0 17-7.3 17-16.4 0-9.2-7-16.5-16.1-16.5zM86.3 42h-6.8v-5.3c0-3.9 3.1-7 6.9-7 3.9 0 6.9 2.3 6.9 6.2s-3.1 6.1-7 6.1zm73.2 1.9s-5.5-2.7-7.3-3.6c0 0-.1-.1-.3-.1-.4 0-.6.3-.6.3-1.3 1.9-2.5 3-4.8 3-3.9 0-6-3.1-6-7s2.1-7 6-7c2.3 0 4 1.1 5.3 3 0 0 0 .3.4.3.2 0 .2-.1.2-.1l7.2-3.6c.2-.1.4-.4.4-.7 0-.2-.2-.5-.2-.5l-.2-.3c-3.1-4.9-8-7.8-13.8-7.8-9.1 0-16.3 7.4-16.3 16.6 0 9.1 7.2 16.6 16.3 16.6 5.8 0 10.9-2.9 13.9-7.8l.1-.3s.1-.3.1-.5c.1-.1-.1-.4-.4-.5z"/><path d="M171.5 27.6c0-.3.2-.4.4-.4h6.4c2.5 0 3.8 1.3 3.8 3.8v6.5c0 2.5-1.3 3.8-3.8 3.8h-3.2V48c0 .3-.1.4-.4.4h-2.8c-.3 0-.4-.2-.4-.4V27.6zm6 10.2c.7 0 1.1-.4 1.1-1.1v-5c0-.7-.3-1.1-1.1-1.1h-2.3v7.1h2.3zm17.4-10.6c.3 0 .5.2.5.5v16.9c0 2.5-1.3 3.8-3.8 3.8h-3c-2.5 0-3.8-1.3-3.8-3.8V27.7c0-.3.2-.5.5-.5h2.6c.3 0 .5.2.5.5v16.2c0 .7.4 1.1 1.1 1.1h1.4c.7 0 1.1-.3 1.1-1.1V27.7c0-.3.2-.5.5-.5h2.4zm10 0c2.5 0 3.8 1.3 3.8 3.8v2.8c0 .3-.1.4-.4.4h-2.8c-.3 0-.4-.2-.4-.4v-2.1c0-.7-.3-1.1-1.1-1.1h-1.3c-.7 0-1.1.4-1.1 1.1v3.7l6.3 2.1c.5.2.7.5.7 1v6.1c0 2.5-1.3 3.8-3.8 3.8h-3c-2.5 0-3.8-1.3-3.8-3.8v-2.8c0-.3.2-.4.4-.4h2.8c.3 0 .4.1.4.4v2c0 .7.4 1.1 1.1 1.1h1.3c.7 0 1.1-.3 1.1-1.1v-3.5l-6.3-2.1c-.5-.2-.7-.5-.7-1V31c0-2.5 1.4-3.8 3.8-3.8h3zm13.5.4c0-.3.2-.4.4-.4h2.7c.3 0 .5.2.5.4V48c0 .3-.1.4-.5.4h-2.7c-.3 0-.4-.2-.4-.4v-8.5H215V48c0 .3-.2.4-.4.4h-2.7c-.3 0-.5-.2-.5-.4V27.6c0-.3.1-.4.5-.4h2.7c.3 0 .4.2.4.4v8.5h3.4v-8.5zm10.3 13.9c-.3.2-.4.3-.4.6v2.3c0 .3.2.5.5.5h2.9v-1.1c0-.3.2-.5.5-.5h2.6c.3 0 .5.2.5.5v4.1c0 .3-.2.5-.5.5h-9.6c-.3 0-.5-.2-.5-.5v-7.8c0-.5.2-.7.7-1l6.3-3.4v-3.9c0-.7-.4-1.1-1.1-1.1h-1.3c-.7 0-1.1.4-1.1 1.1v2.1c0 .3-.2.4-.4.4H225c-.3 0-.4-.2-.4-.4V31c0-2.5 1.3-3.8 3.8-3.8h3c2.5 0 3.8 1.3 3.8 3.8v6.3c0 .5-.2.7-.7 1l-5.8 3.2zm20-7.6c0 .3-.2.4-.4.4h-2.7c-.3 0-.4-.2-.4-.4v-2.1c0-.7-.4-1.1-1.1-1.1h-1.4c-.7 0-1.1.4-1.1 1.1v12.1c0 .7.4 1.1 1.1 1.1h1.4c.7 0 1.1-.3 1.1-1.1v-2.1c0-.3.1-.4.4-.4h2.7c.3 0 .4.2.4.4v2.9c0 2.5-1.4 3.8-3.8 3.8h-3c-2.5 0-3.9-1.3-3.9-3.8V31c0-2.5 1.4-3.8 3.9-3.8h3c2.5 0 3.8 1.3 3.8 3.8v2.9zm6.2 11.1h6.3c.3 0 .4.2.4.4v2.7c0 .3-.1.4-.4.4h-9.5c-.3 0-.4-.1-.4-.4V27.6c0-.3.2-.4.4-.4h2.8c.3 0 .4.2.4.4V45zm8.7-14c0-2.5 1.3-3.8 3.8-3.8h3c2.5 0 3.8 1.3 3.8 3.8v13.6c0 2.5-1.3 3.8-3.8 3.8h-3c-2.5 0-3.8-1.3-3.8-3.8V31zm6.1 14.1c.7 0 1.1-.3 1.1-1.1V31.7c0-.7-.4-1.1-1.1-1.1h-1.5c-.7 0-1.1.4-1.1 1.1V44c0 .7.4 1.1 1.1 1.1h1.5zM287 27.2c.3 0 .5.2.5.5v16.9c0 2.5-1.3 3.8-3.8 3.8h-3c-2.5 0-3.8-1.3-3.8-3.8V27.7c0-.3.2-.5.5-.5h2.6c.3 0 .5.2.5.5v16.2c0 .7.4 1.1 1.1 1.1h1.4c.7 0 1.1-.3 1.1-1.1V27.7c0-.3.2-.5.5-.5h2.4zm3.2.4c0-.3.1-.4.4-.4h6.4c2.5 0 3.8 1.4 3.8 3.9v13.6c0 2.5-1.3 3.8-3.8 3.8h-6.4c-.3 0-.4-.1-.4-.4V27.6zm6 17.4c.7 0 1.1-.3 1.1-1.1V31.8c0-.7-.4-1.1-1.1-1.1h-2.4V45h2.4zm28.5-17.8c.3 0 .5.2.5.5v20.2c0 .3-.2.5-.5.5h-2.5c-.3 0-.5-.2-.5-.5V36h-.2l-2.6 12c-.1.3-.3.5-.6.5H317c-.3 0-.5-.2-.6-.5l-2.6-12h-.2v12c0 .3-.2.5-.5.5h-2.4c-.3 0-.5-.2-.5-.5V27.7c0-.3.2-.5.5-.5h3.5c.3 0 .5.2.6.5l3 13.2 3-13.2c.1-.3.3-.5.6-.5h3.3zm3.2 3.8c0-2.5 1.3-3.8 3.8-3.8h3c2.5 0 3.8 1.3 3.8 3.8v13.6c0 2.5-1.3 3.8-3.8 3.8h-3c-2.5 0-3.8-1.3-3.8-3.8V31zm6.2 14.1c.7 0 1.1-.3 1.1-1.1V31.7c0-.7-.4-1.1-1.1-1.1h-1.5c-.7 0-1.1.4-1.1 1.1V44c0 .7.4 1.1 1.1 1.1h1.5zm7.1-17.5c0-.3.1-.4.4-.4h6.4c2.5 0 3.8 1.4 3.8 3.9v13.6c0 2.5-1.3 3.8-3.8 3.8h-6.4c-.3 0-.4-.1-.4-.4V27.6zm6.1 17.4c.7 0 1.1-.3 1.1-1.1V31.8c0-.7-.4-1.1-1.1-1.1h-2.4V45h2.4zm17.3-17.8c.3 0 .5.2.5.5v16.9c0 2.5-1.3 3.8-3.8 3.8h-3c-2.5 0-3.8-1.3-3.8-3.8V27.7c0-.3.2-.5.5-.5h2.6c.3 0 .5.2.5.5v16.2c0 .7.4 1.1 1.1 1.1h1.4c.7 0 1.1-.3 1.1-1.1V27.7c0-.3.2-.5.5-.5h2.4zm6.8 17.8h6.3c.3 0 .4.2.4.4v2.7c0 .3-.1.4-.4.4h-9.5c-.3 0-.4-.1-.4-.4V27.6c0-.3.2-.4.4-.4h2.8c.3 0 .4.2.4.4V45zm19.5-14.7c0 .3-.1.5-.4.5h-6.6v5.3h5.1c.3 0 .4.2.4.5v2.6c0 .3-.2.5-.4.5h-5.1V45h6.6c.3 0 .4.1.4.4v2.7c0 .3-.1.4-.4.4h-9.8c-.2 0-.4-.2-.4-.4V27.6c0-.3.2-.4.4-.4h9.8c.3 0 .4.2.4.4v2.7zm8.7-3.1c2.5 0 3.8 1.3 3.8 3.8v2.8c0 .3-.1.4-.4.4h-2.8c-.3 0-.4-.2-.4-.4v-2.1c0-.7-.3-1.1-1.1-1.1h-1.3c-.7 0-1.1.4-1.1 1.1v3.7l6.3 2.1c.5.2.7.5.7 1v6.1c0 2.5-1.3 3.8-3.8 3.8h-3c-2.5 0-3.8-1.3-3.8-3.8v-2.8c0-.3.2-.4.4-.4h2.8c.3 0 .4.1.4.4v2c0 .7.4 1.1 1.1 1.1h1.3c.7 0 1.1-.3 1.1-1.1v-3.5l-6.3-2.1c-.5-.2-.7-.5-.7-1V31c0-2.5 1.4-3.8 3.8-3.8h3z"/><path class="st3" d="M443.3 131.6c0 2.7-2.2 5-5 5H36.7c-2.7 0-5-2.2-5-5V86.2c0-2.7 2.2-5 5-5h401.7c2.7 0 5 2.2 5 5v45.4z"/><path class="st4" d="M235.5 106.7c0 .2-.1.3-.3.3h-1.5c-.2 0-.3-.1-.3-.3v-1.3c0-.4-.2-.6-.6-.6h-1c-.4 0-.6.2-.6.6v5.8c0 .4.2.6.6.6h1c.4 0 .6-.2.6-.6v-1.4c0-.2.1-.3.3-.3h1.5c.2 0 .3.1.3.3v1.7c0 1.5-.8 2.3-2.3 2.3h-1.8c-1.5 0-2.3-.8-2.3-2.3v-6.6c0-1.5.8-2.3 2.3-2.3h1.8c1.5 0 2.3.8 2.3 2.3v1.8zm3.7 5h3.2c.2 0 .3.1.3.3v1.6c0 .2-.1.3-.3.3h-5.1c-.2 0-.3-.1-.3-.3v-10.7c0-.2.1-.3.3-.3h1.7c.2 0 .3.1.3.3v8.8zm4.9 2.1c-.2 0-.3-.1-.3-.3v-10.7c0-.2.1-.3.3-.3h1.7c.2 0 .3.1.3.3v10.7c0 .2-.1.3-.3.3h-1.7z"/><path d="M59.6 169.4c0-.2.1-.3.3-.3h3.8c1.5 0 2.3.8 2.3 2.3v6.6c0 1.5-.8 2.3-2.3 2.3h-3.8c-.2 0-.3-.1-.3-.3v-10.6zm3.7 8.9c.4 0 .6-.2.6-.6V172c0-.4-.2-.7-.6-.7h-1.5v7h1.5zM74 171c0 .2-.1.3-.3.3h-4v2.5h3c.2 0 .3.1.3.3v1.6c0 .2-.1.3-.3.3h-3v2.4h4c.2 0 .3.1.3.3v1.6c0 .2-.1.3-.3.3h-5.9c-.1 0-.2-.1-.2-.3v-10.7c0-.2.1-.3.2-.3h5.9c.2 0 .3.1.3.3v1.4zm1.6-1.6c0-.2.1-.3.3-.3h3.8c1.5 0 2.3.8 2.3 2.3v3.1c0 1.5-.8 2.3-2.3 2.3h-2v3.2c0 .2-.1.3-.3.3h-1.6c-.2 0-.3-.1-.3-.3v-10.6zm3.7 5.4c.4 0 .6-.2.6-.6v-2.3c0-.4-.2-.6-.6-.6h-1.6v3.6l1.6-.1zm6.5 3.5H89c.2 0 .3.1.3.3v1.6c0 .2-.1.3-.3.3h-5.1c-.2 0-.3-.1-.3-.3v-10.7c0-.2.1-.3.3-.3h1.7c.2 0 .3.1.3.3v8.8zm4.6-6.8c0-1.5.8-2.3 2.3-2.3h1.8c1.5 0 2.3.8 2.3 2.3v6.6c0 1.5-.8 2.3-2.3 2.3h-1.8c-1.5 0-2.3-.8-2.3-2.3v-6.6zm3.7 6.8c.4 0 .6-.2.6-.6v-5.8c0-.4-.2-.6-.6-.6h-1c-.4 0-.6.2-.6.6v5.8c0 .4.2.6.6.6h1zm10.7-9.1c.2 0 .4.2.3.4l-2.9 6.7v3.9c0 .2-.1.3-.3.3h-1.5c-.2 0-.3-.1-.3-.3v-3.9l-2.9-6.7c-.1-.2 0-.4.3-.4h1.6c.2 0 .3.1.4.3l1.8 4.1 1.8-4.1c.1-.2.2-.3.4-.3h1.3zm10 0c.2 0 .3.1.3.3v10.6c0 .2-.1.3-.3.3h-1.5c-.2 0-.3-.1-.3-.3v-6.3h-.1l-1.5 6.3c0 .2-.2.3-.4.3h-.9c-.2 0-.3-.1-.4-.3l-1.5-6.3h-.1v6.3c0 .2-.1.3-.3.3h-1.5c-.2 0-.3-.1-.3-.3v-10.6c0-.2.1-.3.3-.3h2.1c.2 0 .3.1.4.3l1.8 7.2 1.8-7.2c0-.2.2-.3.4-.3h2zm8.4 1.8c0 .2-.1.3-.3.3h-4v2.5h3c.2 0 .3.1.3.3v1.6c0 .2-.1.3-.3.3h-3v2.4h4c.2 0 .3.1.3.3v1.6c0 .2-.1.3-.3.3H117c-.1 0-.2-.1-.2-.3v-10.7c0-.2.1-.3.2-.3h5.9c.2 0 .3.1.3.3v1.4zm8.2-1.8c.2 0 .3.1.3.3v10.7c0 .2-.1.3-.3.3h-1.3c-.1 0-.2-.1-.3-.2l-3-6.1v6.1c0 .2-.1.3-.3.3H125c-.2 0-.3-.1-.3-.3v-10.7c0-.2.1-.3.3-.3h1.3c.1 0 .2.1.3.2l3 6.1v-6.1c0-.2.1-.3.3-.3h1.5zm7.7 0c.2 0 .3.1.3.3v1.6c0 .2-.1.3-.3.3h-1.9v8.9c0 .2-.1.3-.3.3h-1.7c-.2 0-.3-.1-.3-.3v-8.9H133c-.2 0-.3-.1-.3-.3v-1.6c0-.2.1-.3.3-.3h6.1zm11.9 4c0 .2-.1.3-.3.3h-1.5c-.2 0-.3-.1-.3-.3v-1.3c0-.4-.2-.6-.6-.6h-1c-.4 0-.6.2-.6.6v5.8c0 .4.2.6.6.6h1c.4 0 .6-.2.6-.6v-1.4c0-.2.1-.3.3-.3h1.5c.2 0 .3.1.3.3v1.7c0 1.5-.8 2.3-2.3 2.3h-1.8c-1.5 0-2.3-.8-2.3-2.3v-6.6c0-1.5.8-2.3 2.3-2.3h1.8c1.5 0 2.3.8 2.3 2.3v1.8zm1.6-1.7c0-1.5.8-2.3 2.3-2.3h1.8c1.5 0 2.3.8 2.3 2.3v6.6c0 1.5-.8 2.3-2.3 2.3h-1.8c-1.5 0-2.3-.8-2.3-2.3v-6.6zm3.8 6.8c.4 0 .6-.2.6-.6v-5.8c0-.4-.2-.6-.6-.6h-1c-.4 0-.6.2-.6.6v5.8c0 .4.2.6.6.6h1zm13.1-9.1c.2 0 .3.1.3.3v10.6c0 .2-.1.3-.3.3H168c-.2 0-.3-.1-.3-.3v-6.3h-.1l-1.5 6.3c0 .2-.2.3-.4.3h-.9c-.2 0-.3-.1-.4-.3l-1.5-6.3h-.1v6.3c0 .2-.1.3-.3.3H161c-.2 0-.3-.1-.3-.3v-10.6c0-.2.1-.3.3-.3h2.1c.2 0 .3.1.4.3l1.8 7.2 1.8-7.2c0-.2.2-.3.4-.3h2zm1.9.2c0-.2.1-.3.3-.3h3.8c1.5 0 2.3.8 2.3 2.3v3.1c0 1.5-.8 2.3-2.3 2.3h-2v3.2c0 .2-.1.3-.3.3h-1.6c-.2 0-.3-.1-.3-.3v-10.6zm3.7 5.4c.4 0 .6-.2.6-.6v-2.3c0-.4-.2-.6-.6-.6h-1.6v3.6l1.6-.1zm4.6 5.6c-.2 0-.3-.1-.3-.3v-10.7c0-.2.1-.3.3-.3h1.7c.2 0 .3.1.3.3v10.7c0 .2-.1.3-.3.3h-1.7zm5.7-2.1h3.2c.2 0 .3.1.3.3v1.6c0 .2-.1.3-.3.3h-5.1c-.2 0-.3-.1-.3-.3v-10.7c0-.2.1-.3.3-.3h1.7c.2 0 .3.1.3.3v8.8zm11.2-7.3c0 .2-.1.3-.3.3h-4v2.5h3c.2 0 .3.1.3.3v1.6c0 .2-.1.3-.3.3h-3v2.4h4c.2 0 .3.1.3.3v1.6c0 .2-.1.3-.3.3h-5.9c-.1 0-.2-.1-.2-.3v-10.7c0-.2.1-.3.2-.3h5.9c.2 0 .3.1.3.3v1.4zm7.9 3.7c0 .9-.3 1.6-.9 2l.8 3.4c0 .2 0 .3-.2.3h-1.6c-.2 0-.2-.1-.3-.2l-.8-3.2h-1.4v3.1c0 .2-.1.3-.3.3h-1.6c-.2 0-.3-.1-.3-.3v-10.7c0-.2.1-.3.3-.3h3.8c1.5 0 2.3.8 2.3 2.3v3.3zm-2.7.2c.4 0 .6-.2.6-.6v-2.4c0-.4-.2-.6-.6-.6h-1.6v3.7h1.6z"/><path class="st5" d="M441.9 197.7c0 2.7-2.2 5-5 5H247.3c-2.7 0-5-2.2-5-5v-45.3c0-2.7 2.2-5 5-5h189.6c2.7 0 5 2.2 5 5v45.3z"/><path d="M299.3 173.2c0 .2-.1.3-.3.3h-1.5c-.2 0-.3-.1-.3-.3v-1.3c0-.4-.2-.6-.6-.6h-1c-.4 0-.6.2-.6.6v5.8c0 .4.2.6.6.6h1c.4 0 .6-.2.6-.6v-1.4c0-.2.1-.3.3-.3h1.5c.2 0 .3.1.3.3v1.7c0 1.5-.8 2.3-2.3 2.3h-1.8c-1.5 0-2.3-.8-2.3-2.3v-6.6c0-1.5.8-2.3 2.3-2.3h1.8c1.5 0 2.3.8 2.3 2.3v1.8zm8-2.2c0 .2-.1.3-.3.3h-4v2.7h3c.2 0 .3.1.3.3v1.6c0 .2-.1.3-.3.3h-3v4c0 .2-.1.3-.3.3H301c-.2 0-.3-.1-.3-.3v-10.7c0-.2.1-.3.3-.3h5.9c.2 0 .3.1.3.3v1.5zm1.6 2.9c0-.2.1-.3.3-.3h2.5c.2 0 .3.1.3.3v1.5c0 .2-.1.3-.3.3h-2.5c-.2 0-.3-.1-.3-.3v-1.5zm15.3-4.7c.2 0 .3.1.3.3l-1.5 10.6c0 .2-.1.3-.4.3h-1.7c-.2 0-.3-.1-.4-.3l-1.5-6.6-1.5 6.6c0 .2-.2.3-.4.3h-1.8c-.2 0-.3-.1-.4-.3l-1.5-10.6c0-.2.1-.3.3-.3h1.5c.2 0 .3.1.3.3l.8 6.7h.1l1.6-6.7c0-.2.2-.3.4-.3h1c.2 0 .3.1.4.3l1.6 6.7h.1l.8-6.7c0-.2.1-.3.3-.3h1.6zm1.8 2.3c0-1.5.8-2.3 2.3-2.3h1.8c1.5 0 2.3.8 2.3 2.3v6.6c0 1.5-.8 2.3-2.3 2.3h-1.8c-1.5 0-2.3-.8-2.3-2.3v-6.6zm3.7 6.8c.4 0 .6-.2.6-.6v-5.8c0-.4-.2-.6-.6-.6h-1c-.4 0-.6.2-.6.6v5.8c0 .4.2.6.6.6h1zm10.7-3.6c0 .9-.3 1.6-.9 2l.8 3.4c0 .2 0 .3-.2.3h-1.6c-.2 0-.2-.1-.3-.2l-.8-3.2H336v3.1c0 .2-.1.3-.3.3h-1.6c-.2 0-.3-.1-.3-.3v-10.7c0-.2.1-.3.3-.3h3.8c1.5 0 2.3.8 2.3 2.3v3.3zm-2.7.2c.4 0 .6-.2.6-.6v-2.4c0-.4-.2-.6-.6-.6h-1.6v3.7h1.6zm9.5 5.5c-.2 0-.3-.1-.4-.2l-2-4-.6 1.1v2.7c0 .2-.1.3-.3.3h-1.5c-.2 0-.3-.1-.3-.3v-10.6c0-.2.1-.3.3-.3h1.5c.2 0 .3.1.3.3v4.2l2.5-4.2c.1-.1.2-.2.4-.2h1.7c.2 0 .4.2.2.4l-2.7 4.8 2.9 5.7c.1.2 0 .4-.2.4h-1.8zm9.8-9.4c0 .2-.1.3-.3.3h-4v2.7h3c.2 0 .3.1.3.3v1.6c0 .2-.1.3-.3.3h-3v4c0 .2-.1.3-.3.3h-1.7c-.2 0-.3-.1-.3-.3v-10.7c0-.2.1-.3.3-.3h5.9c.2 0 .3.1.3.3v1.5zm3.8 7.3h3.2c.2 0 .3.1.3.3v1.6c0 .2-.1.3-.3.3h-5.1c-.2 0-.3-.1-.3-.3v-10.7c0-.2.1-.3.3-.3h1.7c.2 0 .3.1.3.3v8.8zm4.5-6.8c0-1.5.8-2.3 2.3-2.3h1.8c1.5 0 2.3.8 2.3 2.3v6.6c0 1.5-.8 2.3-2.3 2.3h-1.8c-1.5 0-2.3-.8-2.3-2.3v-6.6zm3.8 6.8c.4 0 .6-.2.6-.6v-5.8c0-.4-.2-.6-.6-.6h-1c-.4 0-.6.2-.6.6v5.8c0 .4.2.6.6.6h1zm14.2-9.1c.2 0 .3.1.3.3l-1.5 10.6c0 .2-.1.3-.4.3H380c-.2 0-.3-.1-.4-.3l-1.5-6.6-1.5 6.6c0 .2-.2.3-.4.3h-1.8c-.2 0-.3-.1-.4-.3l-1.5-10.6c0-.2.1-.3.3-.3h1.5c.2 0 .3.1.3.3l.8 6.7h.1l1.6-6.7c0-.2.2-.3.4-.3h1c.2 0 .3.1.4.3l1.6 6.7h.1l.8-6.7c0-.2.1-.3.3-.3h1.6zm5.8 0c1.5 0 2.3.8 2.3 2.3v1.1c0 .2-.1.3-.3.3h-1.6c-.2 0-.3-.1-.3-.3v-.7c0-.4-.2-.6-.6-.6h-.9c-.4 0-.6.2-.6.6v1.4l3.9 1.3c.3.1.4.3.4.6v3c0 1.5-.8 2.3-2.3 2.3h-1.8c-1.5 0-2.3-.8-2.3-2.3v-1c0-.2.1-.3.3-.3h1.6c.2 0 .3.1.3.3v.7c0 .4.2.6.6.6h.9c.4 0 .6-.2.6-.6v-1.6l-3.8-1.3c-.3-.1-.4-.3-.4-.6v-2.8c0-1.5.8-2.3 2.3-2.3h1.7zM72.4 223.7c.2 0 .3.1.3.3l-1.5 10.6c0 .2-.1.3-.4.3h-1.7c-.2 0-.3-.1-.4-.3l-1.5-6.6-1.5 6.6c0 .2-.2.3-.4.3h-1.8c-.2 0-.3-.1-.4-.3L61.8 224c0-.2.1-.3.3-.3h1.5c.2 0 .3.1.3.3l.8 6.7h.1l1.6-6.7c0-.2.2-.3.4-.3h1c.2 0 .3.1.4.3l1.6 6.7h.1l.8-6.7c0-.2.1-.3.3-.3h1.4zm1.7 2.3c0-1.5.8-2.3 2.3-2.3h1.8c1.5 0 2.3.8 2.3 2.3v6.6c0 1.5-.8 2.3-2.3 2.3h-1.8c-1.5 0-2.3-.8-2.3-2.3V226zm3.8 6.8c.4 0 .6-.2.6-.6v-5.8c0-.4-.2-.6-.6-.6h-1c-.4 0-.6.2-.6.6v5.8c0 .4.2.6.6.6h1zm10.7-3.6c0 .9-.3 1.6-.9 2l.8 3.4c0 .2 0 .3-.2.3h-1.6c-.2 0-.2-.1-.3-.2l-.8-3.2h-1.4v3.1c0 .2-.1.3-.3.3h-1.6c-.2 0-.3-.1-.3-.3v-10.7c0-.2.1-.3.3-.3h3.8c1.5 0 2.3.8 2.3 2.3v3.3zm-2.8.2c.4 0 .6-.2.6-.6v-2.4c0-.4-.2-.6-.6-.6h-1.6v3.7h1.6zm9.5 5.5c-.2 0-.3-.1-.4-.2l-2-4-.6 1.1v2.7c0 .2-.1.3-.3.3h-1.5c-.2 0-.3-.1-.3-.3V224c0-.2.1-.3.3-.3H92c.2 0 .3.1.3.3v4.2l2.5-4.2c.1-.1.2-.2.4-.2h1.7c.2 0 .4.2.2.4l-2.7 4.8 2.9 5.7c.1.2 0 .4-.2.4h-1.8zm7.6-11.2c1.5 0 2.3.8 2.3 2.3v1.1c0 .2-.1.3-.3.3h-1.6c-.2 0-.3-.1-.3-.3v-.7c0-.4-.2-.6-.6-.6h-.9c-.4 0-.6.2-.6.6v1.4l3.9 1.3c.3.1.4.3.4.6v3c0 1.5-.8 2.3-2.3 2.3h-1.8c-1.5 0-2.3-.8-2.3-2.3v-1c0-.2.1-.3.3-.3h1.6c.2 0 .3.1.3.3v.7c0 .4.2.6.6.6h.9c.4 0 .6-.2.6-.6v-1.6l-3.8-1.3c-.3-.1-.4-.3-.4-.6V226c0-1.5.8-2.3 2.3-2.3h1.7zm3.9.2c0-.2.1-.3.3-.3h3.8c1.5 0 2.3.8 2.3 2.3v3.1c0 1.5-.8 2.3-2.3 2.3h-2v3.2c0 .2-.1.3-.3.3H107c-.2 0-.3-.1-.3-.3v-10.6zm3.7 5.4c.4 0 .6-.2.6-.6v-2.3c0-.4-.2-.6-.6-.6h-1.6v3.6l1.6-.1zm9 5.6c-.1 0-.2-.1-.3-.2l-.5-2h-3l-.5 2c0 .1-.1.2-.3.2h-1.6c-.2 0-.3-.1-.2-.3l2.7-10.7c0-.2.1-.2.3-.2h2.2c.1 0 .2.1.3.2l2.7 10.7c0 .2 0 .3-.2.3h-1.6zm-2.3-8.5l-1 4.4h2l-1-4.4zm11.3 1.3c0 .2-.1.3-.3.3h-1.5c-.2 0-.3-.1-.3-.3v-1.3c0-.4-.2-.6-.6-.6h-1c-.4 0-.6.2-.6.6v5.8c0 .4.2.6.6.6h1c.4 0 .6-.2.6-.6v-1.4c0-.2.1-.3.3-.3h1.5c.2 0 .3.1.3.3v1.7c0 1.5-.8 2.3-2.3 2.3h-1.8c-1.5 0-2.3-.8-2.3-2.3V226c0-1.5.8-2.3 2.3-2.3h1.8c1.5 0 2.3.8 2.3 2.3v1.7zm8.1-2.2c0 .2-.1.3-.3.3h-4v2.5h3c.2 0 .3.1.3.3v1.6c0 .2-.1.3-.3.3h-3v2.4h4c.2 0 .3.1.3.3v1.6c0 .2-.1.3-.3.3h-5.9c-.1 0-.2-.1-.2-.3v-10.7c0-.2.1-.3.2-.3h5.9c.2 0 .3.1.3.3v1.4zm1.6 2.9c0-.2.1-.3.3-.3h2.5c.2 0 .3.1.3.3v1.5c0 .2-.1.3-.3.3h-2.5c-.2 0-.3-.1-.3-.3v-1.5zm11.1.8c0 .9-.3 1.6-.9 2l.8 3.4c0 .2 0 .3-.2.3h-1.6c-.2 0-.2-.1-.3-.2l-.8-3.2H145v3.1c0 .2-.1.3-.3.3h-1.6c-.2 0-.3-.1-.3-.3v-10.7c0-.2.1-.3.3-.3h3.8c1.5 0 2.3.8 2.3 2.3v3.3zm-2.7.2c.4 0 .6-.2.6-.6v-2.4c0-.4-.2-.6-.6-.6H145v3.7h1.6zm10.7-3.9c0 .2-.1.3-.3.3h-4v2.5h3c.2 0 .3.1.3.3v1.6c0 .2-.1.3-.3.3h-3v2.4h4c.2 0 .3.1.3.3v1.6c0 .2-.1.3-.3.3h-5.9c-.1 0-.2-.1-.2-.3v-10.7c0-.2.1-.3.2-.3h5.9c.2 0 .3.1.3.3v1.4zm5.3-1.8c1.5 0 2.3.8 2.3 2.3v1.1c0 .2-.1.3-.3.3H163c-.2 0-.3-.1-.3-.3v-.7c0-.4-.2-.6-.6-.6h-.9c-.4 0-.6.2-.6.6v1.4l3.9 1.3c.3.1.4.3.4.6v3c0 1.5-.8 2.3-2.3 2.3h-1.8c-1.5 0-2.3-.8-2.3-2.3v-1c0-.2.1-.3.3-.3h1.6c.2 0 .3.1.3.3v.7c0 .4.2.6.6.6h.9c.4 0 .6-.2.6-.6v-1.6l-3.8-1.3c-.3-.1-.4-.3-.4-.6V226c0-1.5.8-2.3 2.3-2.3h1.7zm3.9 2.3c0-1.5.8-2.3 2.3-2.3h1.8c1.5 0 2.3.8 2.3 2.3v6.6c0 1.5-.8 2.3-2.3 2.3h-1.8c-1.5 0-2.3-.8-2.3-2.3V226zm3.7 6.8c.4 0 .6-.2.6-.6v-5.8c0-.4-.2-.6-.6-.6h-1c-.4 0-.6.2-.6.6v5.8c0 .4.2.6.6.6h1zm6.5 0h3.2c.2 0 .3.1.3.3v1.6c0 .2-.1.3-.3.3h-5.1c-.2 0-.3-.1-.3-.3V224c0-.2.1-.3.3-.3h1.7c.2 0 .3.1.3.3v8.8zm9.9-9.1c.2 0 .3.1.3.4l-2.6 10.6c0 .2-.2.3-.4.3h-1.6c-.2 0-.3-.1-.4-.3l-2.5-10.6c0-.2 0-.4.3-.4h1.5c.2 0 .3.1.4.3l1.6 7.2 1.6-7.2c0-.2.2-.3.4-.3h1.4zm7.8 1.8c0 .2-.1.3-.3.3h-4v2.5h3c.2 0 .3.1.3.3v1.6c0 .2-.1.3-.3.3h-3v2.4h4c.2 0 .3.1.3.3v1.6c0 .2-.1.3-.3.3h-5.9c-.1 0-.2-.1-.2-.3v-10.7c0-.2.1-.3.2-.3h5.9c.2 0 .3.1.3.3v1.4zm7.9 3.7c0 .9-.3 1.6-.9 2l.8 3.4c0 .2 0 .3-.2.3h-1.6c-.2 0-.2-.1-.3-.2l-.8-3.2h-1.4v3.1c0 .2-.1.3-.3.3H196c-.2 0-.3-.1-.3-.3v-10.7c0-.2.1-.3.3-.3h3.8c1.5 0 2.3.8 2.3 2.3v3.3zm-2.7.2c.4 0 .6-.2.6-.6v-2.4c0-.4-.2-.6-.6-.6H198v3.7h1.6zm-117.9 60c-.1 0-.2-.1-.3-.2l-.5-2h-3l-.5 2c0 .1-.1.2-.3.2h-1.6c-.2 0-.3-.1-.2-.3l2.7-10.7c0-.2.1-.2.3-.2h2.2c.1 0 .2.1.3.2l2.7 10.7c0 .2 0 .3-.2.3h-1.6zm-2.3-8.5l-1 4.4h2l-1-4.4zm5.4-2.5c0-.2.1-.3.3-.3h3.8c1.5 0 2.3.8 2.3 2.3v3.1c0 1.5-.8 2.3-2.3 2.3h-2v3.2c0 .2-.1.3-.3.3H85c-.2 0-.3-.1-.3-.3v-10.6zm3.6 5.5c.4 0 .6-.2.6-.6V281c0-.4-.2-.6-.6-.6h-1.6v3.6l1.6-.1zm4.4-5.5c0-.2.1-.3.3-.3h3.8c1.5 0 2.3.8 2.3 2.3v3.1c0 1.5-.8 2.3-2.3 2.3h-2v3.2c0 .2-.1.3-.3.3H93c-.2 0-.3-.1-.3-.3v-10.6zm3.7 5.5c.4 0 .6-.2.6-.6V281c0-.4-.2-.6-.6-.6h-1.6v3.6l1.6-.1zm4.3-1c0-.2.1-.3.3-.3h2.5c.2 0 .3.1.3.3v1.5c0 .2-.1.3-.3.3h-2.5c-.2 0-.3-.1-.3-.3v-1.5zm11.2-.7c0 .2-.1.3-.3.3h-1.5c-.2 0-.3-.1-.3-.3v-1.3c0-.4-.2-.6-.6-.6h-1c-.4 0-.6.2-.6.6v5.8c0 .4.2.6.6.6h1c.4 0 .6-.2.6-.6v-1.4c0-.2.1-.3.3-.3h1.5c.2 0 .3.1.3.3v1.7c0 1.5-.8 2.3-2.3 2.3h-1.8c-1.5 0-2.3-.8-2.3-2.3v-6.6c0-1.5.8-2.3 2.3-2.3h1.8c1.5 0 2.3.8 2.3 2.3v1.8zm1.6-1.7c0-1.5.8-2.3 2.3-2.3h1.8c1.5 0 2.3.8 2.3 2.3v6.6c0 1.5-.8 2.3-2.3 2.3h-1.8c-1.5 0-2.3-.8-2.3-2.3v-6.6zm3.8 6.8c.4 0 .6-.2.6-.6v-5.8c0-.4-.2-.6-.6-.6h-1c-.4 0-.6.2-.6.6v5.8c0 .4.2.6.6.6h1zm10.8-9.1c.2 0 .3.1.3.3v10.7c0 .2-.1.3-.3.3h-1.3c-.1 0-.2-.1-.3-.2l-3-6.1v6.1c0 .2-.1.3-.3.3h-1.5c-.2 0-.3-.1-.3-.3v-10.7c0-.2.1-.3.3-.3h1.3c.1 0 .2.1.3.2l3 6.1v-6.1c0-.2.1-.3.3-.3h1.5zm8.5 0c.2 0 .3.1.3.3v10.7c0 .2-.1.3-.3.3h-1.3c-.1 0-.2-.1-.3-.2l-3-6.1v6.1c0 .2-.1.3-.3.3h-1.5c-.2 0-.3-.1-.3-.3v-10.7c0-.2.1-.3.3-.3h1.3c.1 0 .2.1.3.2l3 6.1v-6.1c0-.2.1-.3.3-.3h1.5zm8.2 1.8c0 .2-.1.3-.3.3h-4v2.5h3c.2 0 .3.1.3.3v1.6c0 .2-.1.3-.3.3h-3v2.4h4c.2 0 .3.1.3.3v1.6c0 .2-.1.3-.3.3h-5.9c-.1 0-.2-.1-.2-.3v-10.7c0-.2.1-.3.2-.3h5.9c.2 0 .3.1.3.3v1.4zm8.1 2.2c0 .2-.1.3-.3.3h-1.5c-.2 0-.3-.1-.3-.3v-1.3c0-.4-.2-.6-.6-.6h-1c-.4 0-.6.2-.6.6v5.8c0 .4.2.6.6.6h1c.4 0 .6-.2.6-.6v-1.4c0-.2.1-.3.3-.3h1.5c.2 0 .3.1.3.3v1.7c0 1.5-.8 2.3-2.3 2.3h-1.8c-1.5 0-2.3-.8-2.3-2.3v-6.6c0-1.5.8-2.3 2.3-2.3h1.8c1.5 0 2.3.8 2.3 2.3v1.8zm7.4-4c.2 0 .3.1.3.3v1.6c0 .2-.1.3-.3.3h-1.9v8.9c0 .2-.1.3-.3.3h-1.7c-.2 0-.3-.1-.3-.3v-8.9h-1.9c-.2 0-.3-.1-.3-.3v-1.6c0-.2.1-.3.3-.3h6.1zm1.6 11.2c-.2 0-.3-.1-.3-.3v-10.7c0-.2.1-.3.3-.3h1.7c.2 0 .3.1.3.3v10.7c0 .2-.1.3-.3.3H162zm3.6-8.9c0-1.5.8-2.3 2.3-2.3h1.8c1.5 0 2.3.8 2.3 2.3v6.6c0 1.5-.8 2.3-2.3 2.3h-1.8c-1.5 0-2.3-.8-2.3-2.3v-6.6zm3.7 6.8c.4 0 .6-.2.6-.6v-5.8c0-.4-.2-.6-.6-.6h-1c-.4 0-.6.2-.6.6v5.8c0 .4.2.6.6.6h1zm10.9-9.1c.2 0 .3.1.3.3v10.7c0 .2-.1.3-.3.3h-1.3c-.1 0-.2-.1-.3-.2l-3-6.1v6.1c0 .2-.1.3-.3.3h-1.5c-.2 0-.3-.1-.3-.3v-10.7c0-.2.1-.3.3-.3h1.3c.1 0 .2.1.3.2l3 6.1v-6.1c0-.2.1-.3.3-.3h1.5zm5.9 0c1.5 0 2.3.8 2.3 2.3v1.1c0 .2-.1.3-.3.3h-1.6c-.2 0-.3-.1-.3-.3v-.7c0-.4-.2-.6-.6-.6h-.9c-.4 0-.6.2-.6.6v1.4l3.9 1.3c.3.1.4.3.4.6v3c0 1.5-.8 2.3-2.3 2.3h-1.8c-1.5 0-2.3-.8-2.3-2.3v-1c0-.2.1-.3.3-.3h1.6c.2 0 .3.1.3.3v.7c0 .4.2.6.6.6h.9c.4 0 .6-.2.6-.6v-1.6l-3.8-1.3c-.3-.1-.4-.3-.4-.6v-2.8c0-1.5.8-2.3 2.3-2.3h1.7zm-98.5 65.7c-.1 0-.2-.1-.3-.2l-.5-2h-3l-.5 2c0 .1-.1.2-.3.2h-1.6c-.2 0-.3-.1-.2-.3l2.7-10.7c0-.2.1-.2.3-.2h2.2c.1 0 .2.1.3.2l2.7 10.7c0 .2 0 .3-.2.3h-1.6zm-2.3-8.5l-1 4.4h2l-1-4.4zm5.4-2.5c0-.2.1-.3.3-.3h3.8c1.5 0 2.3.8 2.3 2.3v3.1c0 1.5-.8 2.3-2.3 2.3h-2v3.2c0 .2-.1.3-.3.3h-1.6c-.2 0-.3-.1-.3-.3v-10.6zm3.7 5.5c.4 0 .6-.2.6-.6v-2.3c0-.4-.2-.6-.6-.6h-1.6v3.6l1.6-.1zm4.3-5.5c0-.2.1-.3.3-.3h3.8c1.5 0 2.3.8 2.3 2.3v3.1c0 1.5-.8 2.3-2.3 2.3h-2v3.2c0 .2-.1.3-.3.3h-1.6c-.2 0-.3-.1-.3-.3v-10.6zm3.7 5.5c.4 0 .6-.2.6-.6v-2.3c0-.4-.2-.6-.6-.6h-1.6v3.6l1.6-.1zm4.3-1c0-.2.1-.3.3-.3h2.5c.2 0 .3.1.3.3v1.5c0 .2-.1.3-.3.3H107c-.2 0-.3-.1-.3-.3v-1.5zm11.6-4.7c.2 0 .3.1.3.4l-2.6 10.6c0 .2-.2.3-.4.3H114c-.2 0-.3-.1-.4-.3l-2.5-10.6c0-.2 0-.4.3-.4h1.5c.2 0 .3.1.4.3l1.6 7.2 1.6-7.2c0-.2.2-.3.4-.3h1.4zm7.8 1.8c0 .2-.1.3-.3.3h-4v2.5h3c.2 0 .3.1.3.3v1.6c0 .2-.1.3-.3.3h-3v2.4h4c.2 0 .3.1.3.3v1.6c0 .2-.1.3-.3.3H120c-.1 0-.2-.1-.2-.3v-10.7c0-.2.1-.3.2-.3h5.9c.2 0 .3.1.3.3v1.4zm7.9 3.7c0 .9-.3 1.6-.9 2l.8 3.4c0 .2 0 .3-.2.3h-1.6c-.2 0-.2-.1-.3-.2l-.8-3.2h-1.4v3.1c0 .2-.1.3-.3.3h-1.6c-.2 0-.3-.1-.3-.3v-10.7c0-.2.1-.3.3-.3h3.8c1.5 0 2.3.8 2.3 2.3v3.3zm-2.7.2c.4 0 .6-.2.6-.6v-2.4c0-.4-.2-.6-.6-.6h-1.6v3.7h1.6zm8.4-5.7c1.5 0 2.3.8 2.3 2.3v1.1c0 .2-.1.3-.3.3h-1.6c-.2 0-.3-.1-.3-.3v-.7c0-.4-.2-.6-.6-.6h-.9c-.4 0-.6.2-.6.6v1.4l3.9 1.3c.3.1.4.3.4.6v3c0 1.5-.8 2.3-2.3 2.3h-1.8c-1.5 0-2.3-.8-2.3-2.3v-1c0-.2.1-.3.3-.3h1.6c.2 0 .3.1.3.3v.7c0 .4.2.6.6.6h.9c.4 0 .6-.2.6-.6v-1.6l-3.8-1.3c-.3-.1-.4-.3-.4-.6V335c0-1.5.8-2.3 2.3-2.3h1.7zm4.2 11.2c-.2 0-.3-.1-.3-.3v-10.7c0-.2.1-.3.3-.3h1.7c.2 0 .3.1.3.3v10.7c0 .2-.1.3-.3.3h-1.7zm3.5-8.9c0-1.5.8-2.3 2.3-2.3h1.8c1.5 0 2.3.8 2.3 2.3v6.6c0 1.5-.8 2.3-2.3 2.3h-1.8c-1.5 0-2.3-.8-2.3-2.3V335zm3.7 6.8c.4 0 .6-.2.6-.6v-5.8c0-.4-.2-.6-.6-.6h-1c-.4 0-.6.2-.6.6v5.8c0 .4.2.6.6.6h1zm10.9-9.1c.2 0 .3.1.3.3v10.7c0 .2-.1.3-.3.3h-1.3c-.1 0-.2-.1-.3-.2l-3-6.1v6.1c0 .2-.1.3-.3.3h-1.5c-.2 0-.3-.1-.3-.3v-10.7c0-.2.1-.3.3-.3h1.3c.1 0 .2.1.3.2l3 6.1V333c0-.2.1-.3.3-.3h1.5zm2.1 11.2c-.2 0-.3-.1-.3-.3v-10.7c0-.2.1-.3.3-.3h1.7c.2 0 .3.1.3.3v10.7c0 .2-.1.3-.3.3h-1.7zm10.1-11.2c.2 0 .3.1.3.3v10.7c0 .2-.1.3-.3.3H173c-.1 0-.2-.1-.3-.2l-3-6.1v6.1c0 .2-.1.3-.3.3h-1.5c-.2 0-.3-.1-.3-.3v-10.7c0-.2.1-.3.3-.3h1.3c.1 0 .2.1.3.2l3 6.1V333c0-.2.1-.3.3-.3h1.4zm1.9 2.3c0-1.5.8-2.3 2.3-2.3h1.8c1.5 0 2.3.8 2.3 2.3v1.2c0 .2-.1.3-.3.3h-1.5c-.2 0-.3-.1-.3-.3v-.8c0-.4-.2-.6-.6-.6h-1c-.4 0-.6.2-.6.6v5.8c0 .4.2.6.6.6h1c.4 0 .6-.2.6-.6v-1.4h-.8c-.2 0-.3-.1-.3-.3v-1.6c0-.2.1-.3.3-.3h2.6c.2 0 .3.1.3.3v3.7c0 1.5-.8 2.3-2.3 2.3h-1.8c-1.5 0-2.3-.8-2.3-2.3V335zm-52.8 54.5c0-1.5.8-2.3 2.3-2.3h1.8c1.5 0 2.3.8 2.3 2.3v1.2c0 .2-.1.3-.3.3H128c-.2 0-.3-.1-.3-.3v-.8c0-.4-.2-.6-.6-.6h-1c-.4 0-.6.2-.6.6v5.8c0 .4.2.6.6.6h1c.4 0 .6-.2.6-.6v-1.4h-.8c-.2 0-.3-.1-.3-.3v-1.6c0-.2.1-.3.3-.3h2.6c.2 0 .3.1.3.3v3.7c0 1.5-.8 2.3-2.3 2.3h-1.8c-1.5 0-2.3-.8-2.3-2.3v-6.6zm8.3 8.9c-.2 0-.3-.1-.3-.3v-10.7c0-.2.1-.3.3-.3h1.7c.2 0 .3.1.3.3v10.7c0 .2-.1.3-.3.3h-1.7zm9.2-11.2c.2 0 .3.1.3.3v1.6c0 .2-.1.3-.3.3H139v8.9c0 .2-.1.3-.3.3H137c-.2 0-.3-.1-.3-.3v-8.9h-1.9c-.2 0-.3-.1-.3-.3v-1.6c0-.2.1-.3.3-.3h6zm-19.1 55.2c.2 0 .3.1.3.4l-2.6 10.6c0 .2-.2.3-.4.3h-1.6c-.2 0-.3-.1-.4-.3l-2.5-10.6c0-.2 0-.4.3-.4h1.5c.2 0 .3.1.4.3l1.6 7.2 1.6-7.2c0-.2.2-.3.4-.3h1.4zm5.7 11.2c-.1 0-.2-.1-.3-.2l-.5-2h-3l-.5 2c0 .1-.1.2-.3.2h-1.6c-.2 0-.3-.1-.2-.3l2.7-10.7c0-.2.1-.2.3-.2h2.2c.1 0 .2.1.3.2l2.7 10.7c0 .2 0 .3-.2.3h-1.6zm-2.3-8.4l-1 4.4h2l-1-4.4zm11-2.8c.2 0 .3.1.3.3v8.6c0 1.5-.8 2.3-2.3 2.3h-1.8c-1.5 0-2.3-.8-2.3-2.3v-8.6c0-.2.1-.3.3-.3h1.5c.2 0 .3.1.3.3v8.1c0 .4.2.6.6.6h.8c.4 0 .6-.2.6-.6v-8.1c0-.2.1-.3.3-.3h1.7zm4.1 9.1h3.2c.2 0 .3.1.3.3v1.6c0 .2-.1.3-.3.3h-5.1c-.2 0-.3-.1-.3-.3v-10.7c0-.2.1-.3.3-.3h1.7c.2 0 .3.1.3.3v8.8zm9.1-9.1c.2 0 .3.1.3.3v1.6c0 .2-.1.3-.3.3h-1.9v8.9c0 .2-.1.3-.3.3h-1.7c-.2 0-.3-.1-.3-.3v-8.9h-1.9c-.2 0-.3-.1-.3-.3v-1.6c0-.2.1-.3.3-.3h6.1zm162-214.3c0 .6-.4 1-1 1.1.6.1 1 .5 1 1.1v2.1c0 1.5-.8 2.3-2.3 2.3h-3.8c-.2 0-.3-.1-.3-.3v-10.7c0-.2.1-.3.3-.3h3.8c1.5 0 2.3.8 2.3 2.3v2.4zm-2.1-1.8c0-.4-.2-.6-.6-.6h-1.8v2.5h1.8c.4 0 .6-.2.6-.6v-1.3zm0 4.7c0-.4-.2-.6-.6-.6h-1.8v2.5h1.8c.4 0 .6-.2.6-.6V231zm5.8 1.8h3.2c.2 0 .3.1.3.3v1.6c0 .2-.1.3-.3.3h-5.1c-.2 0-.3-.1-.3-.3V224c0-.2.1-.3.3-.3h1.7c.2 0 .3.1.3.3v8.8zm10.8-9.1c.2 0 .3.1.3.3v8.6c0 1.5-.8 2.3-2.3 2.3H322c-1.5 0-2.3-.8-2.3-2.3V224c0-.2.1-.3.3-.3h1.5c.2 0 .3.1.3.3v8.1c0 .4.2.6.6.6h.8c.4 0 .6-.2.6-.6V224c0-.2.1-.3.3-.3h1.7zm8.4 1.8c0 .2-.1.3-.3.3h-4v2.5h3c.2 0 .3.1.3.3v1.6c0 .2-.1.3-.3.3h-3v2.4h4c.2 0 .3.1.3.3v1.6c0 .2-.1.3-.3.3H328c-.1 0-.2-.1-.2-.3v-10.7c0-.2.1-.3.2-.3h5.9c.2 0 .3.1.3.3v1.4zm1.6 2.9c0-.2.1-.3.3-.3h2.5c.2 0 .3.1.3.3v1.5c0 .2-.1.3-.3.3h-2.5c-.2 0-.3-.1-.3-.3v-1.5zm4.8-2.4c0-1.5.8-2.3 2.3-2.3h1.8c1.5 0 2.3.8 2.3 2.3v1.2c0 .2-.1.3-.3.3h-1.5c-.2 0-.3-.1-.3-.3v-.8c0-.4-.2-.6-.6-.6h-1c-.4 0-.6.2-.6.6v5.8c0 .4.2.6.6.6h1c.4 0 .6-.2.6-.6v-1.4h-.8c-.2 0-.3-.1-.3-.3v-1.6c0-.2.1-.3.3-.3h2.6c.2 0 .3.1.3.3v3.7c0 1.5-.8 2.3-2.3 2.3h-1.8c-1.5 0-2.3-.8-2.3-2.3V226zm14.4 3.2c0 .9-.3 1.6-.9 2l.8 3.4c0 .2 0 .3-.2.3h-1.6c-.2 0-.2-.1-.3-.2l-.8-3.2h-1.4v3.1c0 .2-.1.3-.3.3h-1.6c-.2 0-.3-.1-.3-.3v-10.7c0-.2.1-.3.3-.3h3.8c1.5 0 2.3.8 2.3 2.3v3.3zm-2.7.2c.4 0 .6-.2.6-.6v-2.4c0-.4-.2-.6-.6-.6h-1.6v3.7h1.6zm10.7-3.9c0 .2-.1.3-.3.3h-4v2.5h3c.2 0 .3.1.3.3v1.6c0 .2-.1.3-.3.3h-3v2.4h4c.2 0 .3.1.3.3v1.6c0 .2-.1.3-.3.3h-5.9c-.1 0-.2-.1-.2-.3v-10.7c0-.2.1-.3.2-.3h5.9c.2 0 .3.1.3.3v1.4zm8 0c0 .2-.1.3-.3.3h-4v2.5h3c.2 0 .3.1.3.3v1.6c0 .2-.1.3-.3.3h-3v2.4h4c.2 0 .3.1.3.3v1.6c0 .2-.1.3-.3.3h-5.9c-.1 0-.2-.1-.2-.3v-10.7c0-.2.1-.3.2-.3h5.9c.2 0 .3.1.3.3v1.4zm8.2-1.8c.2 0 .3.1.3.3v10.7c0 .2-.1.3-.3.3h-1.3c-.1 0-.2-.1-.3-.2l-3-6.1v6.1c0 .2-.1.3-.3.3h-1.5c-.2 0-.3-.1-.3-.3v-10.7c0-.2.1-.3.3-.3h1.3c.1 0 .2.1.3.2l3 6.1V224c0-.2.1-.3.3-.3h1.5zm-55 54.5c1.5 0 2.3.8 2.3 2.3v1.1c0 .2-.1.3-.3.3h-1.6c-.2 0-.3-.1-.3-.3v-.7c0-.4-.2-.6-.6-.6h-.9c-.4 0-.6.2-.6.6v1.4l3.9 1.3c.3.1.4.3.4.6v3c0 1.5-.8 2.3-2.3 2.3h-1.8c-1.5 0-2.3-.8-2.3-2.3v-1c0-.2.1-.3.3-.3h1.6c.2 0 .3.1.3.3v.7c0 .4.2.6.6.6h.9c.4 0 .6-.2.6-.6v-1.6l-3.8-1.3c-.3-.1-.4-.3-.4-.6v-2.8c0-1.5.8-2.3 2.3-2.3h1.7zm4.2 11.2c-.2 0-.3-.1-.3-.3v-10.7c0-.2.1-.3.3-.3h1.7c.2 0 .3.1.3.3v10.7c0 .2-.1.3-.3.3h-1.7zm12.3-11.2c.2 0 .3.1.3.3v10.6c0 .2-.1.3-.3.3h-1.5c-.2 0-.3-.1-.3-.3v-6.3h-.1l-1.5 6.3c0 .2-.2.3-.4.3h-.9c-.2 0-.3-.1-.4-.3l-1.5-6.3h-.1v6.3c0 .2-.1.3-.3.3h-1.5c-.2 0-.3-.1-.3-.3v-10.6c0-.2.1-.3.3-.3h2.1c.2 0 .3.1.4.3l1.8 7.2 1.8-7.2c0-.2.2-.3.4-.3h2zm2 .2c0-.2.1-.3.3-.3h3.8c1.5 0 2.3.8 2.3 2.3v3.1c0 1.5-.8 2.3-2.3 2.3h-2v3.2c0 .2-.1.3-.3.3h-1.6c-.2 0-.3-.1-.3-.3v-10.6zm3.7 5.5c.4 0 .6-.2.6-.6V281c0-.4-.2-.6-.6-.6h-1.6v3.6l1.6-.1zm6.5 3.4h3.2c.2 0 .3.1.3.3v1.6c0 .2-.1.3-.3.3H351c-.2 0-.3-.1-.3-.3v-10.7c0-.2.1-.3.3-.3h1.7c.2 0 .3.1.3.3v8.8zm11.2-7.3c0 .2-.1.3-.3.3h-4v2.5h3c.2 0 .3.1.3.3v1.6c0 .2-.1.3-.3.3h-3v2.4h4c.2 0 .3.1.3.3v1.6c0 .2-.1.3-.3.3H358c-.1 0-.2-.1-.2-.3v-10.7c0-.2.1-.3.2-.3h5.9c.2 0 .3.1.3.3v1.4zm-60.6 52.9c0-.2.1-.3.3-.3h3.8c1.5 0 2.3.8 2.3 2.3v6.6c0 1.5-.8 2.3-2.3 2.3h-3.8c-.2 0-.3-.1-.3-.3v-10.6zm3.6 8.9c.4 0 .6-.2.6-.6v-5.7c0-.4-.2-.7-.6-.7h-1.5v7h1.5zm10.8-7.3c0 .2-.1.3-.3.3h-4v2.5h3c.2 0 .3.1.3.3v1.6c0 .2-.1.3-.3.3h-3v2.4h4c.2 0 .3.1.3.3v1.6c0 .2-.1.3-.3.3h-5.9c-.1 0-.2-.1-.2-.3v-10.7c0-.2.1-.3.2-.3h5.9c.2 0 .3.1.3.3v1.4zm3.8 7.3h3.2c.2 0 .3.1.3.3v1.6c0 .2-.1.3-.3.3h-5.1c-.2 0-.3-.1-.3-.3V333c0-.2.1-.3.3-.3h1.7c.2 0 .3.1.3.3v8.8zm11.2-7.3c0 .2-.1.3-.3.3h-4v2.5h3c.2 0 .3.1.3.3v1.6c0 .2-.1.3-.3.3h-3v2.4h4c.2 0 .3.1.3.3v1.6c0 .2-.1.3-.3.3h-5.9c-.1 0-.2-.1-.2-.3v-10.7c0-.2.1-.3.2-.3h5.9c.2 0 .3.1.3.3v1.4zm7.1-1.8c.2 0 .3.1.3.3v1.6c0 .2-.1.3-.3.3h-1.9v8.9c0 .2-.1.3-.3.3h-1.7c-.2 0-.3-.1-.3-.3v-8.9h-1.9c-.2 0-.3-.1-.3-.3V333c0-.2.1-.3.3-.3h6.1zm8 1.8c0 .2-.1.3-.3.3h-4v2.5h3c.2 0 .3.1.3.3v1.6c0 .2-.1.3-.3.3h-3v2.4h4c.2 0 .3.1.3.3v1.6c0 .2-.1.3-.3.3h-5.9c-.1 0-.2-.1-.2-.3v-10.7c0-.2.1-.3.2-.3h5.9c.2 0 .3.1.3.3v1.4zm7.3 9.4c-.1 0-.2-.1-.3-.2l-.5-2h-3l-.5 2c0 .1-.1.2-.3.2h-1.6c-.2 0-.3-.1-.2-.3l2.7-10.7c0-.2.1-.2.3-.2h2.2c.1 0 .2.1.3.2l2.7 10.7c0 .2 0 .3-.2.3h-1.6zm-2.3-8.5l-1 4.4h2l-1-4.4zm5.4-2.5c0-.2.1-.3.3-.3h3.8c1.5 0 2.3.8 2.3 2.3v3.1c0 1.5-.8 2.3-2.3 2.3h-2v3.2c0 .2-.1.3-.3.3h-1.6c-.2 0-.3-.1-.3-.3v-10.6zm3.6 5.5c.4 0 .6-.2.6-.6v-2.3c0-.4-.2-.6-.6-.6h-1.6v3.6l1.6-.1zm4.4-5.5c0-.2.1-.3.3-.3h3.8c1.5 0 2.3.8 2.3 2.3v3.1c0 1.5-.8 2.3-2.3 2.3h-2v3.2c0 .2-.1.3-.3.3h-1.6c-.2 0-.3-.1-.3-.3v-10.6zm3.7 5.5c.4 0 .6-.2.6-.6v-2.3c0-.4-.2-.6-.6-.6h-1.6v3.6l1.6-.1zm8.4-5.7c1.5 0 2.3.8 2.3 2.3v1.1c0 .2-.1.3-.3.3h-1.6c-.2 0-.3-.1-.3-.3v-.7c0-.4-.2-.6-.6-.6h-.9c-.4 0-.6.2-.6.6v1.4l3.9 1.3c.3.1.4.3.4.6v3c0 1.5-.8 2.3-2.3 2.3h-1.8c-1.5 0-2.3-.8-2.3-2.3v-1c0-.2.1-.3.3-.3h1.6c.2 0 .3.1.3.3v.7c0 .4.2.6.6.6h.9c.4 0 .6-.2.6-.6v-1.6l-3.8-1.3c-.3-.1-.4-.3-.4-.6V335c0-1.5.8-2.3 2.3-2.3h1.7zm-41.1 63.9c0-.2.1-.3.3-.3h1.5c.2 0 .3.1.3.3v1.5c0 .2-.1.3-.3.3h-1.5c-.2 0-.3-.1-.3-.3v-1.5zm3.7 0c0-.2.1-.3.3-.3h1.5c.2 0 .3.1.3.3v1.5c0 .2-.1.3-.3.3h-1.5c-.2 0-.3-.1-.3-.3v-1.5zm3.7 0c0-.2.1-.3.3-.3h1.5c.2 0 .3.1.3.3v1.5c0 .2-.1.3-.3.3h-1.5c-.2 0-.3-.1-.3-.3v-1.5z"/><path class="st6" d="M443.3 550.2c0 2.7-2.2 5-5 5H36.7c-2.7 0-5-2.2-5-5v-45.3c0-2.7 2.2-5 5-5h401.7c2.7 0 5 2.2 5 5v45.3z"/><path class="st4" d="M206.3 525.9c0 .2-.1.3-.3.3h-1.5c-.2 0-.3-.1-.3-.3v-1.3c0-.4-.2-.6-.6-.6h-1c-.4 0-.6.2-.6.6v5.8c0 .4.2.6.6.6h1c.4 0 .6-.2.6-.6V529c0-.2.1-.3.3-.3h1.5c.2 0 .3.1.3.3v1.7c0 1.5-.8 2.3-2.3 2.3h-1.8c-1.5 0-2.3-.8-2.3-2.3v-6.6c0-1.5.8-2.3 2.3-2.3h1.8c1.5 0 2.3.8 2.3 2.3v1.8zm8-2.1c0 .2-.1.3-.3.3h-4v2.7h3c.2 0 .3.1.3.3v1.6c0 .2-.1.3-.3.3h-3v4c0 .2-.1.3-.3.3H208c-.2 0-.3-.1-.3-.3v-10.7c0-.2.1-.3.3-.3h5.9c.2 0 .3.1.3.3v1.5zm11.6 9.3c-.1 0-.2-.1-.3-.2l-.5-2h-3l-.5 2c0 .1-.1.2-.3.2h-1.6c-.2 0-.3-.1-.2-.3l2.7-10.7c0-.2.1-.2.3-.2h2.2c.1 0 .2.1.3.2l2.7 10.7c0 .2 0 .3-.2.3h-1.6zm-2.2-8.4l-1 4.4h2l-1-4.4zm5-2.5c0-.2.1-.3.3-.3h3.8c1.5 0 2.3.8 2.3 2.3v6.6c0 1.5-.8 2.3-2.3 2.3H229c-.2 0-.3-.1-.3-.3v-10.6zm3.7 8.8c.4 0 .6-.2.6-.6v-5.7c0-.4-.2-.7-.6-.7h-1.5v7h1.5zm10.2 2.1c-.1 0-.2-.1-.3-.2l-.5-2h-3l-.5 2c0 .1-.1.2-.3.2h-1.6c-.2 0-.3-.1-.2-.3l2.7-10.7c0-.2.1-.2.3-.2h2.2c.1 0 .2.1.3.2l2.7 10.7c0 .2 0 .3-.2.3h-1.6zm-2.3-8.4l-1 4.4h2l-1-4.4zm5.3-2.5c0-.2.1-.3.3-.3h3.8c1.5 0 2.3.8 2.3 2.3v3.1c0 1.5-.8 2.3-2.3 2.3h-2v3.2c0 .2-.1.3-.3.3h-1.6c-.2 0-.3-.1-.3-.3v-10.6zm3.7 5.4c.4 0 .6-.2.6-.6v-2.3c0-.4-.2-.6-.6-.6h-1.6v3.6l1.6-.1zm10-5.7c.2 0 .3.1.3.3v1.6c0 .2-.1.3-.3.3h-1.9v8.9c0 .2-.1.3-.3.3h-1.7c-.2 0-.3-.1-.3-.3v-9h-1.9c-.2 0-.3-.1-.3-.3v-1.6c0-.2.1-.3.3-.3h6.1zm8 1.9c0 .2-.1.3-.3.3h-4v2.5h3c.2 0 .3.1.3.3v1.6c0 .2-.1.3-.3.3h-3v2.4h4c.2 0 .3.1.3.3v1.6c0 .2-.1.3-.3.3h-5.9c-.1 0-.2-.1-.2-.3v-10.7c0-.2.1-.3.2-.3h5.9c.2 0 .3.1.3.3v1.4zm7.8 3.6c0 .9-.3 1.6-.9 2l.8 3.4c0 .2 0 .3-.2.3h-1.6c-.2 0-.2-.1-.3-.2l-.8-3.2h-1.4v3.1c0 .2-.1.3-.3.3H269c-.2 0-.3-.1-.3-.3v-10.7c0-.2.1-.3.3-.3h3.8c1.5 0 2.3.8 2.3 2.3v3.3zm-2.7.3c.4 0 .6-.2.6-.6v-2.4c0-.4-.2-.6-.6-.6h-1.6v3.7h1.6z"/><path class="st7" d="M420.9 35.8H475v549.8H0V35.8h52.5"/><path class="st8" d="M441.9 484.7c0 2.7-2.2 5-5 5H247.3c-2.7 0-5-2.2-5-5v-45.3c0-2.7 2.2-5 5-5h189.6c2.7 0 5 2.2 5 5v45.3z"/><path d="M298.7 455.6c.2 0 .3.1.3.3l-1.5 10.6c0 .2-.1.3-.4.3h-1.7c-.2 0-.3-.1-.4-.3l-1.5-6.6-1.5 6.6c0 .2-.2.3-.4.3H290c-.2 0-.3-.1-.4-.3l-1.5-10.6c0-.2.1-.3.3-.3h1.5c.2 0 .3.1.3.3l.8 6.7h.1l1.6-6.7c0-.2.2-.3.4-.3h1c.2 0 .3.1.4.3l1.6 6.7h.1l.8-6.7c0-.2.1-.3.3-.3h1.4zm1.7 2.3c0-1.5.8-2.3 2.3-2.3h1.8c1.5 0 2.3.8 2.3 2.3v6.6c0 1.5-.8 2.3-2.3 2.3h-1.8c-1.5 0-2.3-.8-2.3-2.3v-6.6zm3.8 6.9c.4 0 .6-.2.6-.6v-5.8c0-.4-.2-.6-.6-.6h-1c-.4 0-.6.2-.6.6v5.8c0 .4.2.6.6.6h1zm10.7-3.6c0 .9-.3 1.6-.9 2l.8 3.4c0 .2 0 .3-.2.3H313c-.2 0-.2-.1-.3-.2l-.8-3.2h-1.4v3.1c0 .2-.1.3-.3.3h-1.6c-.2 0-.3-.1-.3-.3v-10.7c0-.2.1-.3.3-.3h3.8c1.5 0 2.3.8 2.3 2.3v3.3zm-2.8.2c.4 0 .6-.2.6-.6v-2.4c0-.4-.2-.6-.6-.6h-1.6v3.7h1.6zm9.5 5.5c-.2 0-.3-.1-.4-.2l-2-4-.6 1.1v2.7c0 .2-.1.3-.3.3h-1.5c-.2 0-.3-.1-.3-.3V456c0-.2.1-.3.3-.3h1.5c.2 0 .3.1.3.3v4.2l2.5-4.2c.1-.1.2-.2.4-.2h1.7c.2 0 .4.2.2.4l-2.7 4.8 2.9 5.7c.1.2 0 .4-.2.4h-1.8zm9.9-9.4c0 .2-.1.3-.3.3h-4v2.7h3c.2 0 .3.1.3.3v1.6c0 .2-.1.3-.3.3h-3v4c0 .2-.1.3-.3.3h-1.7c-.2 0-.3-.1-.3-.3V456c0-.2.1-.3.3-.3h5.9c.2 0 .3.1.3.3v1.5zm3.8 7.2h3.2c.2 0 .3.1.3.3v1.6c0 .2-.1.3-.3.3h-5.1c-.2 0-.3-.1-.3-.3v-10.7c0-.2.1-.3.3-.3h1.7c.2 0 .3.1.3.3v8.8zm4.5-6.8c0-1.5.8-2.3 2.3-2.3h1.8c1.5 0 2.3.8 2.3 2.3v6.6c0 1.5-.8 2.3-2.3 2.3h-1.8c-1.5 0-2.3-.8-2.3-2.3v-6.6zm3.8 6.9c.4 0 .6-.2.6-.6v-5.8c0-.4-.2-.6-.6-.6h-1c-.4 0-.6.2-.6.6v5.8c0 .4.2.6.6.6h1zm14.2-9.2c.2 0 .3.1.3.3l-1.5 10.6c0 .2-.1.3-.4.3h-1.7c-.2 0-.3-.1-.4-.3l-1.5-6.6-1.5 6.6c0 .2-.2.3-.4.3H349c-.2 0-.3-.1-.4-.3l-1.5-10.6c0-.2.1-.3.3-.3h1.5c.2 0 .3.1.3.3l.8 6.7h.1l1.6-6.7c0-.2.2-.3.4-.3h1c.2 0 .3.1.4.3l1.6 6.7h.1l.8-6.7c0-.2.1-.3.3-.3h1.5zm1.7 4.8c0-.2.1-.3.3-.3h2.5c.2 0 .3.1.3.3v1.5c0 .2-.1.3-.3.3h-2.5c-.2 0-.3-.1-.3-.3v-1.5zm10.9-4.8c.2 0 .3.1.3.3v8.6c0 1.5-.8 2.3-2.3 2.3h-1.8c-1.5 0-2.3-.8-2.3-2.3V456c0-.2.1-.3.3-.3h1.5c.2 0 .3.1.3.3v8.1c0 .4.2.6.6.6h.8c.4 0 .6-.2.6-.6V456c0-.2.1-.3.3-.3h1.7zm7.7 0c.2 0 .3.1.3.3v1.6c0 .2-.1.3-.3.3h-1.9v8.9c0 .2-.1.3-.3.3h-1.7c-.2 0-.3-.1-.3-.3v-8.9H372c-.2 0-.3-.1-.3-.3v-1.6c0-.2.1-.3.3-.3h6.1zm1.7 11.3c-.2 0-.3-.1-.3-.3v-10.7c0-.2.1-.3.3-.3h1.7c.2 0 .3.1.3.3v10.7c0 .2-.1.3-.3.3h-1.7zm5.7-2.2h3.2c.2 0 .3.1.3.3v1.6c0 .2-.1.3-.3.3h-5.1c-.2 0-.3-.1-.3-.3v-10.7c0-.2.1-.3.3-.3h1.7c.2 0 .3.1.3.3v8.8zm8.3-9.1c1.5 0 2.3.8 2.3 2.3v1.1c0 .2-.1.3-.3.3h-1.6c-.2 0-.3-.1-.3-.3v-.7c0-.4-.2-.6-.6-.6h-.9c-.4 0-.6.2-.6.6v1.4l3.9 1.3c.3.1.4.3.4.6v3c0 1.5-.8 2.3-2.3 2.3H392c-1.5 0-2.3-.8-2.3-2.3v-1c0-.2.1-.3.3-.3h1.6c.2 0 .3.1.3.3v.7c0 .4.2.6.6.6h.9c.4 0 .6-.2.6-.6v-1.6l-3.8-1.3c-.3-.1-.4-.3-.4-.6V458c0-1.5.8-2.3 2.3-2.3h1.7z"/></svg>