<svg id="Layer_1" xmlns="http://www.w3.org/2000/svg" viewBox="96.5 187 207 26"><style>.st0{fill:#6d6e70}.st1{fill:#a6a8ab}</style><path class="st0" d="M115.7 212.2h-5.8v-1.9c-1 .8-1.9 1.4-2.8 1.8-.9.4-1.9.6-3 .6-2.2 0-3.9-.8-5.3-2.5-1.3-1.7-2-4-2-6.8 0-1.5.2-2.9.7-4.1.4-1.2 1-2.2 1.8-3 .7-.8 1.6-1.4 2.6-1.9 1-.4 2.1-.7 3.1-.7 1.1 0 2 .1 2.6.3.7.2 1.4.5 2.1.9v-7.7h5.8v25zm-5.8-5v-8.8c-.4-.2-.8-.3-1.3-.4-.4-.1-.9-.1-1.2-.1-1.5 0-2.6.5-3.4 1.4-.8.9-1.1 2.3-1.1 3.9 0 1.8.3 3 .9 3.8.6.8 1.6 1.2 2.9 1.2.5 0 1.1-.1 1.7-.3.5-.1 1-.3 1.5-.7zm28-4c0 3-.9 5.3-2.6 7s-4.1 2.6-7.3 2.6c-3.1 0-5.5-.9-7.3-2.6-1.7-1.7-2.6-4-2.6-7s.9-5.3 2.6-7c1.7-1.7 4.2-2.5 7.3-2.5 3.1 0 5.6.9 7.3 2.6 1.7 1.6 2.6 3.9 2.6 6.9zm-7.1 4.4c.4-.5.7-1 .8-1.7s.3-1.5.3-2.7c0-1.1-.1-1.9-.3-2.7-.2-.7-.5-1.3-.8-1.7-.3-.4-.8-.7-1.2-.9s-1-.3-1.6-.3c-.6 0-1 .1-1.5.2-.4.1-.8.4-1.2.9-.4.4-.6 1-.8 1.7-.2.7-.3 1.6-.3 2.7 0 1 .1 1.8.3 2.6.2.7.4 1.3.8 1.7.3.4.8.7 1.2.9.5.2 1 .3 1.6.3.5 0 1-.1 1.5-.3.4 0 .8-.3 1.2-.7zm22.6-7.9h-.5c-.2-.1-.6-.1-1.2-.2-.5 0-1-.1-1.4-.1-.8 0-1.5.1-2.2.2-.6.1-1.3.3-2 .5v12.1h-5.8v-18h5.8v2.6c1.3-1.1 2.4-1.8 3.3-2.2.9-.4 1.8-.5 2.6-.5h1.4v5.6zm19.2-.3v12.8h-5.8v-9c0-.9 0-1.6-.1-2.2 0-.6-.2-1.1-.4-1.5-.2-.4-.5-.7-.9-.8-.4-.2-.9-.3-1.6-.3-.6 0-1.1.1-1.7.3-.5.2-1 .5-1.4.7v12.8H155v-18h5.8v2c1-.8 1.9-1.4 2.8-1.8.9-.4 1.9-.7 3-.7 1.2 0 2.2.3 3.1.8.9.5 1.6 1.3 2.1 2.3 1.2-1 2.3-1.7 3.4-2.3 1.1-.6 2.2-.8 3.2-.8 1.9 0 3.4.6 4.4 1.7 1 1.2 1.5 2.8 1.5 5v11.7h-5.8v-9c0-.9 0-1.6-.1-2.2 0-.6-.2-1.1-.3-1.5-.2-.4-.5-.7-.9-.8-.4-.2-1-.3-1.7-.3-.5 0-1 .1-1.4.2-.3.3-.8.5-1.5.9zm26.4 10.9c-.3.2-.7.5-1.2.8-.5.3-.9.6-1.3.8-.6.3-1.2.4-1.8.6-.6.1-1.3.2-2 .2-1.7 0-3.1-.5-4.3-1.6-1.2-1.1-1.7-2.4-1.7-4.1 0-1.3.3-2.4.9-3.2.6-.8 1.4-1.5 2.5-2s2.4-.8 4-1c1.6-.2 3.2-.4 4.9-.4v-.1c0-1-.4-1.7-1.2-2.1-.8-.4-2-.6-3.6-.6-1 0-2 .2-3 .5-1.1.3-1.9.6-2.3.8h-.5v-4.3c.6-.2 1.6-.3 3-.6 1.4-.2 2.7-.3 4.1-.3 3.3 0 5.6.5 7.1 1.5s2.2 2.6 2.2 4.8v12.2H199v-1.9zm0-2.8v-3.7c-.8.1-1.6.2-2.5.3-.9.1-1.6.2-2.1.4-.6.2-1 .4-1.3.8-.3.3-.5.8-.5 1.4 0 .4 0 .7.1.9.1.2.2.5.5.7.2.2.5.4.9.5.3.1.9.1 1.6.1.6 0 1.2-.1 1.8-.4.5-.3 1.1-.6 1.5-1z"/><path class="st1" d="M221.6 206.5h-5.7v5.6H213v-5.6h-5.7v-2.9h5.7V198h2.9v5.6h5.7v2.9z"/><path class="st0" d="M242.8 212.2h-6.7l-5-7.8-1.6 1.9v5.9h-5.8v-24.9h5.8v14.9l6.2-7.9h6.7l-6.5 7.8 6.9 10.1zm13-1.9c-.3.2-.7.5-1.2.8-.5.3-.9.6-1.3.8-.6.3-1.2.4-1.8.6-.6.1-1.3.2-2 .2-1.7 0-3.1-.5-4.3-1.6-1.2-1.1-1.7-2.4-1.7-4.1 0-1.3.3-2.4.9-3.2.6-.8 1.4-1.5 2.5-2s2.4-.8 4-1c1.6-.2 3.2-.4 4.9-.4v-.1c0-1-.4-1.7-1.2-2.1-.8-.4-2-.6-3.6-.6-1 0-2 .2-3 .5-1.1.3-1.9.6-2.3.8h-.5v-4.3c.6-.2 1.6-.3 3-.6 1.4-.2 2.7-.3 4.1-.3 3.3 0 5.6.5 7.1 1.5s2.2 2.6 2.2 4.8v12.2h-5.7v-1.9zm0-2.8v-3.7c-.8.1-1.6.2-2.5.3-.9.1-1.6.2-2.1.4-.6.2-1 .4-1.3.8-.3.3-.5.8-.5 1.4 0 .4 0 .7.1.9.1.2.2.5.5.7.2.2.5.4.9.5.3.1.9.1 1.6.1.6 0 1.2-.1 1.8-.4.5-.3 1.1-.6 1.5-1zm28.2-4.6c0 2.8-.8 5.1-2.3 6.9s-3.5 2.7-5.9 2.7c-1 0-1.9-.1-2.6-.3-.8-.2-1.5-.5-2.2-.9l-.2.9h-5.5v-24.9h5.8v8.8c.9-.7 1.8-1.3 2.7-1.7.9-.4 2-.7 3.2-.7 2.3 0 4 .8 5.3 2.5 1.1 1.6 1.7 3.9 1.7 6.7zm-6 .2c0-1.6-.3-2.8-.8-3.7-.5-.9-1.5-1.3-2.9-1.3-.5 0-1.1.1-1.7.2-.6.2-1.1.4-1.6.7v9c.4.1.8.3 1.2.3.4.1.8.1 1.3.1 1.5 0 2.7-.4 3.4-1.3.8-.9 1.1-2.2 1.1-4zm19.4 7.2c-.3.2-.7.5-1.2.8-.5.3-.9.6-1.3.8-.6.3-1.2.4-1.8.6-.6.1-1.3.2-2 .2-1.7 0-3.1-.5-4.3-1.6-1.2-1.1-1.7-2.4-1.7-4.1 0-1.3.3-2.4.9-3.2.6-.8 1.4-1.5 2.5-2s2.4-.8 4-1c1.6-.2 3.2-.4 4.9-.4v-.1c0-1-.4-1.7-1.2-2.1s-2-.6-3.6-.6c-1 0-2 .2-3 .5-1.1.3-1.9.6-2.3.8h-.5v-4.3c.6-.2 1.6-.3 3-.6 1.4-.2 2.7-.3 4.1-.3 3.3 0 5.6.5 7.1 1.5s2.2 2.6 2.2 4.8v12.2h-5.7v-1.9zm0-2.8v-3.7c-.8.1-1.6.2-2.5.3-.9.1-1.6.2-2.1.4-.6.2-1 .4-1.3.8-.3.3-.5.8-.5 1.4 0 .4 0 .7.1.9.1.2.2.5.5.7.2.2.5.4.9.5.3.1.9.1 1.6.1.6 0 1.2-.1 1.8-.4.5-.3 1.1-.6 1.5-1z"/></svg>