<svg id="Layer_1" xmlns="http://www.w3.org/2000/svg" viewBox="0 0 142 85"><style>.st0{fill:#0064a6}.st1{fill:url(#SVGID_1_)}.st2{fill:url(#SVGID_2_)}.st3{fill:url(#SVGID_3_)}.st4{fill:url(#SVGID_4_)}.st5{fill:url(#SVGID_5_)}.st6{fill:url(#SVGID_6_)}.st7{fill:url(#SVGID_7_)}.st8{fill:url(#SVGID_8_)}.st9{fill:url(#SVGID_9_)}.st10{fill:url(#SVGID_10_)}.st11{fill:url(#SVGID_11_)}.st12{fill:#f9a827}.st13{fill:#fff}.st14{fill:#7a7c7d}.st15{font-family:&apos;MyriadPro-Regular&apos;}.st16{font-size:9.3945px}</style><path class="st0" d="M26 12.5v-.9S22.7 9 17.9 8c0 0 5.2-8 13.9-8 0 0 8.1.1 12.2 7.5 0 0 4.4 5.8.2 16.7h1.1s3.2-6.8.7-14c0 0 6.3 1.8 8.2 8.3 0 0 2.2 5-1.5 11.3 0 0-1.3 2.7-5 3.6H7.9s-2.6-.4-4.4-2.3c0 0-3.3-3.9-3.4-7.7 0 0-1.2-6.5 4.7-11.6 0 0 4.6-4 10.4-3.3-.1.2 5.6 0 10.8 4z"/><linearGradient id="SVGID_1_" gradientUnits="userSpaceOnUse" x1="9.81" y1="52.698" x2="86.779" y2="99.4"><stop offset="0" stop-color="#0064a6"/><stop offset=".497" stop-color="#565656"/><stop offset="1" stop-color="#f9a827"/></linearGradient><path class="st1" d="M4.9 38.5v19.8H.4V38.5h4.5z"/><linearGradient id="SVGID_2_" gradientUnits="userSpaceOnUse" x1="14.157" y1="45.532" x2="91.127" y2="92.235"><stop offset="0" stop-color="#0064a6"/><stop offset=".497" stop-color="#565656"/><stop offset="1" stop-color="#f9a827"/></linearGradient><path class="st2" d="M23.7 57.7c-.8.4-2.7.9-5.1.9-6.8 0-10.4-4.3-10.4-9.9 0-6.8 4.8-10.5 10.8-10.5 2.3 0 4.1.5 4.9.9l-.9 3.6c-.9-.4-2.2-.7-3.8-.7-3.6 0-6.3 2.1-6.3 6.5 0 4 2.3 6.5 6.3 6.5 1.4 0 2.8-.3 3.7-.6l.8 3.3z"/><linearGradient id="SVGID_3_" gradientUnits="userSpaceOnUse" x1="18.734" y1="37.99" x2="95.704" y2="84.693"><stop offset="0" stop-color="#0064a6"/><stop offset=".497" stop-color="#565656"/><stop offset="1" stop-color="#f9a827"/></linearGradient><path class="st3" d="M40.7 57.7c-.8.4-2.7.9-5.1.9-6.8 0-10.4-4.3-10.4-9.9 0-6.8 4.8-10.5 10.8-10.5 2.3 0 4.1.5 4.9.9l-.9 3.6c-.9-.4-2.2-.7-3.8-.7-3.6 0-6.3 2.1-6.3 6.5 0 4 2.3 6.5 6.3 6.5 1.4 0 2.8-.3 3.7-.6l.8 3.3z"/><linearGradient id="SVGID_4_" gradientUnits="userSpaceOnUse" x1="21.562" y1="33.328" x2="98.532" y2="80.031"><stop offset="0" stop-color="#0064a6"/><stop offset=".497" stop-color="#565656"/><stop offset="1" stop-color="#f9a827"/></linearGradient><path class="st4" d="M44.1 38.5h4.5v16h7.9v3.8H44.1V38.5z"/><linearGradient id="SVGID_5_" gradientUnits="userSpaceOnUse" x1="26.372" y1="25.402" x2="103.342" y2="72.105"><stop offset="0" stop-color="#0064a6"/><stop offset=".497" stop-color="#565656"/><stop offset="1" stop-color="#f9a827"/></linearGradient><path class="st5" d="M64.3 53.2l-1.4 5.1h-4.6l6.1-19.8h5.9l6.1 19.8h-4.8L70 53.2h-5.7zm5-3.4l-1.2-4.2c-.4-1.2-.7-2.6-1-3.8H67c-.3 1.2-.6 2.7-.9 3.8l-1.2 4.2h4.4z"/><linearGradient id="SVGID_6_" gradientUnits="userSpaceOnUse" x1="31.822" y1="16.42" x2="108.792" y2="63.123"><stop offset="0" stop-color="#0064a6"/><stop offset=".497" stop-color="#565656"/><stop offset="1" stop-color="#f9a827"/></linearGradient><path class="st6" d="M79.4 38.7c1.2-.2 3.6-.4 5.8-.4 2.7 0 4.4.3 5.8 1.1 1.4.7 2.4 2.1 2.4 3.9 0 1.8-1 3.4-3.3 4.2v.1c2.3.6 3.9 2.3 3.9 4.9 0 1.8-.8 3.2-2.1 4.2-1.4 1.1-3.8 1.8-7.8 1.8-2.2 0-3.8-.1-4.8-.3V38.7zm4.4 7.6h1.5c2.3 0 3.6-1 3.6-2.4 0-1.5-1.1-2.3-3.2-2.3-1 0-1.5.1-1.9.1v4.6zm0 8.8c.4.1 1 .1 1.7.1 2 0 3.8-.8 3.8-2.8 0-2-1.8-2.8-4-2.8h-1.5v5.5z"/><linearGradient id="SVGID_7_" gradientUnits="userSpaceOnUse" x1="5.912" y1="59.121" x2="82.882" y2="105.824"><stop offset="0" stop-color="#0064a6"/><stop offset=".497" stop-color="#565656"/><stop offset="1" stop-color="#f9a827"/></linearGradient><path class="st7" d="M25.9 80c1.2.6 3.1 1.2 5 1.2 2.1 0 3.1-.9 3.1-2.1 0-1.2-.9-1.9-3.3-2.8-3.3-1.1-5.4-3-5.4-5.8 0-3.4 2.8-6 7.5-6 2.2 0 3.9.5 5.1 1l-1 3.6c-.8-.4-2.2-.9-4.1-.9s-2.9.9-2.9 1.9c0 1.3 1.1 1.8 3.7 2.8 3.5 1.3 5.1 3.1 5.1 5.9 0 3.3-2.6 6.1-8 6.1-2.3 0-4.5-.6-5.6-1.2l.8-3.7z"/><linearGradient id="SVGID_8_" gradientUnits="userSpaceOnUse" x1="10.042" y1="52.315" x2="87.012" y2="99.017"><stop offset="0" stop-color="#0064a6"/><stop offset=".497" stop-color="#565656"/><stop offset="1" stop-color="#f9a827"/></linearGradient><path class="st8" d="M42.1 65.1c1.4-.2 3.3-.4 6.1-.4s4.7.5 6.1 1.6c1.3 1 2.1 2.6 2.1 4.6 0 1.9-.6 3.6-1.8 4.7-1.5 1.4-3.8 2.1-6.4 2.1-.6 0-1.1 0-1.5-.1v7.1h-4.4V65.1zm4.4 9c.4.1.9.1 1.5.1 2.4 0 3.8-1.2 3.8-3.2 0-1.8-1.3-2.9-3.5-2.9-.9 0-1.5.1-1.9.2v5.8z"/><linearGradient id="SVGID_9_" gradientUnits="userSpaceOnUse" x1="14.029" y1="45.744" x2="90.999" y2="92.447"><stop offset="0" stop-color="#0064a6"/><stop offset=".497" stop-color="#565656"/><stop offset="1" stop-color="#f9a827"/></linearGradient><path class="st9" d="M59.5 64.8H64v16h7.9v3.8H59.5V64.8z"/><linearGradient id="SVGID_10_" gradientUnits="userSpaceOnUse" x1="18.838" y1="37.818" x2="95.808" y2="84.521"><stop offset="0" stop-color="#0064a6"/><stop offset=".497" stop-color="#565656"/><stop offset="1" stop-color="#f9a827"/></linearGradient><path class="st10" d="M79.7 79.5l-1.4 5.1h-4.6l6.1-19.8h5.9l6.1 19.8H87l-1.5-5.1h-5.8zm5.1-3.3L83.5 72c-.4-1.2-.7-2.6-1-3.8h-.1c-.3 1.2-.6 2.7-.9 3.8l-1.2 4.2h4.5z"/><linearGradient id="SVGID_11_" gradientUnits="userSpaceOnUse" x1="24.288" y1="28.836" x2="101.258" y2="75.539"><stop offset="0" stop-color="#0064a6"/><stop offset=".497" stop-color="#565656"/><stop offset="1" stop-color="#f9a827"/></linearGradient><path class="st11" d="M94.8 65.1c1.2-.2 3.6-.4 5.8-.4 2.7 0 4.4.3 5.8 1.1 1.4.7 2.4 2.1 2.4 3.9 0 1.8-1 3.4-3.3 4.2v.1c2.3.6 3.9 2.3 3.9 4.9 0 1.8-.8 3.2-2.1 4.2-1.4 1.1-3.8 1.8-7.8 1.8-2.2 0-3.8-.1-4.8-.3V65.1zm4.5 7.6h1.5c2.3 0 3.6-1 3.6-2.4 0-1.5-1.1-2.3-3.2-2.3-1 0-1.5.1-1.9.1v4.6zm0 8.7c.4.1 1 .1 1.7.1 2 0 3.8-.8 3.8-2.8 0-2-1.8-2.8-4-2.8h-1.5v5.5z"/><path class="st12" d="M99.3 75.8h1.8l-1.6 1.4-.2.2c-.1.2-.5-1.3-.5-1.3l.5-.3zm28-44.2h1.7l.5 2s1.7.3 2 .6l1.5-1.5 1.5.9-.5 2s1.1 1 1.4 1.4l2.2-.6.9 1.5-1.6 1.6s.4 1.3.4 1.9l2.3.6v1.7l-2.3.6s-.3 1.3-.5 1.7l1.7 1.7-.8 1.5-2.4-.7s-.9 1-1.2 1.2l.7 2.4-1.5.9-1.8-1.9s-1 .4-1.6.4l-.7 2.5-1.7.1-.6-2.5s-1.2-.2-1.6-.5l-1.8 1.8-1.5-.8.7-2.5s-1.1-.9-1.2-1.2l-2.4.7-.8-1.4L120 46s-.5-1.2-.5-1.7l-2.3-.6V42l2.2-.6s.2-1.5.5-1.9L118 38l.9-1.5 2.1.6s.8-1.1 1.4-1.5l-.6-2 1.5-.9 1.5 1.5s1.3-.5 2.1-.6l.4-2z"/><path class="st13" d="M128.2 35.6s6.8.1 7 7.2c0 0-.1 6.4-7 6.8 0 0-6.1.4-7-6.8 0 .1-.2-6.7 7-7.2z"/><path class="st12" d="M128.1 36.2s6.2 0 6.5 6.5c0 0 .4 6-6.5 6.5 0 0-6.2-.2-6.4-6.5 0 0-.1-6.1 6.4-6.5z"/><path class="st13" d="M128.2 38s4.3 0 4.7 4.7c0 0 .1 4.3-4.7 4.7 0 0-4.2.1-4.7-4.5-.1 0-.3-4.6 4.7-4.9z"/><path class="st14" d="M128.2 40.8s1.7-.1 1.8 1.8c0 0 .2 1.7-1.8 1.8 0 0-1.4.1-1.9-1.6 0 .1 0-1.8 1.9-2z"/><path class="st12" d="M109 41.4h1.4l.5 1.7s1.4.3 1.7.5l1.3-1.3 1.3.7-.5 1.7 1.2 1.2 1.8-.5.7 1.3-1.4 1.4s.4 1.1.4 1.6l2 .5v1.4l-2 .5s-.3 1.1-.4 1.5l1.4 1.4-.7 1.3-2-.6s-.8.9-1 1l.6 2.1-1.2.7-1.5-1.6s-.9.3-1.3.3l-.6 2.1h-1.4l-.5-2.1s-1-.1-1.4-.4l-1.5 1.6-1.3-.7.6-2.1s-.9-.8-1-1l-2 .6-.7-1.2 1.5-1.5s-.4-1.1-.4-1.5l-2-.5v-1.4l1.9-.5s.2-1.2.4-1.6l-1.4-1.3.7-1.3 1.8.5s.7-1 1.2-1.2l-.5-1.7 1.3-.8 1.3 1.3s1.1-.4 1.7-.5v-1.6z"/><path class="st13" d="M109.7 44.9s5.8.1 5.9 6.1c0 0-.1 5.4-5.9 5.8 0 0-5.2.3-5.9-5.8 0 0-.2-5.8 5.9-6.1z"/><path class="st12" d="M109.7 45.3s5.2 0 5.5 5.5c0 0 .3 5.1-5.5 5.5 0 0-5.3-.1-5.4-5.5-.1 0-.2-5.1 5.4-5.5z"/><path class="st13" d="M109.7 46.8s3.7 0 4 4c0 0 .1 3.7-4 4 0 0-3.6.1-4-3.8 0 0-.2-3.9 4-4.2z"/><path class="st14" d="M109.7 49.3s1.4 0 1.6 1.5c0 0 .2 1.4-1.6 1.6 0 0-1.2.1-1.6-1.4 0 0 0-1.6 1.6-1.7z"/><path class="st12" d="M120 55l.7 1.4s.8-.1 1.6 0l.8-1.3 1.2.4V57s1 .5 1.3.8l1.3-.7.9.9-.9 1.4s.5.5.7 1.3h1.5l.3 1.2-1.4.8s.1 1-.1 1.4l1.5.9-.4 1h-1.7s-.3.7-.8 1.1l.8 1.5-.9.9-1.5-1s-.6.4-1.1.6v1.8l-1.2.3-.9-1.6s-.9.1-1.2 0l-1 1.5-1.1-.3v-.4l2.6-2.3s4 .2 5.2-3.9c0 0 .7-2.6-1.3-4.6 0 0-1.7-2.1-4.8-1.5 0 0-3.2.6-3.8 4l-1.6 1.3v-1.1l-1.4-.9.3-1.2h1.7s.5-1 .7-1.2l-.8-1.4.9-.8 1.4.8s.8-.7 1.3-.7v-1.5l1.2-.4z"/><path class="st12" d="M115.5 65.9l1.2-1s.4 1.3 1.8 2.2l-2.6 2.1-.9-.9 1-1.5s-.3-.4-.5-.9z"/><path class="st14" d="M119.5 60.4s1.9-1.5 3.9.2c0 0 1.8 1.5.6 3.9 0 0-.6.8-1.4 1.4l-19.2 16.2s-2.1 1.7-4.2-.4c0 0-2-2.3.3-4.5l20-16.8z"/><path class="st13" d="M120.1 61.3s1.2-1 2.6.1c1.4 1 .5 2.5.5 2.5s-.1.3-.3.4L103.1 81s-1.5 1.5-3.1 0c0 0-1.5-1.6.5-3.3l19.6-16.4z"/><path class="st14" d="M121.4 61.7s1.3 0 1.3 1.5c0 0-.1 1.1-1.3 1.2 0 0-1.2.1-1.3-1.2-.1-1.3 1-1.6 1.3-1.5z"/><path class="st12" d="M108.6 71s-.2 2-3.1 3.1c0 0 2.2.5 3.2 2.3l-5.8 4.9s-1.5 1.3-2.9-.2c0 0-1.4-1.6.3-3.1l8.3-7z"/><path class="st13" d="M101.6 78.2s1.5 0 1.4 1.5c0 0 .1 1.3-1.4 1.4 0 0-1.3.1-1.4-1.4 0-.1-.1-1.5 1.4-1.5z"/><text id="Service_Engineering__Research_Area" transform="matrix(.9999 0 0 1 62.116 21.67)"><tspan x="0" y="0" class="st14 st15 st16">Service Engineering </tspan><tspan x="0" y="11.3" class="st14 st15 st16">Research Area</tspan></text></svg>