<svg id="Layer_1" xmlns="http://www.w3.org/2000/svg" viewBox="175 175 50 50"><style>.st0{fill:#12b0ff}</style><path class="st0" d="M194.5 215.9c-.2 0-.5-.1-.7-.3l-7.9-7.9c-.2-.2-.3-.4-.3-.7 0-.3.1-.5.3-.7l7.9-7.9c.4-.4 1-.4 1.4 0s.4 1 0 1.4L188 207l7.2 7.2c.4.4.4 1 0 1.4-.3.2-.5.3-.7.3zm11.1 0c-.2 0-.5-.1-.7-.3-.4-.4-.4-1 0-1.4l7.2-7.2-7.2-7.2c-.4-.4-.4-1 0-1.4.4-.4 1-.4 1.4 0l7.9 7.9c.4.4.4 1 0 1.4l-7.9 7.9c-.2.2-.5.3-.7.3z"/><path class="st0" d="M223.5 224.5h-47.1c-.5 0-1-.4-1-1v-47.1c0-.5.4-1 1-1h47.1c.5 0 1 .4 1 1v47.1c0 .6-.4 1-1 1zm-46.1-1.9h45.2v-45.2h-45.2v45.2z"/><path class="st0" d="M222.7 191h-45.2c-.5 0-1-.5-1-1s.4-1 1-1h45.2c.5 0 1 .5 1 1s-.5 1-1 1zm-37.7-6.3c-.3 0-.5-.1-.7-.3-.2-.2-.3-.4-.3-.7 0-.2.1-.5.3-.7.4-.4 1-.4 1.4 0 .2.2.3.4.3.7 0 .3-.1.5-.3.7-.2.2-.5.3-.7.3zm11.1.1c-.3 0-.5-.1-.7-.3-.2-.2-.3-.4-.3-.7 0-.3.1-.5.3-.7.4-.4 1-.4 1.4 0 .2.2.3.4.3.7 0 .3-.1.5-.3.7-.2.2-.5.3-.7.3z"/></svg>