<svg id="Layer_1" xmlns="http://www.w3.org/2000/svg" viewBox="175 175 50 50"><style>.st0{fill:#12b0ff}</style><path class="st0" d="M219 197.4c-2.7 0-5.1 2-5.5 4.6h-4v-7.3c2.7-.2 4.9-2.2 4.9-5 0-2.9-2.4-5-5.2-5h-7.7v-7h6.2c.5 0 1-.5 1-1s-.4-1-1-1h-15.4c-.5 0-1 .5-1 1s.4 1 1 1h7.2v7h-6.6c-2.9 0-5.2 2.1-5.2 5s2.3 5 5.2 5v7.2h-5.5c-.5-2.7-3.4-4.5-5.9-4.5-2.7 0-6 2.2-6 5.2V219c0 3.1 3.3 5.2 6 5.2s6-2.2 6-5.2v-.2h26v.2c0 2.9 2.6 5.2 5.5 5.2s5.5-2.4 5.5-5.2v-16.3c0-2.9-2.6-5.3-5.5-5.3zm-29.4-7.6c0-1.9 1.5-3 3.3-3h16.3c1.8 0 3.3 1.1 3.3 3s-1.5 3-3.3 3h-16.3c-1.8 0-3.3-1.2-3.3-3zm-4.1 29.2c0 1.9-2.2 3.3-4 3.3s-4-1.4-4-3.3v-16.3c0-1.9 2.2-3.3 4-3.3s4 1.4 4 3.3V219zm2-2.2v-12.9h6.4c.5 0 1-.4 1-1v-8.1h12.8v8.3c0 .5.4 1 1 1h4.9v12.8h-26.1zm35 2.2c0 1.8-1.6 3.3-3.5 3.3s-3.5-1.5-3.5-3.3l.1-16.9c.3-1.5 1.8-2.7 3.4-2.7 1.9 0 3.5 1.5 3.5 3.3V219z"/></svg>