<svg id="Layer_1" xmlns="http://www.w3.org/2000/svg" viewBox="175 175 50 50"><style>.st0{fill:#12b0ff}</style><path class="st0" d="M202.5 224.9c-5.2 0-9.5-4.2-9.5-9.2v-9.5c0-4-3.7-7.4-7.8-7.4-4.2 0-7.8 3.3-7.8 7.3 0 .5-.4 1-1 1s-1-.4-1-1c0-5 4.5-9.2 9.7-9.2 5.2 0 9.7 4.2 9.7 9.3v9.5c0 4 3.4 7.3 7.5 7.3 2.5 0 5.4-1.3 7-3.2.7-.8 1-1.7.9-2.4v-.2l.3-10.8c0-.5.5-.9 1-.9s.9.5.9 1l-.3 10.7c.2 1.2-.3 2.6-1.4 3.8-1.7 2.3-5.1 3.9-8.2 3.9z"/><path class="st0" d="M211.6 207.4c-.2 0-.4-.1-.6-.2l-7.9-7.1c-.2-.2-.1-.4-.1-.7v-9.9c0-.5.5-1 1-1s1 .4 1 1v9.4l7 6.3 7-6.3v-9.4c0-.5.5-1 1-1s1 .4 1 1v9.9c0 .3-.2.5-.4.7l-8.2 7.1c-.2.2-.5.2-.8.2z"/><path class="st0" d="M223.5 190h-23.4c-.5 0-1-.4-1-1v-5.7c0-.5.4-1 1-1h23.4c.5 0 1 .4 1 1v5.7c0 .5-.4 1-1 1zm-22.4-2h21.5v-3.8h-21.5v3.8z"/><path class="st0" d="M206 183.7c-.5 0-1-.4-1-1V176c0-.5.5-1 1-1s1 .4 1 1v6.7c0 .6-.5 1-1 1zm11 0c-.5 0-1-.4-1-1V176c0-.5.5-1 1-1s1 .4 1 1v6.7c0 .6-.5 1-1 1z"/></svg>