<svg id="Layer_1" xmlns="http://www.w3.org/2000/svg" viewBox="0 0 1000 587"><style>.st0{fill:#d2d3d9}.st1{fill:none;stroke:#0b2538;stroke-width:2;stroke-linecap:round;stroke-linejoin:round;stroke-miterlimit:10}.st2{fill:#12b0ff}.st3{fill:#2f2707}.st4{fill:#de4c36}.st5{fill:#121110}.st6{fill:#161614}.st7{fill:#3a3a3a}.st8{fill:url(#SVGID_1_)}.st9{fill:#cb3837}.st10{fill:#fff}.st11{fill:#02303a}.st12{fill:#22da27}</style><path class="st0" d="M644.1 60c0 3.9-2.9 6.9-6.7 7.5v.2c3.8.6 6.7 3.6 6.7 7.5v19.5c0 10-5.4 15.3-15.4 15.3h-12.3c-9.7 0-14.9-5.2-14.9-14.9v-3.5c0-1.4.7-2.1 2.1-2.1h10.2c1.4 0 2.1.7 2.1 2.1V96h11.9c1.4 0 2.1-.7 2.1-2.1v-15c0-2.8-1.4-4.2-4.2-4.2h-12.5c-1.4 0-2.1-.7-2.1-2.1v-9.8c0-1.4.7-2.1 2.1-2.1h12.5c2.8 0 4.2-1.5 4.2-4.1V41.3c0-1.4-.7-2.1-2.1-2.1H616v4.4c0 1.4-.7 2.1-2.1 2.1h-10.2c-1.4 0-2.1-.7-2.1-2.1v-4.4c0-9.1 5.2-14 14.9-14h12.3c10 0 15.4 5.3 15.4 15.3V60zm-67.6-34.5H567v14.1s.5-.1.7-.1h6.2c2.8 0 3.2 1.6 3.2 4.3v49.1c0 2.9-.4 3.6-3.2 3.6h-6.2c-.2 0-.7.6-.7.6v13.4h9.5c10 0 14.5-5 14.5-14.9V41.2c0-10-4.5-15.7-14.5-15.7z"/><path class="st1" d="M542.6 7.2h24.3v156.7h-44.3"/><path d="M367.3 3.3c0-.2.1-.3.3-.3h4.8c1.9 0 2.9 1 2.9 2.9v8.2c0 1.9-1 2.9-2.9 2.9h-4.8c-.2 0-.3-.1-.3-.3V3.3zm4.6 11c.5 0 .8-.3.8-.8V6.4c0-.5-.3-.8-.8-.8h-1.8v8.7h1.8zm12.8 2.7c-.2 0-.3-.1-.3-.3l-.6-2.5H380l-.6 2.5c0 .2-.1.3-.3.3h-2c-.2 0-.3-.1-.3-.3l3.3-13.4c0-.2.2-.3.3-.3h2.8c.2 0 .3.1.3.3l3.3 13.4c.1.2 0 .3-.3.3h-1.8zm-2.9-10.6l-1.3 5.4h2.5l-1.2-5.4zM395.3 3c.3 0 .4.2.3.5l-3.7 8.3v4.8c0 .3-.1.4-.4.4h-1.9c-.3 0-.4-.1-.4-.4v-4.8l-3.7-8.3c-.1-.3 0-.5.3-.5h2c.2 0 .4.1.5.3l2.2 5.1 2.2-5.1c.1-.2.2-.3.5-.3h2.1zm9.5 8.7c-.2.1-.3.3-.3.5v1.7c0 .3.1.4.4.4h2.2v-.8c0-.3.1-.4.4-.4h1.9c.3 0 .4.1.4.4v3.1c0 .3-.1.4-.4.4h-7.2c-.3 0-.4-.1-.4-.4v-5.9c0-.4.1-.5.5-.7l4.8-2.6v-3c0-.5-.3-.8-.8-.8h-1c-.5 0-.8.3-.8.8V6c0 .2-.1.3-.3.3h-2.1c-.2 0-.3-.1-.3-.3V3.8c0-1.9 1-2.9 2.9-2.9h2.2c1.9 0 2.9 1 2.9 2.9v4.7c0 .4-.2.5-.5.7l-4.5 2.5zm12-8.4c0-.2.1-.3.3-.3h4.8c1.9 0 2.9 1 2.9 2.9v8.2c0 1.9-1 2.9-2.9 2.9h-4.8c-.2 0-.3-.1-.3-.3V3.3zm4.6 11c.5 0 .8-.3.8-.8V6.4c0-.5-.3-.8-.8-.8h-1.8v8.7h1.8zm13.4-9c0 .2-.1.3-.3.3h-4.9v3.1h3.8c.2 0 .3.1.3.3v2c0 .2-.1.3-.3.3h-3.8v3h4.9c.2 0 .3.1.3.3v2c0 .2-.1.3-.3.3h-7.4c-.2 0-.3-.1-.3-.3V3.3c0-.2.1-.3.3-.3h7.4c.2 0 .3.1.3.3v2zm2-2c0-.2.1-.3.3-.3h4.8c1.9 0 2.9 1 2.9 2.9v3.9c0 1.9-1 2.9-2.9 2.9h-2.5v4c0 .2-.1.3-.3.3h-2c-.2 0-.3-.1-.3-.3V3.3zm4.6 6.8c.5 0 .8-.3.8-.8v-3c0-.5-.3-.8-.8-.8h-2V10l2 .1zm8.2 4.2h4c.2 0 .3.1.3.3v2c0 .2-.1.3-.3.3h-6.4c-.2 0-.3-.1-.3-.3V3.3c0-.2.1-.3.3-.3h2.1c.2 0 .3.1.3.3v11zm5.6-8.5c0-1.9 1-2.9 2.9-2.9h2.2c1.9 0 2.9 1 2.9 2.9V14c0 1.9-1 2.9-2.9 2.9h-2.2c-1.9 0-2.9-1-2.9-2.9V5.8zm4.7 8.6c.5 0 .8-.3.8-.8V6.3c0-.5-.3-.8-.8-.8h-1.3c-.5 0-.8.3-.8.8v7.2c0 .5.3.8.8.8h1.3zM476.2 3c.3 0 .4.1.4.4v13.2c0 .3-.1.4-.4.4h-1.9c-.3 0-.4-.1-.4-.4V8.7h-.1l-1.9 7.9c-.1.2-.2.3-.4.3h-1.2c-.2 0-.4-.1-.4-.3L468 8.7h-.1v7.9c0 .3-.1.4-.4.4h-1.8c-.3 0-.4-.1-.4-.4V3.4c0-.3.1-.4.4-.4h2.6c.2 0 .4.1.4.3l2.2 8.9 2.2-8.9c.1-.2.2-.3.4-.3h2.7zm10.4 2.3c0 .2-.1.3-.3.3h-4.9v3.1h3.8c.2 0 .3.1.3.3v2c0 .2-.1.3-.3.3h-3.8v3h4.9c.2 0 .3.1.3.3v2c0 .2-.1.3-.3.3H479c-.2 0-.3-.1-.3-.3V3.3c0-.2.1-.3.3-.3h7.4c.2 0 .3.1.3.3v2zM496.9 3c.2 0 .3.1.3.3v13.4c0 .2-.1.3-.3.3h-1.6c-.2 0-.3-.1-.4-.3l-3.8-7.6v7.6c0 .2-.1.3-.3.3H489c-.2 0-.3-.1-.3-.3V3.3c0-.2.1-.3.3-.3h1.6c.2 0 .3.1.4.3l3.8 7.6V3.3c0-.2.1-.3.3-.3h1.8zm9.6 0c.2 0 .3.1.3.3v2c0 .2-.1.3-.3.3h-2.3v11c0 .2-.1.3-.3.3h-2.1c-.2 0-.3-.1-.3-.3v-11h-2.3c-.2 0-.3-.1-.3-.3v-2c0-.2.1-.3.3-.3h7.3zm7 0c1.9 0 2.9 1 2.9 2.9v1.3c0 .2-.1.3-.3.3h-2c-.2 0-.3-.1-.3-.3v-.9c0-.5-.3-.8-.8-.8h-1.1c-.5 0-.8.3-.8.8V8l4.8 1.6c.3.1.5.4.5.7v3.8c0 1.9-1 2.9-2.9 2.9h-2.2c-1.9 0-2.9-1-2.9-2.9v-1.3c0-.2.1-.3.3-.3h2c.2 0 .3.1.3.3v.8c0 .5.3.8.8.8h1.1c.5 0 .8-.3.8-.8v-2l-4.8-1.6c-.4-.1-.5-.4-.5-.7V5.8c0-1.9 1-2.9 2.9-2.9h2.2zm18.3-2c.3 0 .4.2.3.5l-6.4 16.8c-.1.2-.2.3-.5.3h-1.9c-.3 0-.4-.2-.3-.5l6.4-16.8c.1-.2.2-.3.5-.3h1.9zM370.1 35.6h4c.2 0 .3.1.3.3v2c0 .2-.1.3-.3.3h-6.4c-.2 0-.3-.1-.3-.3V24.5c0-.2.1-.3.3-.3h2.1c.2 0 .3.1.3.3v11.1zm6 2.6c-.2 0-.3-.1-.3-.3V24.5c0-.2.1-.3.3-.3h2.1c.2 0 .3.1.3.3v13.4c0 .2-.1.3-.3.3h-2.1zm12.4-11.7c0 .2-.1.3-.3.3h-5v3.4h3.8c.2 0 .3.1.3.3v2c0 .2-.1.3-.3.3h-3.8v5c0 .2-.1.3-.3.3h-2.1c-.2 0-.3-.1-.3-.3V24.5c0-.2.1-.3.3-.3h7.4c.2 0 .3.1.3.3v2zm10 0c0 .2-.1.3-.3.3h-4.9V30h3.8c.2 0 .3.1.3.3v2c0 .2-.1.3-.3.3h-3.8v3h4.9c.2 0 .3.1.3.3v2c0 .2-.1.3-.3.3h-7.4c-.2 0-.3-.1-.3-.3V24.5c0-.2.1-.3.3-.3h7.4c.2 0 .3.1.3.3v2zm10 2.8c0 .2-.1.3-.3.3h-1.9c-.2 0-.3-.1-.3-.3v-1.6c0-.5-.3-.8-.8-.8h-1.3c-.5 0-.8.3-.8.8V35c0 .5.3.8.8.8h1.3c.5 0 .8-.3.8-.8v-1.7c0-.2.1-.3.3-.3h1.9c.2 0 .3.1.3.3v2.2c0 1.9-1 2.9-2.9 2.9h-2.2c-1.9 0-2.9-1-2.9-2.9v-8.2c0-1.9 1-2.9 2.9-2.9h2.2c1.9 0 2.9 1 2.9 2.9v2zm11-5.1c.3 0 .4.2.3.5l-3.7 8.3v4.8c0 .3-.1.4-.4.4h-1.9c-.3 0-.4-.1-.4-.4V33l-3.7-8.3c-.1-.3 0-.5.3-.5h2c.2 0 .4.1.5.3l2.2 5.1 2.2-5.1c.1-.2.2-.3.5-.3h2.1zm9.1 5.1c0 .2-.1.3-.3.3h-1.9c-.2 0-.3-.1-.3-.3v-1.6c0-.5-.3-.8-.8-.8H424c-.5 0-.8.3-.8.8V35c0 .5.3.8.8.8h1.3c.5 0 .8-.3.8-.8v-1.7c0-.2.1-.3.3-.3h1.9c.2 0 .3.1.3.3v2.2c0 1.9-1 2.9-2.9 2.9h-2.2c-1.9 0-2.9-1-2.9-2.9v-8.2c0-1.9 1-2.9 2.9-2.9h2.2c1.9 0 2.9 1 2.9 2.9v2zm4.8 6.3h4c.2 0 .3.1.3.3v2c0 .2-.1.3-.3.3H431c-.2 0-.3-.1-.3-.3V24.5c0-.2.1-.3.3-.3h2.1c.2 0 .3.1.3.3v11.1zm14-9.1c0 .2-.1.3-.3.3h-4.9V30h3.8c.2 0 .3.1.3.3v2c0 .2-.1.3-.3.3h-3.8v3h4.9c.2 0 .3.1.3.3v2c0 .2-.1.3-.3.3h-7.4c-.2 0-.3-.1-.3-.3V24.5c0-.2.1-.3.3-.3h7.4c.2 0 .3.1.3.3v2zm-81.1 127c0-.3.2-.4.4-.4h6.5c2.5 0 3.9 1.4 3.9 3.9v6.6c0 2.5-1.4 3.9-3.9 3.9H370v6.8c0 .3-.1.4-.4.4h-2.8c-.3 0-.4-.2-.4-.4v-20.8zm6.1 10.4c.7 0 1.1-.4 1.1-1.1v-5.1c0-.7-.4-1.1-1.1-1.1H370v7.3h2.4zm19.1-10.8c.3 0 .5.2.5.5v17.2c0 2.5-1.4 3.9-3.9 3.9h-3c-2.5 0-3.9-1.4-3.9-3.9v-17.2c0-.3.2-.5.5-.5h2.6c.3 0 .5.2.5.5v16.5c0 .7.4 1.1 1.1 1.1h1.4c.7 0 1.1-.4 1.1-1.1v-16.5c0-.3.2-.5.5-.5h2.6zm11.5 0c2.5 0 3.9 1.4 3.9 3.9v2.9c0 .3-.1.4-.4.4h-2.8c-.3 0-.4-.2-.4-.4v-2.1c0-.7-.4-1.1-1.1-1.1h-1.3c-.7 0-1.1.4-1.1 1.1v3.7l6.4 2.1c.5.2.7.5.7 1v6.3c0 2.5-1.4 3.9-3.9 3.9h-3c-2.5 0-3.9-1.4-3.9-3.9V168c0-.3.2-.4.4-.4h2.8c.3 0 .4.1.4.4v2.1c0 .7.4 1.1 1.1 1.1h1.3c.7 0 1.1-.4 1.1-1.1v-3.6l-6.4-2.1c-.5-.2-.7-.5-.7-1V157c0-2.5 1.4-3.9 3.9-3.9h3zm15.1.4c0-.3.2-.4.4-.4h2.8c.3 0 .5.2.5.4v20.8c0 .3-.1.4-.5.4h-2.8c-.3 0-.4-.2-.4-.4v-8.6h-3.5v8.6c0 .3-.2.4-.4.4h-2.8c-.3 0-.5-.2-.5-.4v-20.8c0-.3.1-.4.5-.4h2.8c.3 0 .4.2.4.4v8.6h3.5v-8.6zm11.8 14.1c-.3.2-.4.4-.4.6v2.4c0 .4.2.5.5.5h2.9V170c0-.4.2-.5.5-.5h2.6c.4 0 .5.2.5.5v4.1c0 .4-.2.5-.5.5h-9.7c-.4 0-.5-.2-.5-.5v-8c0-.5.2-.7.7-1l6.4-3.5v-4c0-.7-.4-1.1-1.1-1.1h-1.3c-.7 0-1.1.4-1.1 1.1v2.1c0 .3-.2.4-.4.4h-2.8c-.3 0-.4-.2-.4-.4V157c0-2.5 1.4-3.9 3.9-3.9h3c2.5 0 3.9 1.4 3.9 3.9v6.4c0 .5-.2.7-.7 1l-6 3.2zm21.7-7.7c0 .3-.2.4-.4.4h-2.7c-.3 0-.4-.2-.4-.4v-2.2c0-.7-.4-1.1-1.1-1.1h-1.4c-.7 0-1.1.4-1.1 1.1V170c0 .7.4 1.1 1.1 1.1h1.4c.7 0 1.1-.4 1.1-1.1v-2.2c0-.3.1-.4.4-.4h2.7c.3 0 .4.2.4.4v2.9c0 2.5-1.4 3.9-3.9 3.9h-3c-2.5 0-3.9-1.4-3.9-3.9V157c0-2.5 1.4-3.9 3.9-3.9h3c2.5 0 3.9 1.4 3.9 3.9v2.9zm7.7 11.2h6.4c.3 0 .4.2.4.4v2.7c0 .3-.1.4-.4.4H456c-.3 0-.4-.1-.4-.4v-20.8c0-.3.2-.4.4-.4h2.8c.3 0 .4.2.4.4v17.7zm10.2-14.1c0-2.5 1.4-3.9 3.9-3.9h3c2.5 0 3.9 1.4 3.9 3.9v13.9c0 2.5-1.4 3.9-3.9 3.9h-3c-2.5 0-3.9-1.4-3.9-3.9V157zm6.2 14.2c.7 0 1.1-.4 1.1-1.1v-12.5c0-.7-.4-1.1-1.1-1.1h-1.6c-.7 0-1.1.4-1.1 1.1v12.5c0 .7.4 1.1 1.1 1.1h1.6zm18.9-18.1c.3 0 .5.2.5.5v17.2c0 2.5-1.4 3.9-3.9 3.9h-3c-2.5 0-3.9-1.4-3.9-3.9v-17.2c0-.3.2-.5.5-.5h2.6c.3 0 .5.2.5.5v16.5c0 .7.4 1.1 1.1 1.1h1.4c.7 0 1.1-.4 1.1-1.1v-16.5c0-.3.2-.5.5-.5h2.6zm4.6.4c0-.3.1-.4.4-.4h6.5c2.5 0 3.9 1.4 3.9 3.9v13.8c0 2.5-1.4 3.9-3.9 3.9h-6.5c-.3 0-.4-.1-.4-.4v-20.8zm6.2 17.6c.7 0 1.1-.4 1.1-1.1v-12.3c0-.7-.4-1.1-1.1-1.1h-2.5v14.5h2.5z"/><path class="st2" d="M393.3 90.2c-14.6 0-26.3 11.9-26.3 26.4v23.9c0 1.3.8 3 2.1 3h24.1c14.6 0 26.5-12.1 26.5-26.7 0-14.5-11.8-26.6-26.4-26.6zm-.2 36.3H382v-9.9c0-6.1 5-11.2 11.2-11.2 6.1 0 11.1 4.5 11.1 10.6s-5 10.5-11.2 10.5z"/><path class="st2" d="M458.5 65.9c-5.3-5-12.3-7.6-19.6-7.2-13.8.7-24.8 12.2-25 26-.1 8.5 3.9 16.6 10.7 21.6l.3.2c.4.2.8.4 1.3.4.7 0 1.3-.3 1.7-.7l6.4-8.7c0-.1.1-.1.1-.2.3-.4.4-.8.4-1.3 0-.7-.2-1.3-.7-1.7 0 0-.4-.3-.5-.4-2.8-2.1-4.4-5.5-4.4-9 .1-5.8 4.7-10.7 10.5-11 3.1-.2 6.1.9 8.3 3 2.2 2.1 3.5 5 3.5 8.1 0 2.1-.6 4.1-1.7 5.9 0 0-37 50-37 50.1-.1.2-.2.7-.2.9 0 .6.5 1.5 1 1.5h45.2c.6 0 1.2-1.6 1.2-2.3v-11.8c0-.6-.5 0-1.2 0h-17.2l20.6-28.8.1-.6c2.8-4.3 4.3-9.6 4.3-14.7.1-7.1-2.9-14.3-8.1-19.3z"/><path class="st2" d="M509.9 128.1s-8.7-4.3-11.7-5.8c0 0-.2-.1-.5-.1-.6 0-1 .5-1 .5-2.1 3-6.2 4.8-9.9 4.8-6.1 0-11.8-5-11.8-11.1s5.7-11.1 11.8-11.1c3.7 0 7.5 1.8 9.5 4.9 0 0 .5.5 1.2.5.3 0 .6-.1.6-.1 2.9-1.5 11.7-5.8 11.7-5.8.4-.2.7-.6.7-1.1 0-.3-.3-.8-.3-.8l-.3-.5c-4.9-7.8-12.8-12.5-22-12.5-14.6 0-26 11.9-26 26.4 0 14.6 11.4 26.4 26 26.4 9.2 0 17.4-4.7 22.2-12.5l.2-.5s.2-.4.2-.8c.1-.2-.2-.6-.6-.8zm-66.5 124c-2.7 0-3.5-1.7-1.7-3.7l14.6-16.4c1.8-2.1 4.8-2.1 6.6 0l14.6 16.4c1.8 2.1 1.1 3.7-1.7 3.7h-32.4zm32.6 31c2.7 0 3.5 1.7 1.7 3.7l-14.6 16.4c-1.8 2.1-4.8 2.1-6.6 0l-14.6-16.4c-1.8-2.1-1.1-3.7 1.7-3.7H476z"/><path class="st2" d="M469.5 282.3c0 2.7-2.2 5-5 5H455c-2.7 0-5-2.2-5-5v-28c0-2.7 2.2-5 5-5h9.5c2.7 0 5 2.2 5 5v28zm-154.8-99.5c-1.9-1.9-1.3-3.7 1.5-3.8l21.9-1.3c2.7-.2 4.9 2 4.7 4.7l-1.3 21.9c-.2 2.7-1.9 3.4-3.8 1.5l-23-23zm1.2 44.9c1.9 1.9 1.3 3.7-1.5 3.8l-21.9 1.3c-2.7.2-4.9-2-4.7-4.7l1.3-21.9c.2-2.7 1.9-3.4 3.8-1.5l23 23z"/><path class="st2" d="M312 222.3c-1.9 1.9-5.1 1.9-7.1 0l-6.7-6.7c-1.9-1.9-1.9-5.1 0-7.1l19.8-19.8c1.9-1.9 5.1-1.9 7.1 0l6.7 6.7c1.9 1.9 1.9 5.1 0 7.1L312 222.3zm315.6-16.6c1.9-1.9 3.7-1.3 3.8 1.5l1.3 21.9c.2 2.7-2 4.9-4.7 4.7l-21.9-1.3c-2.7-.2-3.4-1.9-1.5-3.8l23-23z"/><path class="st2" d="M622.2 209.5c1.9 1.9 1.9 5.1 0 7.1l-6.7 6.7c-1.9 1.9-5.1 1.9-7.1 0l-28.5-28.5c-1.9-1.9-1.9-5.1 0-7.1l6.7-6.7c1.9-1.9 5.1-1.9 7.1 0l28.5 28.5z"/><path class="st0" d="M296.3 264.3c1.1 0 1.7.6 1.7 1.7v81.6c0 1.1-.6 1.7-1.7 1.7h-11c-1.2 0-1.7-.6-1.7-1.7v-67.1l-6.6.9c-1.4.2-2.2-.5-2.2-1.9v-10.2c0-1.4.6-2.1 2-2.2l19.5-2.8zm-46.4.2H241v14s-.1 0 0 0h6.2c2.8 0 3.8 1.4 3.8 4.2v49.1c0 2.9-1 3.7-3.8 3.7H241c-.2 0 0 .5 0 .5v13.5h8.9c10 0 15.1-5.1 15.1-15.1V280c0-9.9-5.2-15.5-15.1-15.5z"/><path class="st3" d="M69.8 362c-2.5 0-4.4 1.2-4.4 4.2 0 2.3 1.2 3.8 4.3 3.8 2.6 0 4.3-1.5 4.3-3.9 0-2.7-1.6-4.1-4.2-4.1zm-5.1 21.2c-.6.7-1.2 1.5-1.2 2.4 0 1.8 2.3 2.4 5.6 2.4 2.7 0 6.3-.2 6.3-2.7 0-1.5-1.8-1.6-4-1.7l-6.7-.4zm13.7-21.1c.8 1.1 1.7 2.5 1.7 4.7 0 5.1-4 8.1-9.8 8.1-1.5 0-2.8-.2-3.6-.4l-1.5 2.4 4.5.3c8 .5 12.7.7 12.7 6.9 0 5.3-4.7 8.3-12.7 8.3-8.3 0-11.5-2.1-11.5-5.8 0-2.1.9-3.2 2.5-4.7-1.5-.6-2-1.8-2-3 0-1 .5-1.9 1.3-2.8.8-.9 1.8-1.8 2.9-2.8-2.3-1.1-4-3.5-4-6.9 0-5.3 3.5-8.9 10.5-8.9 2 0 3.2.2 4.2.5h9v3.9l-4.2.2zm12.3-8.3c-2.6 0-4.1-1.5-4.1-4.1 0-2.6 1.5-4.1 4.1-4.1 2.7 0 4.2 1.4 4.2 4.1 0 2.6-1.5 4.1-4.2 4.1zm-5.9 27.7v-3.6l2.4-.3c.6-.1.7-.2.7-.9V363c0-.5-.1-.8-.6-1l-2.5-.9.5-3.7h9.5v19.1c0 .7 0 .8.7.9l2.4.3v3.6H84.8v.2zm31.3-1.8c-2 1-4.9 1.8-7.5 1.8-5.5 0-7.6-2.2-7.6-7.4V362c0-.3 0-.5-.4-.5h-3.2v-4.1c4.1-.5 5.7-2.5 6.2-7.5h4.4v6.5c0 .3 0 .5.4.5h6.5v4.6H108v11c0 2.7.6 3.8 3.1 3.8 1.3 0 2.6-.3 3.7-.7l1.3 4.1"/><path class="st4" d="M47.8 367.6l-21.1-21.1c-1.2-1.2-3.2-1.2-4.4 0l-4.4 4.4 5.5 5.5c1.3-.4 2.8-.1 3.8.9s1.3 2.5.9 3.8l5.3 5.3c1.3-.4 2.8-.2 3.8.9 1.4 1.4 1.4 3.8 0 5.2-1.4 1.4-3.8 1.4-5.2 0-1.1-1.1-1.4-2.7-.8-4l-5-5v13.1c.4.2.7.4 1 .7 1.4 1.4 1.4 3.8 0 5.2-1.4 1.4-3.8 1.4-5.2 0-1.4-1.4-1.4-3.8 0-5.2.4-.4.8-.6 1.2-.8v-13.2c-.4-.2-.9-.4-1.2-.8-1.1-1.1-1.4-2.7-.8-4l-5.5-5.5-14.3 14.5c-1.2 1.2-1.2 3.2 0 4.4L22.5 393c1.2 1.2 3.2 1.2 4.4 0l21-21c1.2-1.2 1.2-3.2-.1-4.4"/><path d="M3.9 432.1h-1c-.2-.3-.4-.7-.6-1.2-.2-.5-.4-1-.6-1.6-.2-.6-.3-1.2-.4-1.9-.1-.7-.2-1.4-.2-2.1 0-.7.1-1.4.2-2.1.1-.7.2-1.3.4-1.9.2-.6.4-1.1.6-1.6.2-.5.4-.9.6-1.2h.8c-.1.2-.3.5-.5.9s-.4.9-.6 1.4c-.2.6-.4 1.2-.5 1.9-.1.7-.2 1.5-.2 2.4 0 .9.1 1.7.2 2.4s.3 1.4.5 1.9c.2.6.4 1 .6 1.4.4.8.6 1.1.7 1.3zm6.7-3.2c0 .1.1.2.1.4s.1.3.1.4c-.2.1-.5.2-.8.2-.3.1-.6.1-1 .1-1.2 0-2.1-.3-2.7-1s-.9-1.6-.9-2.8c0-.5.1-1 .2-1.5.2-.5.4-.9.7-1.2.3-.3.7-.6 1.1-.8.4-.2.9-.3 1.5-.3.4 0 .7 0 1 .1.3.1.6.1.8.2v.4c0 .2-.1.3-.1.4-.2-.1-.4-.1-.7-.2-.3 0-.6-.1-.9-.1-.4 0-.8.1-1.1.2-.3.1-.6.4-.8.6-.2.3-.4.6-.5.9-.1.4-.2.8-.2 1.2 0 1 .2 1.8.7 2.2.5.5 1.1.7 2 .7.3 0 .6 0 .8-.1.3.1.5.1.7 0zm2-6.3h.8v4.1c0 .5.1.9.2 1.3.1.3.3.6.5.8.2.2.5.3.7.4.3.1.6.1 1 .1h.8c.2 0 .5-.1.7-.1v-6.4h.8v7c-.3.1-.7.2-1.2.2-.4.1-.9.1-1.3.1s-.9 0-1.3-.1-.7-.2-1-.5c-.3-.2-.5-.6-.7-1-.2-.4-.3-1-.3-1.7v-4.2zm8.2 0h.8v1.2c.2-.3.5-.6.8-.9.3-.2.8-.4 1.3-.4h.3v.9h-.3c-.6 0-1.2.2-1.5.6-.4.4-.6 1.1-.6 2v3.7h-.8v-7.1zm5 0h.8v1.2c.2-.3.5-.6.8-.9.3-.2.8-.4 1.3-.4h.3v.9h-.3c-.6 0-1.2.2-1.5.6-.4.4-.6 1.1-.6 2v3.7h-.8v-7.1zm5.3 3.7c0 1 .2 1.7.7 2.1.4.5 1.1.7 2 .7.4 0 .7 0 1-.1.3-.1.6-.1.9-.2 0 .1.1.2.1.4s0 .3.1.4c-.3.1-.6.2-1 .3-.4.1-.8.1-1.2.1-.6 0-1.2-.1-1.6-.3-.4-.2-.8-.4-1.1-.8-.3-.3-.5-.7-.6-1.2-.1-.5-.2-1-.2-1.5s.1-1 .2-1.5.3-.9.6-1.2c.3-.3.6-.6 1-.8.4-.2.9-.3 1.5-.3.5 0 .9.1 1.3.2.4.2.7.4.9.7.3.3.4.6.6 1 .1.4.2.8.2 1.3v.6h-5.4zm4.2-.8c0-.3 0-.6-.1-.9-.1-.3-.2-.5-.4-.7-.2-.2-.4-.4-.6-.5-.3-.1-.6-.2-.9-.2-.7 0-1.2.2-1.5.6-.4.4-.6 1-.7 1.7h4.2zm3-2.9h.8v1.3c.1-.2.2-.3.4-.5l.5-.5c.2-.1.4-.3.7-.3s.6-.1.9-.1c.8 0 1.4.2 1.8.7s.6 1.2.6 2.1v4.6h-.8v-4.3c0-.8-.1-1.4-.4-1.7-.3-.3-.6-.5-1.1-.5-.3 0-.6.1-.9.2-.3.1-.5.3-.8.6-.2.2-.4.6-.5.9-.1.4-.2.8-.2 1.3v3.6h-.8v-7.4zm8.5.8h-1.2v-.8h1.2v-1.4l.9-.9h.1v2.2h2v.8h-2v4.7c0 .2 0 .4.1.6.1.1.1.2.2.3.1.1.2.1.3.1h.4c.3 0 .6 0 .9-.1.1.2.1.5.1.8-.3.1-.7.2-1.2.2s-1-.1-1.3-.4c-.3-.3-.5-.8-.5-1.4v-4.7zm4.4-4h.8v8.7c0 .2 0 .4.1.6.1.1.1.2.2.3.1.1.2.1.3.1h.9c0 .1.1.2.1.4v.4c-.1 0-.3.1-.4.1h-.5c-.2 0-.4 0-.6-.1-.2 0-.4-.1-.5-.2-.2-.1-.3-.3-.4-.5-.1-.2-.1-.5-.1-.8v-9zm6.4 10.4h-.8l-2.6-7.2h1.1l2.4 7 2.4-7h1l-3.2 9.4c-.2.5-.4.9-.7 1.1-.3.2-.7.3-1.1.3-.2 0-.4 0-.6-.1-.2 0-.4-.1-.5-.1 0-.3.1-.6.2-.8.1 0 .2.1.3.1h.5c.3 0 .5-.1.7-.2.2-.1.3-.4.4-.7l.5-1.8zm8.4-10.4h.8v4.2c.2-.3.5-.6.9-.8.4-.2.9-.4 1.5-.4.4 0 .8.1 1.2.2.4.1.7.4.9.6.3.3.5.7.6 1.1.1.4.2 1 .2 1.6 0 1.3-.3 2.2-1 2.9-.7.7-1.7 1.1-3 1.1-.4 0-.8 0-1.2-.1-.4-.1-.7-.2-1-.3v-10.1zm1 9.5c.2.1.4.1.7.2h.8c.4 0 .7-.1 1.1-.2.3-.1.6-.3.9-.6.3-.3.5-.6.6-1 .2-.4.2-.9.2-1.4 0-.9-.2-1.5-.5-2s-.9-.7-1.6-.7c-.2 0-.5 0-.7.1-.3.1-.5.2-.7.4-.2.2-.4.4-.6.7-.1.3-.2.7-.2 1.1v3.4zm11.4-3.9c0-.6-.1-1.1-.4-1.4-.3-.3-.7-.4-1.3-.4-.4 0-.7 0-1 .1s-.6.1-.8.2c0-.1-.1-.2-.1-.4v-.5c.2-.1.5-.1.9-.2s.7-.1 1.1-.1c.9 0 1.6.2 2 .6.4.4.7 1 .7 1.9v4.8c-.3.1-.7.1-1.2.2s-.9.1-1.3.1c-.9 0-1.6-.2-2.1-.5s-.8-.9-.8-1.7c0-.4.1-.7.2-1 .1-.3.3-.5.6-.8.3-.2.6-.4.9-.5.4-.1.8-.2 1.2-.2h.9c.2 0 .4 0 .6.1v-.3zm0 1.3c-.2 0-.4 0-.6-.1h-.7c-.7 0-1.3.1-1.6.4-.4.3-.6.6-.6 1.1 0 .3.1.6.2.8.1.2.3.3.5.4.2.1.4.2.6.2h1.5c.3 0 .5-.1.8-.1v-2.7zm3 2.5c.2.1.5.2.8.2.3.1.6.1.9.1.6 0 1-.1 1.3-.4.3-.2.5-.6.5-.9 0-.3 0-.5-.1-.6-.1-.2-.2-.3-.4-.4l-.6-.3c-.2-.1-.4-.1-.6-.2-.2-.1-.5-.2-.7-.3-.2-.1-.4-.2-.6-.4-.2-.1-.3-.3-.4-.5-.1-.2-.2-.5-.2-.8 0-.6.2-1 .6-1.4.4-.4 1.1-.5 1.9-.5.4 0 .7 0 1.1.1.3.1.6.1.8.2 0 .3-.1.5-.2.8-.2-.1-.5-.1-.8-.2-.3-.1-.6-.1-1-.1-.6 0-1 .1-1.2.3-.2.2-.4.5-.4.8 0 .2 0 .3.1.5l.3.3c.1.1.3.2.5.2.2.1.4.1.6.2.3.1.5.2.8.3.3.1.5.2.7.4.2.2.4.4.5.6.1.2.2.6.2.9 0 .3-.1.6-.2.9-.1.3-.3.5-.6.7-.2.2-.5.3-.9.4-.3.1-.7.2-1.1.2-.5 0-.9 0-1.2-.1-.4-.1-.6-.1-.9-.2.3-.2.4-.5.5-.8zm7.2-2.5c0 1 .2 1.7.7 2.1.4.5 1.1.7 2 .7.4 0 .7 0 1-.1.3-.1.6-.1.9-.2 0 .1.1.2.1.4s0 .3.1.4c-.3.1-.6.2-1 .3-.4.1-.8.1-1.2.1-.6 0-1.2-.1-1.6-.3-.4-.2-.8-.4-1.1-.8-.3-.3-.5-.7-.6-1.2-.1-.5-.2-1-.2-1.5s.1-1 .2-1.5.3-.9.6-1.2c.3-.3.6-.6 1-.8.4-.2.9-.3 1.5-.3.5 0 .9.1 1.3.2.4.2.7.4.9.7.3.3.4.6.6 1 .1.4.2.8.2 1.3v.6h-5.4zm4.3-.8c0-.3 0-.6-.1-.9-.1-.3-.2-.5-.4-.7s-.4-.4-.6-.5c-.3-.1-.6-.2-.9-.2-.7 0-1.2.2-1.5.6-.4.4-.6 1-.7 1.7h4.2zm7.8-6.1h.8v10.2c-.3.1-.7.2-1.1.2-.4.1-.9.1-1.4.1-.5 0-1-.1-1.5-.2s-.8-.3-1.2-.6c-.3-.3-.6-.7-.8-1.1-.2-.5-.3-1-.3-1.7 0-.6.1-1.2.3-1.7.2-.5.4-.9.7-1.2.3-.3.7-.6 1.1-.8.4-.2.9-.3 1.5-.3.3 0 .6 0 .9.1.3.1.6.1.7.2v-3.2zm0 4.1c-.2-.1-.4-.1-.7-.2-.3-.1-.6-.1-.9-.1-.4 0-.8.1-1.2.2-.3.2-.6.4-.8.6-.2.3-.4.6-.5 1-.1.4-.2.8-.2 1.2 0 1 .2 1.7.7 2.1.5.4 1.1.7 2 .7h.9c.3 0 .5-.1.7-.1v-5.4zm9.8 6.5c-.5 0-1-.1-1.4-.3-.4-.2-.7-.5-1-.8-.3-.3-.5-.7-.6-1.2-.1-.5-.2-1-.2-1.5s.1-1 .2-1.5.3-.9.6-1.2c.3-.3.6-.6 1-.8.4-.2.9-.3 1.4-.3.5 0 1 .1 1.4.3.4.2.7.5 1 .8.3.3.5.7.6 1.2s.2 1 .2 1.5-.1 1-.2 1.5-.3.9-.6 1.2c-.3.3-.6.6-1 .8-.4.2-.8.3-1.4.3zm0-.9c.8 0 1.3-.3 1.7-.8.4-.5.6-1.3.6-2.2s-.2-1.6-.6-2.2c-.4-.5-.9-.8-1.7-.8s-1.3.3-1.7.8c-.4.5-.6 1.3-.6 2.2s.2 1.6.6 2.2c.4.6 1 .8 1.7.8zm5.3-6.5h.8v1.3c.1-.2.2-.3.4-.5l.5-.5c.2-.1.4-.3.7-.3s.6-.1.9-.1c.8 0 1.4.2 1.8.7.4.5.6 1.2.6 2.1v4.6h-.8v-4.3c0-.8-.1-1.4-.4-1.7-.3-.3-.6-.5-1.1-.5-.3 0-.6.1-.9.2-.3.1-.5.3-.8.6-.2.2-.4.6-.5.9-.1.4-.2.8-.2 1.3v3.6h-.8v-7.4zm15.7 2.4c0-.6-.1-1.1-.4-1.4-.3-.3-.7-.4-1.3-.4-.4 0-.7 0-1 .1-.3.1-.6.1-.8.2 0-.1-.1-.2-.1-.4v-.5c.2-.1.5-.1.9-.2s.7-.1 1.1-.1c.9 0 1.6.2 2 .6.4.4.7 1 .7 1.9v4.8c-.3.1-.7.1-1.2.2s-.9.1-1.3.1c-.9 0-1.6-.2-2.1-.5s-.8-.9-.8-1.7c0-.4.1-.7.2-1 .1-.3.3-.5.6-.8.3-.2.6-.4.9-.5.4-.1.8-.2 1.2-.2h.9c.2 0 .4 0 .6.1v-.3zm0 1.3c-.2 0-.4 0-.6-.1h-.7c-.7 0-1.3.1-1.6.4-.4.3-.6.6-.6 1.1 0 .3.1.6.2.8.1.2.3.3.5.4.2.1.4.2.6.2h1.5c.3 0 .5-.1.8-.1v-2.7zm9.2 3.5h-.8l-2.6-7.2h1.1l2.4 7 2.4-7h1L141 432c-.2.5-.4.9-.7 1.1-.3.2-.7.3-1.1.3-.2 0-.4 0-.6-.1-.2 0-.4-.1-.5-.1 0-.3.1-.6.2-.8.1 0 .2.1.3.1h.5c.3 0 .5-.1.7-.2.2-.1.3-.4.4-.7l.5-1.8zm4.9-7.2h.8v1.2c.1-.2.2-.4.3-.5.1-.2.3-.3.5-.5l.6-.3c.2-.1.5-.1.8-.1.3 0 .5 0 .7.1.2.1.4.2.5.3l.4.4c.1.2.2.3.3.5.1-.2.2-.3.4-.5.1-.2.3-.3.5-.4l.6-.3c.2-.1.5-.1.7-.1.8 0 1.4.2 1.8.7.4.5.6 1.2.6 2.1v4.6h-.8v-4.3c0-.8-.1-1.3-.4-1.7-.3-.4-.6-.6-1.1-.6-.3 0-.6.1-.8.2-.2.1-.4.3-.6.5-.2.2-.3.5-.3.7-.1.3-.1.6-.1.9v4.2h-.8v-4.5c0-.7-.1-1.3-.3-1.6-.2-.3-.6-.5-1-.5-.3 0-.6.1-.8.2-.2.1-.5.4-.6.6-.2.3-.3.6-.4.9-.1.4-.1.8-.1 1.2v3.6h-.8v-7zm11.8-3.2h.8v8.7c0 .2 0 .4.1.6.1.1.1.2.2.3.1.1.2.1.3.1h.9c0 .1.1.2.1.4v.4c-.1 0-.3.1-.4.1h-.5c-.2 0-.4 0-.6-.1-.2 0-.4-.1-.5-.2s-.3-.3-.4-.5c-.1-.2-.1-.5-.1-.8v-9zm12.4 0h.8v10.2c-.3.1-.7.2-1.1.2-.4.1-.9.1-1.4.1-.5 0-1-.1-1.5-.2s-.8-.3-1.2-.6c-.3-.3-.6-.7-.8-1.1-.2-.5-.3-1-.3-1.7 0-.6.1-1.2.3-1.7.2-.5.4-.9.7-1.2.3-.3.7-.6 1.1-.8.4-.2.9-.3 1.5-.3.3 0 .6 0 .9.1.3.1.6.1.7.2v-3.2zm0 4.1c-.2-.1-.4-.1-.7-.2-.3-.1-.6-.1-.9-.1-.4 0-.8.1-1.2.2-.3.2-.6.4-.8.6-.2.3-.4.6-.5 1-.1.4-.2.8-.2 1.2 0 1 .2 1.7.7 2.1.5.4 1.1.7 2 .7h.9c.3 0 .5-.1.7-.1v-5.4zm4 2.8c0 1 .2 1.7.7 2.1.4.5 1.1.7 2 .7.4 0 .7 0 1-.1s.6-.1.9-.2c0 .1.1.2.1.4s0 .3.1.4c-.3.1-.6.2-1 .3-.4.1-.8.1-1.2.1-.6 0-1.2-.1-1.6-.3-.4-.2-.8-.4-1.1-.8-.3-.3-.5-.7-.6-1.2-.1-.5-.2-1-.2-1.5s.1-1 .2-1.5.3-.9.6-1.2c.3-.3.6-.6 1-.8.4-.2.9-.3 1.5-.3.5 0 .9.1 1.3.2.4.2.7.4.9.7.3.3.4.6.6 1 .1.4.2.8.2 1.3v.6h-5.4zm4.2-.8c0-.3 0-.6-.1-.9-.1-.3-.2-.5-.4-.7-.2-.2-.4-.4-.6-.5-.3-.1-.6-.2-.9-.2-.7 0-1.2.2-1.5.6-.4.4-.6 1-.7 1.7h4.2zm3.4-2.1h-1.2v-.8h1.2v-.6c0-.9.2-1.6.6-2 .4-.4 1-.7 1.9-.7h.5c.2 0 .3 0 .4.1 0 .2 0 .3-.1.4 0 .1-.1.2-.1.4-.1 0-.2 0-.3-.1h-.5c-.2 0-.5 0-.7.1-.2.1-.3.1-.5.3-.1.1-.2.3-.3.6-.1.2-.1.6-.1.9v.6h2v.8h-2v6.4h-.8v-6.4zm3.6 6.4v-1.2h1.2v1.2H185zm12.7-4.5v.9h-7.1v-.8h7.1zM1 443.8h1l1.6 6.1 1.8-6.1h.9l1.8 6.1 1.6-6.1h.9l-2 7.2h-1l-1.7-6-1.9 6H3l-2-7.2zm11.8 3.8c0 1 .2 1.7.7 2.1.4.5 1.1.7 2 .7.4 0 .7 0 1-.1s.6-.1.9-.2c0 .1.1.2.1.4s0 .3.1.4c-.3.1-.6.2-1 .3-.4.1-.8.1-1.2.1-.6 0-1.2-.1-1.6-.3-.4-.2-.8-.4-1.1-.8-.3-.3-.5-.7-.6-1.2-.1-.5-.2-1-.2-1.5s.1-1 .2-1.5.3-.9.6-1.2c.3-.3.6-.6 1-.8.4-.2.9-.3 1.5-.3.5 0 .9.1 1.3.2.4.2.7.4.9.7.3.3.4.6.6 1 .1.4.2.8.2 1.3v.6h-5.4zm4.2-.8c0-.3 0-.6-.1-.9-.1-.3-.2-.5-.4-.7-.2-.2-.4-.4-.6-.5-.3-.1-.6-.2-.9-.2-.7 0-1.2.2-1.5.6-.4.4-.6 1-.7 1.7H17zm6.5-6.2h.8v8.7c0 .2 0 .4.1.6.1.1.1.2.2.3.1.1.2.1.3.1h.9c0 .1.1.2.1.4v.4c-.1 0-.3.1-.4.1H25c-.2 0-.4 0-.6-.1-.2 0-.4-.1-.5-.2-.2-.1-.3-.3-.4-.5-.1-.2-.1-.5-.1-.8v-9zm6.8 10.6c-.5 0-1-.1-1.4-.3-.4-.2-.7-.5-1-.8-.3-.3-.5-.7-.6-1.2-.1-.5-.2-1-.2-1.5s.1-1 .2-1.5.3-.9.6-1.2c.3-.3.6-.6 1-.8.4-.2.9-.3 1.4-.3.5 0 1 .1 1.4.3.4.2.7.5 1 .8.3.3.5.7.6 1.2s.2 1 .2 1.5-.1 1-.2 1.5-.3.9-.6 1.2c-.3.3-.6.6-1 .8-.4.2-.9.3-1.4.3zm0-.8c.8 0 1.3-.3 1.7-.8.4-.5.6-1.3.6-2.2s-.2-1.6-.6-2.2c-.4-.5-.9-.8-1.7-.8-.8 0-1.3.3-1.7.8-.4.5-.6 1.3-.6 2.2s.2 1.6.6 2.2c.4.5.9.8 1.7.8zm8.1.8c-.5 0-1-.1-1.4-.3-.4-.2-.7-.5-1-.8-.3-.3-.5-.7-.6-1.2-.1-.5-.2-1-.2-1.5s.1-1 .2-1.5.3-.9.6-1.2c.3-.3.6-.6 1-.8.4-.2.9-.3 1.4-.3.5 0 1 .1 1.4.3.4.2.7.5 1 .8.3.3.5.7.6 1.2s.2 1 .2 1.5-.1 1-.2 1.5-.3.9-.6 1.2c-.3.3-.6.6-1 .8-.4.2-.8.3-1.4.3zm0-.8c.8 0 1.3-.3 1.7-.8.4-.5.6-1.3.6-2.2s-.2-1.6-.6-2.2c-.4-.5-.9-.8-1.7-.8-.8 0-1.3.3-1.7.8-.4.5-.6 1.3-.6 2.2s.2 1.6.6 2.2c.4.5 1 .8 1.7.8zm5.3-9.8h.8V451h-.8v-10.4zm1.6 6.7l2.6-3.5H49l-2.6 3.4 3 3.8h-1.1l-3-3.7zm9.5-2.7h-.9v-.8h1.8v7.2h-.8v-6.4zm-.4-2.6v-1.2h1.2v1.2h-1.2zm3.9 1.8h.8v1.3c.1-.2.2-.3.4-.5l.5-.5c.2-.1.4-.3.7-.3.3-.1.6-.1.9-.1.8 0 1.4.2 1.8.7s.6 1.2.6 2.1v4.6h-.8v-4.3c0-.8-.1-1.4-.4-1.7-.3-.3-.6-.5-1.1-.5-.3 0-.6.1-.9.2-.3.1-.5.3-.8.6-.2.2-.4.6-.5.9-.1.4-.2.8-.2 1.3v3.6h-.8v-7.4zm8.4.8h-1.2v-.8h1.2v-1.4l.9-.9h.1v2.2h2v.8h-2v4.7c0 .2 0 .4.1.6.1.1.1.2.2.3.1.1.2.1.3.1h.4c.3 0 .6 0 .9-.1.1.2.1.5.1.8-.3.1-.7.2-1.2.2s-1-.1-1.3-.4c-.3-.3-.5-.8-.5-1.4v-4.7zm7.3 6.6c-.5 0-1-.1-1.4-.3-.4-.2-.7-.5-1-.8-.3-.3-.5-.7-.6-1.2-.1-.5-.2-1-.2-1.5s.1-1 .2-1.5.3-.9.6-1.2c.3-.3.6-.6 1-.8.4-.2.9-.3 1.4-.3.5 0 1 .1 1.4.3.4.2.7.5 1 .8.3.3.5.7.6 1.2s.2 1 .2 1.5-.1 1-.2 1.5-.3.9-.6 1.2c-.3.3-.6.6-1 .8-.4.2-.9.3-1.4.3zm0-.8c.8 0 1.3-.3 1.7-.8.4-.5.6-1.3.6-2.2s-.2-1.6-.6-2.2c-.4-.5-.9-.8-1.7-.8s-1.3.3-1.7.8c-.4.5-.6 1.3-.6 2.2s.2 1.6.6 2.2c.4.5.9.8 1.7.8zm13.6-.3c0 .1.1.2.1.4s.1.3.1.4c-.2.1-.5.2-.8.2-.3.1-.6.1-1 .1-1.2 0-2.1-.3-2.7-1-.6-.6-.9-1.6-.9-2.8 0-.5.1-1 .2-1.5.2-.5.4-.9.7-1.2.3-.3.7-.6 1.1-.8.4-.2.9-.3 1.5-.3.4 0 .7 0 1 .1.3.1.6.1.8.2v.4c0 .2-.1.3-.1.4-.2-.1-.4-.1-.7-.2-.3 0-.6-.1-.9-.1-.4 0-.8.1-1.1.2-.3.1-.6.4-.8.6-.2.3-.4.6-.5.9-.1.4-.2.8-.2 1.2 0 1 .2 1.8.7 2.2.5.5 1.1.7 2 .7.3 0 .6 0 .8-.1.3.2.5.1.7 0zm2-6.3h.8v1.3c.1-.2.2-.3.4-.5l.5-.5c.2-.1.4-.3.7-.3s.6-.1.9-.1c.8 0 1.4.2 1.8.7.4.5.6 1.2.6 2.1v4.6h-.8v-4.3c0-.8-.1-1.4-.4-1.7-.3-.3-.6-.5-1.1-.5-.3 0-.6.1-.9.2-.3.1-.5.3-.8.6-.2.2-.4.6-.5.9-.1.4-.2.8-.2 1.3v3.6h-.8v-7.4zm12.9 6.3c0 .1.1.2.1.4s.1.3.1.4c-.2.1-.5.2-.8.2-.3.1-.6.1-1 .1-1.2 0-2.1-.3-2.7-1-.6-.6-.9-1.6-.9-2.8 0-.5.1-1 .2-1.5.2-.5.4-.9.7-1.2.3-.3.7-.6 1.1-.8.4-.2.9-.3 1.5-.3.4 0 .7 0 1 .1.3.1.6.1.8.2v.4c0 .2-.1.3-.1.4-.2-.1-.4-.1-.7-.2-.3 0-.6-.1-.9-.1-.4 0-.8.1-1.1.2-.3.1-.6.4-.8.6-.2.3-.4.6-.5.9-.1.4-.2.8-.2 1.2 0 1 .2 1.8.7 2.2.5.5 1.1.7 2 .7.3 0 .6 0 .8-.1.3.2.5.1.7 0zm2.5-5.5h-1.2v-.8h1.2v-.6c0-.9.2-1.6.6-2 .4-.4 1-.7 1.9-.7h.5c.2 0 .3 0 .4.1 0 .2 0 .3-.1.4 0 .1-.1.2-.1.4-.1 0-.2 0-.3-.1h-.5c-.2 0-.5 0-.7.1-.2.1-.3.1-.5.3-.1.1-.2.3-.3.6-.1.2-.1.6-.1.9v.6h2v.8h-2v6.4h-.8v-6.4zm3.9 8.8c.1-.2.3-.5.5-.9s.4-.9.6-1.4c.2-.6.4-1.2.5-1.9.1-.7.2-1.5.2-2.4 0-.9-.1-1.7-.2-2.4s-.3-1.4-.5-1.9c-.2-.6-.4-1-.6-1.4-.2-.4-.4-.7-.5-.9h.8c.2.3.4.7.6 1.2.2.5.4 1 .6 1.6.2.6.3 1.2.4 1.9.1.7.2 1.4.2 2.1 0 .7-.1 1.4-.2 2.1-.1.7-.2 1.3-.4 1.9-.2.6-.4 1.1-.6 1.6-.2.5-.4.8-.6 1.2h-.7c.1-.4 0-.4-.1-.4zM1.5 197.7c0-1.9 1-2.9 2.9-2.9h2.2c1.9 0 2.9 1 2.9 2.9v1.5c0 .2-.1.3-.3.3H7.3c-.2 0-.3-.1-.3-.3v-1c0-.5-.3-.8-.8-.8H4.9c-.5 0-.8.3-.8.8v7.2c0 .5.3.8.8.8h1.3c.5 0 .8-.3.8-.8v-1.7H6c-.2 0-.3-.1-.3-.3v-2c0-.2.1-.3.3-.3h3.2c.2 0 .3.1.3.3v4.6c0 1.9-1 2.9-2.9 2.9H4.4c-1.9 0-2.9-1-2.9-2.9v-8.3zm18-.5c0 .2-.1.3-.3.3h-4.9v3.1H18c.2 0 .3.1.3.3v2c0 .2-.1.3-.3.3h-3.8v3h4.9c.2 0 .3.1.3.3v2c0 .2-.1.3-.3.3h-7.4c-.2 0-.3-.1-.3-.3v-13.4c0-.2.1-.3.3-.3h7.4c.2 0 .3.1.3.3v2.1zm8.9-2.3c.2 0 .3.1.3.3v2c0 .2-.1.3-.3.3h-2.3v11c0 .2-.1.3-.3.3h-2.1c-.2 0-.3-.1-.3-.3v-11H21c-.2 0-.3-.1-.3-.3v-2c0-.2.1-.3.3-.3h7.4zm15.9 0c.3 0 .4.2.3.5l-3.7 8.3v4.8c0 .3-.1.4-.4.4h-1.9c-.3 0-.4-.1-.4-.4v-4.8l-3.7-8.3c-.1-.3 0-.5.3-.5h2c.2 0 .4.1.5.3l2.2 5.1 2.2-5.1c.1-.2.2-.3.5-.3h2.1zm1.1 2.8c0-1.9 1-2.9 2.9-2.9h2.2c1.9 0 2.9 1 2.9 2.9v8.2c0 1.9-1 2.9-2.9 2.9h-2.2c-1.9 0-2.9-1-2.9-2.9v-8.2zm4.7 8.6c.5 0 .8-.3.8-.8v-7.2c0-.5-.3-.8-.8-.8h-1.3c-.5 0-.8.3-.8.8v7.2c0 .5.3.8.8.8h1.3zM63 194.9c.2 0 .4.2.4.4V206c0 1.9-1 2.9-2.9 2.9h-2.2c-1.9 0-2.9-1-2.9-2.9v-10.7c0-.2.2-.4.4-.4h1.9c.2 0 .4.2.4.4v10.2c0 .5.3.8.8.8h1c.5 0 .8-.3.8-.8v-10.2c0-.2.2-.4.4-.4H63zm10.4 6.9c0 1.2-.4 2-1.1 2.4l1 4.3c.1.2-.1.4-.3.4h-2c-.2 0-.3-.1-.3-.3l-1-3.9H68v3.9c0 .2-.1.3-.3.3h-2c-.2 0-.3-.1-.3-.3v-13.4c0-.2.1-.3.3-.3h4.8c1.9 0 2.9 1 2.9 2.9v4zm-3.4.3c.5 0 .8-.3.8-.8v-3c0-.5-.3-.8-.8-.8h-2v4.6h2zm18.5-2.2c0 .2-.1.3-.3.3h-1.9c-.2 0-.3-.1-.3-.3v-1.6c0-.5-.3-.8-.8-.8h-1.3c-.5 0-.8.3-.8.8v7.3c0 .5.3.8.8.8h1.3c.5 0 .8-.3.8-.8v-1.7c0-.2.1-.3.3-.3h1.9c.2 0 .3.1.3.3v2.2c0 1.9-1 2.9-2.9 2.9h-2.2c-1.9 0-2.9-1-2.9-2.9v-8.2c0-1.9 1-2.9 2.9-2.9h2.2c1.9 0 2.9 1 2.9 2.9v2zm2-2.2c0-1.9 1-2.9 2.9-2.9h2.2c1.9 0 2.9 1 2.9 2.9v8.2c0 1.9-1 2.9-2.9 2.9h-2.2c-1.9 0-2.9-1-2.9-2.9v-8.2zm4.7 8.6c.5 0 .8-.3.8-.8v-7.2c0-.5-.3-.8-.8-.8h-1.3c-.5 0-.8.3-.8.8v7.2c0 .5.3.8.8.8h1.3zm16.3-11.4c.3 0 .4.1.4.4v13.2c0 .3-.1.4-.4.4h-1.9c-.3 0-.4-.1-.4-.4v-7.9h-.1l-1.9 7.9c-.1.2-.2.3-.4.3h-1.2c-.2 0-.4-.1-.4-.3l-1.9-7.9h-.1v7.9c0 .3-.1.4-.4.4H101c-.3 0-.4-.1-.4-.4v-13.2c0-.3.1-.4.4-.4h2.6c.2 0 .4.1.4.3l2.2 8.9 2.2-8.9c.1-.2.2-.3.4-.3h2.7zm2.4.3c0-.2.1-.3.3-.3h4.8c1.9 0 2.9 1 2.9 2.9v3.9c0 1.9-1 2.9-2.9 2.9h-2.5v4c0 .2-.1.3-.3.3h-2c-.2 0-.3-.1-.3-.3v-13.4zm4.6 6.8c.5 0 .8-.3.8-.8v-2.9c0-.5-.3-.8-.8-.8h-2v4.5h2zm8.1 4.2h4c.2 0 .3.1.3.3v2c0 .2-.1.3-.3.3h-6.4c-.2 0-.3-.1-.3-.3v-13.4c0-.2.1-.3.3-.3h2.1c.2 0 .3.1.3.3v11.1zm14.1-9c0 .2-.1.3-.3.3h-4.9v3.1h3.8c.2 0 .3.1.3.3v2c0 .2-.1.3-.3.3h-3.8v3h4.9c.2 0 .3.1.3.3v2c0 .2-.1.3-.3.3H133c-.2 0-.3-.1-.3-.3v-13.4c0-.2.1-.3.3-.3h7.4c.2 0 .3.1.3.3v2.1zm11.5 11.2c.1.3 0 .5-.3.5h-2.1c-.2 0-.4-.1-.5-.3l-2.1-4.3-2.1 4.3c-.1.2-.2.3-.5.3h-2.1c-.3 0-.4-.2-.3-.5l3.4-6.7-3.2-6.4c-.1-.3 0-.5.3-.5h2.1c.2 0 .4.1.5.3l1.9 4 1.9-4c.1-.2.2-.3.5-.3h2.1c.3 0 .4.2.3.5l-3.2 6.4 3.4 6.7zm-139.7 7.7c.3 0 .4.1.4.4v13.2c0 .3-.1.4-.4.4h-1.9c-.3 0-.4-.1-.4-.4v-7.9h-.1l-1.9 7.9c-.1.2-.2.3-.4.3H6.6c-.2 0-.4-.1-.4-.3l-1.9-7.9h-.2v7.9c0 .3-.1.4-.4.4H1.9c-.3 0-.4-.1-.4-.4v-13.2c0-.3.1-.4.4-.4h2.6c.2 0 .4.1.4.3l2.2 8.9 2.2-8.9c.1-.2.2-.3.4-.3h2.8zm2.4 2.9c0-1.9 1-2.9 2.9-2.9H20c1.9 0 2.9 1 2.9 2.9v8.2c0 1.9-1 2.9-2.9 2.9h-2.2c-1.9 0-2.9-1-2.9-2.9V219zm4.7 8.5c.5 0 .8-.3.8-.8v-7.2c0-.5-.3-.8-.8-.8h-1.3c-.5 0-.8.3-.8.8v7.2c0 .5.3.8.8.8h1.3zm13.3-6.4c0 .2-.1.3-.3.3h-1.9c-.2 0-.3-.1-.3-.3v-1.6c0-.5-.3-.8-.8-.8h-1.3c-.5 0-.8.3-.8.8v7.3c0 .5.3.8.8.8h1.3c.5 0 .8-.3.8-.8v-1.7c0-.2.1-.3.3-.3h1.9c.2 0 .3.1.3.3v2.2c0 1.9-1 2.9-2.9 2.9h-2.2c-1.9 0-2.9-1-2.9-2.9V219c0-1.9 1-2.9 2.9-2.9H30c1.9 0 2.9 1 2.9 2.9v2.1zm10 1.9c0 1.2-.4 2-1.1 2.4l1 4.3c.1.2-.1.4-.3.4h-2c-.2 0-.3-.1-.3-.3l-1-3.9h-1.8v3.9c0 .2-.1.3-.3.3h-2c-.2 0-.3-.1-.3-.3v-13.4c0-.2.1-.3.3-.3h4.8c1.9 0 2.9 1 2.9 2.9v4zm-3.4.3c.5 0 .8-.3.8-.8v-3c0-.5-.3-.8-.8-.8h-2v4.6h2zm5.4-4.3c0-1.9 1-2.9 2.9-2.9H50c1.9 0 2.9 1 2.9 2.9v8.2c0 1.9-1 2.9-2.9 2.9h-2.2c-1.9 0-2.9-1-2.9-2.9V219zm4.7 8.5c.5 0 .8-.3.8-.8v-7.2c0-.5-.3-.8-.8-.8h-1.3c-.5 0-.8.3-.8.8v7.2c0 .5.3.8.8.8h1.3zm10.5-11.4c1.9 0 2.9 1 2.9 2.9v1.3c0 .2-.1.3-.3.3h-2c-.2 0-.3-.1-.3-.3v-.8c0-.5-.3-.8-.8-.8h-1.1c-.5 0-.8.3-.8.8v1.7l4.8 1.6c.3.1.5.4.5.7v3.8c0 1.9-1 2.9-2.9 2.9h-2.2c-1.9 0-2.9-1-2.9-2.9V226c0-.2.1-.3.3-.3h2c.2 0 .3.1.3.3v.8c0 .5.3.8.8.8h1.1c.5 0 .8-.3.8-.8v-2l-4.8-1.6c-.4-.1-.5-.4-.5-.7V219c0-1.9 1-2.9 2.9-2.9h2.2zm12.8 2.3c0 .2-.1.3-.3.3h-4.9v3.1h3.8c.2 0 .3.1.3.3v2c0 .2-.1.3-.3.3h-3.8v3h4.9c.2 0 .3.1.3.3v2c0 .2-.1.3-.3.3h-7.4c-.2 0-.3-.1-.3-.3v-13.4c0-.2.1-.3.3-.3h7.4c.2 0 .3.1.3.3v2.1zm9.9 4.6c0 1.2-.4 2-1.1 2.4l1 4.3c.1.2-.1.4-.3.4h-2c-.2 0-.3-.1-.3-.3l-1-3.9h-1.8v3.9c0 .2-.1.3-.3.3h-2c-.2 0-.3-.1-.3-.3v-13.4c0-.2.1-.3.3-.3h4.8c1.9 0 2.9 1 2.9 2.9v4zm-3.5.3c.5 0 .8-.3.8-.8v-3c0-.5-.3-.8-.8-.8h-2v4.6h2zm13.9-7.2c.3 0 .4.2.4.4l-3.2 13.2c-.1.2-.2.4-.4.4h-2c-.2 0-.4-.1-.4-.4l-3.2-13.2c-.1-.3.1-.4.4-.4h1.8c.2 0 .4.1.4.4l2 9 2-9c.1-.2.2-.4.4-.4h1.8zm2.3 14c-.2 0-.3-.1-.3-.3v-13.4c0-.2.1-.3.3-.3h2.1c.2 0 .3.1.3.3v13.4c0 .2-.1.3-.3.3h-2.1zm12.5-9c0 .2-.1.3-.3.3h-1.9c-.2 0-.3-.1-.3-.3v-1.6c0-.5-.3-.8-.8-.8h-1.3c-.5 0-.8.3-.8.8v7.3c0 .5.3.8.8.8h1.3c.5 0 .8-.3.8-.8v-1.7c0-.2.1-.3.3-.3h1.9c.2 0 .3.1.3.3v2.2c0 1.9-1 2.9-2.9 2.9h-2.2c-1.9 0-2.9-1-2.9-2.9V219c0-1.9 1-2.9 2.9-2.9h2.2c1.9 0 2.9 1 2.9 2.9v2.1zm10-2.7c0 .2-.1.3-.3.3h-4.9v3.1h3.8c.2 0 .3.1.3.3v2c0 .2-.1.3-.3.3h-3.8v3h4.9c.2 0 .3.1.3.3v2c0 .2-.1.3-.3.3h-7.4c-.2 0-.3-.1-.3-.3v-13.4c0-.2.1-.3.3-.3h7.4c.2 0 .3.1.3.3v2.1zm-109 33c-.2 0-.3-.1-.3-.3l-.7-2.5H4.3l-.6 2.5c0 .2-.1.3-.3.3h-2c-.2 0-.3-.1-.3-.3l3.3-13.4c0-.2.2-.3.3-.3h2.8c.2 0 .3.1.3.3l3.3 13.4c.1.2 0 .3-.3.3H9zm-2.8-10.6l-1.3 5.4h2.5l-1.2-5.4zm14.5 3.5c0 1.2-.4 2-1.1 2.4l1 4.3c.1.2-.1.4-.3.4h-2c-.2 0-.3-.1-.3-.3l-1-3.9h-1.8v3.9c0 .2-.1.3-.3.3h-2c-.2 0-.3-.1-.3-.3v-13.4c0-.2.1-.3.3-.3h4.8c1.9 0 2.9 1 2.9 2.9v4zm-3.4.3c.5 0 .8-.3.8-.8v-3c0-.5-.3-.8-.8-.8h-2v4.6h2zm13.4-2.2c0 .2-.1.3-.3.3h-1.9c-.2 0-.3-.1-.3-.3v-1.6c0-.5-.3-.8-.8-.8h-1.3c-.5 0-.8.3-.8.8v7.3c0 .5.3.8.8.8h1.3c.5 0 .8-.3.8-.8v-1.7c0-.2.1-.3.3-.3h1.9c.2 0 .3.1.3.3v2.2c0 1.9-1 2.9-2.9 2.9h-2.2c-1.9 0-2.9-1-2.9-2.9v-8.2c0-1.9 1-2.9 2.9-2.9h2.2c1.9 0 2.9 1 2.9 2.9v2zm7.3-4.7c0-.2.1-.3.3-.3h2.1c.2 0 .3.1.3.3V251c0 .2-.1.3-.3.3h-2.1c-.2 0-.3-.1-.3-.3v-5.3h-2.6v5.3c0 .2-.1.3-.3.3H33c-.2 0-.3-.1-.3-.3v-13.4c0-.2.1-.3.3-.3h2.1c.2 0 .3.1.3.3v5.4H38v-5.3zm5 13.7c-.2 0-.3-.1-.3-.3v-13.4c0-.2.1-.3.3-.3h2.1c.2 0 .3.1.3.3V251c0 .2-.1.3-.3.3H43zm11.5-14.1c.2 0 .3.1.3.3v2c0 .2-.1.3-.3.3h-2.3v11c0 .2-.1.3-.3.3h-2.1c-.2 0-.3-.1-.3-.3v-11h-2.3c-.2 0-.3-.1-.3-.3v-2c0-.2.1-.3.3-.3h7.3zm9.9 2.4c0 .2-.1.3-.3.3h-4.9v3.1H63c.2 0 .3.1.3.3v2c0 .2-.1.3-.3.3h-3.8v3h4.9c.2 0 .3.1.3.3v2c0 .2-.1.3-.3.3h-7.4c-.2 0-.3-.1-.3-.3v-13.4c0-.2.1-.3.3-.3h7.4c.2 0 .3.1.3.3v2.1zm10 2.7c0 .2-.1.3-.3.3h-1.9c-.2 0-.3-.1-.3-.3v-1.6c0-.5-.3-.8-.8-.8h-1.3c-.5 0-.8.3-.8.8v7.3c0 .5.3.8.8.8h1.3c.5 0 .8-.3.8-.8v-1.7c0-.2.1-.3.3-.3h1.9c.2 0 .3.1.3.3v2.2c0 1.9-1 2.9-2.9 2.9h-2.2c-1.9 0-2.9-1-2.9-2.9v-8.2c0-1.9 1-2.9 2.9-2.9h2.2c1.9 0 2.9 1 2.9 2.9v2zm9.3-5.1c.2 0 .3.1.3.3v2c0 .2-.1.3-.3.3h-2.3v11c0 .2-.1.3-.3.3H79c-.2 0-.3-.1-.3-.3v-11h-2.3c-.2 0-.3-.1-.3-.3v-2c0-.2.1-.3.3-.3h7.3zm9.5 0c.2 0 .4.2.4.4v10.7c0 1.9-1 2.9-2.9 2.9h-2.2c-1.9 0-2.9-1-2.9-2.9v-10.7c0-.2.2-.4.4-.4h2c.2 0 .4.2.4.4v10.2c0 .5.3.8.8.8h1c.5 0 .8-.3.8-.8v-10.2c0-.2.2-.4.4-.4h1.8zm10.4 7c0 1.2-.4 2-1.1 2.4l1 4.3c.1.2-.1.4-.3.4h-2c-.2 0-.3-.1-.3-.3l-1-3.9h-1.8v3.9c0 .2-.1.3-.3.3h-2c-.2 0-.3-.1-.3-.3v-13.4c0-.2.1-.3.3-.3h4.8c1.9 0 2.9 1 2.9 2.9v4zm-3.4.3c.5 0 .8-.3.8-.8v-3c0-.5-.3-.8-.8-.8h-2v4.6h2zm13.4-4.9c0 .2-.1.3-.3.3h-4.9v3.1h3.8c.2 0 .3.1.3.3v2c0 .2-.1.3-.3.3h-3.8v3h4.9c.2 0 .3.1.3.3v2c0 .2-.1.3-.3.3h-7.4c-.2 0-.3-.1-.3-.3v-13.4c0-.2.1-.3.3-.3h7.4c.2 0 .3.1.3.3v2.1z"/><path class="st5" d="M73.8 298.1h-9.5c-.2 0-.4.2-.4.4v4.7c0 .2.2.4.4.4H68v5.8s-.8.3-3.1.3c-2.7 0-6.5-1-6.5-9.3 0-8.4 4-9.5 7.7-9.5 3.2 0 4.6.6 5.5.8.3.1.5-.2.5-.4l1.1-4.5c0-.1 0-.3-.2-.3-.4-.3-2.5-1.5-8.1-1.5-6.4 0-12.9 2.7-12.9 15.7s7.5 14.9 13.7 14.9c5.2 0 8.4-2.2 8.4-2.2.1-.1.1-.3.1-.3v-14.5c.1-.3-.1-.5-.4-.5m49.1-11.5c0-.2-.2-.4-.4-.4h-5.4c-.2 0-.4.2-.4.4V297h-8.4v-10.4c0-.2-.2-.4-.4-.4h-5.4c-.2 0-.4.2-.4.4v28c0 .2.2.4.4.4h5.4c.2 0 .4-.2.4-.4v-12h8.4v12c0 .2.2.4.4.4h5.4c.2 0 .4-.2.4-.4v-28m-39 3.6c0-1.9-1.5-3.5-3.5-3.5-1.9 0-3.5 1.6-3.5 3.5s1.5 3.5 3.5 3.5 3.5-1.5 3.5-3.5m-.3 18.5v-12.9c0-.2-.2-.4-.4-.4h-5.3c-.2 0-.5.3-.5.5v18.5c0 .5.3.7.8.7H83c.5 0 .7-.3.7-.7-.1-1.1-.1-5-.1-5.7m59.6-13.4h-5.3c-.2 0-.4.2-.4.4v13.7s-1.4 1-3.3 1-2.4-.9-2.4-2.7v-12c0-.2-.2-.4-.4-.4H126c-.2 0-.4.2-.4.4v12.9c0 5.6 3.1 6.9 7.4 6.9 3.5 0 6.3-1.9 6.3-1.9s.1 1 .2 1.1c.1.1.2.2.4.2h3.4c.2 0 .4-.2.4-.4v-18.8c0-.2-.2-.4-.5-.4m12.5 15.2c-1.8-.1-3.1-.9-3.1-.9v-8.9s1.2-.8 2.7-.9c1.9-.2 3.8.4 3.8 5 0 4.8-.9 5.8-3.4 5.7zm2.1-15.8c-3 0-5.1 1.3-5.1 1.3v-9.5c0-.2-.2-.4-.4-.4h-5.4c-.2 0-.4.2-.4.4v28c0 .2.2.4.4.4h3.7c.2 0 .3-.1.4-.2.1-.2.2-1.3.2-1.3s2.2 2.1 6.4 2.1c4.9 0 7.7-2.5 7.7-11.1s-4.5-9.7-7.5-9.7m-58.8.6h-4V290c0-.2-.1-.3-.3-.3h-5.5c-.2 0-.3.1-.3.3v5.5s-2.7.7-2.9.7c-.2.1-.3.2-.3.4v3.4c0 .2.2.4.4.4h2.8v8.3c0 6.2 4.3 6.8 7.2 6.8 1.3 0 2.9-.4 3.2-.5.2-.1.3-.2.3-.4v-3.8c0-.2-.2-.4-.4-.4s-.8.1-1.5.1c-2 0-2.6-.9-2.6-2.1v-7.9h4c.2 0 .4-.2.4-.4v-4.3c-.1-.3-.3-.5-.5-.5" id="Layer_1_3_"/><path class="st6" d="M22.6 278.7c-12.2 0-22.1 9.9-22.1 22.1 0 9.8 6.3 18.1 15.1 21 1.1.2 1.5-.5 1.5-1.1v-4.1c-6.2 1.3-7.5-2.6-7.5-2.6-1-2.6-2.5-3.2-2.5-3.2-2-1.4.2-1.3.2-1.3 2.2.2 3.4 2.3 3.4 2.3 2 3.4 5.2 2.4 6.4 1.8.2-1.4.8-2.4 1.4-3-4.9-.6-10.1-2.5-10.1-10.9 0-2.4.9-4.4 2.3-5.9-.2-.6-1-2.8.2-5.9 0 0 1.9-.6 6.1 2.3 1.8-.5 3.7-.7 5.5-.7 1.9 0 3.8.3 5.5.7 4.2-2.9 6.1-2.3 6.1-2.3 1.2 3.1.4 5.3.2 5.9 1.4 1.6 2.3 3.5 2.3 5.9 0 8.5-5.2 10.4-10.1 10.9.8.7 1.5 2 1.5 4.1v6.1c0 .6.4 1.3 1.5 1.1 8.8-2.9 15.1-11.2 15.1-21 .2-12.3-9.7-22.2-22-22.2"/><path class="st6" d="M8.8 310.3c0 .1-.2.1-.4.1-.2-.1-.3-.2-.2-.3 0-.1.2-.1.4-.1s.2.1.2.3m1.1.9c-.1.1-.3.1-.5-.1-.1-.2-.2-.4-.1-.5.1-.1.3-.1.5.1s.2.4.1.5m.7 1.3c-.1.1-.4 0-.5-.2-.1-.2-.1-.4 0-.5.1-.1.4 0 .5.2.2.1.2.4 0 .5m1.3 1.4c-.1.1-.4.1-.6-.1-.2-.2-.2-.4-.1-.6.1-.1.4-.1.6.1.2.2.2.5.1.6m1.6.5c-.1.2-.3.3-.6.2-.3-.1-.4-.3-.4-.5.1-.2.3-.3.6-.2.3.1.5.3.4.5m1.9.2c0 .2-.2.3-.5.3s-.5-.1-.5-.3c0-.2.2-.3.5-.3s.5.1.5.3m1.8-.1c0 .2-.2.4-.4.4-.3 0-.5-.1-.5-.2 0-.2.2-.4.4-.4.2-.1.5.1.5.2"/><path class="st1" d="M165.3 201.6h74.9v247.1h-31.6"/><path class="st0" d="M997.4 332.5c1.4 0 2.1.7 2.1 2.1v9.1c0 1.4-.7 2.1-2.1 2.1H993v22.9c0 1.4-.7 2.1-2.1 2.1h-9.2c-1.4 0-2.1-.7-2.1-2.1v-23.2H949c-1.4 0-2.1-.7-2.1-2.1v-9.5c0-1 .2-1.7.7-2.5l27.3-44.2c.5-1 1.4-1.4 2.5-1.4h11.2c1.7 0 2.3 1.1 1.4 2.5l-26.7 44.2h16.1V320c0-1.4.7-2.1 2.1-2.1h9.2c1.4 0 2.1.7 2.1 2.1v12.5h4.6zm-76.1-46H913v14.3s-.7-.3-.5-.3h6.2c2.8 0 4.4 1.7 4.4 4.5v49.1c0 2.9-1.6 3.4-4.4 3.4h-6.2c-.2 0 .5.8.5.8v13.2h8.3c10 0 15.7-4.8 15.7-14.8v-54.4c0-10-5.7-15.8-15.7-15.8z"/><path class="st7" d="M698.5 380.8c1.6 0 3.1.6 4.4 1.7l.8-.7-.1-.1c-1.4-1.4-3.2-2.1-5.1-2.1-2.1 0-3.9.7-5.2 2-1.3 1.3-2 3.2-2 5.3 0 3.5 2.3 7.1 7.2 7.1 1.9 0 3.8-.7 5.1-2.1l.1-.1-.1-.1-.9-.7c-1.1 1.1-2.6 1.7-4.2 1.7-4 0-5.9-3-5.9-5.9 0-1.8.6-3.3 1.6-4.4 1.1-1.1 2.6-1.6 4.3-1.6zm10.4-1.1h-1.3v14h9.1v-1.3h-7.8v-12.7zm18.3 13.1c-3.9 0-5.8-3.1-5.8-6 0-1.8.6-3.3 1.6-4.4 1-1 2.4-1.6 4.1-1.6 4 0 5.8 3 5.8 6 .1 2.9-1.7 6-5.7 6zm0-13.3c-4.9 0-7.1 3.6-7.1 7.2 0 3.5 2.2 7.3 7.1 7.3 4.8 0 7.1-3.7 7.1-7.2 0-2.1-.7-4-2-5.3-1.3-1.3-3-2-5.1-2zm21.2 8.9c0 3-2.1 4.3-4.1 4.3-2 0-4.1-1.3-4.1-4.3v-8.7h-1.3v8.7c0 3.8 2.8 5.5 5.4 5.5 2.6 0 5.4-1.7 5.4-5.5v-8.7h-1.3v8.7zm10.9 4.1h-3.5V381h3.5c3.9 0 5.7 2.8 5.8 5.6 0 1.6-.5 3.2-1.6 4.3-1 1-2.5 1.6-4.2 1.6zm0-12.8h-4.8v14h4.8c2.1 0 3.9-.7 5.2-2 1.3-1.3 2-3.2 1.9-5.2 0-3.3-2.3-6.8-7.1-6.8zm-37.8-42.3s1.2-4.4-3.9-10.2l-.2-.2c-2.1-2.5-3.3-5.7-3.3-9.1 0-7.8 6.3-14.1 14.1-14.1h.3c7.8 0 14.1 6.3 14.1 14.1 0 3.3-1.2 6.5-3.3 9.1l-.2.2c-4.5 4.5-3.9 10.2-3.9 10.2 8.2-2.8 13.8-10.6 13.9-19.3.1-10.9-8.7-20.1-19.6-20.6h-2.4c-10.8.5-19.6 9.8-19.6 20.7.2 8.6 5.7 16.4 14 19.2zm28.1 16.9c.4-.2.9-.3 1.3-.4.5-.1 1-.2 1.5-.2l-.1-.4c0-.3-.1-.6-.3-.9l-.2-.5c-.1-.2-.2-.3-.2-.4l-.2-.4c-.5-.1-1.1-.2-1.6-.4-.5-.1-1-.3-1.4-.5-.8-.4-1.6-.8-2-1.2-.5-.4-.6-.8-.6-1.2 0-.2.1-.4.3-.5.2-.2.4-.3.6-.4 0 0-.2-.1-.5-.3-.1-.1-.3-.2-.5-.3l-.6-.3c-.4-.2-.8-.4-1.1-.5l-.5-.2c-.4.1-.8.1-1.2.1H741c-.9-.1-1.8-.2-2.5-.4-.4-.1-.7-.2-1-.4-.3-.1-.6-.3-.8-.4-.4-.3-.7-.6-.7-.9l-.6-.1c-.4-.1-1.2-.2-1.7-.2 0 .1-.1.2-.1.3l-.1.6c-.3 1.3.5 2.5 1.7 2.9 3 .9 5.3 2.3 5.9 4.1 1.3 3.6-4.3 7.1-12.7 7.1-8.5 0-14.1-3.5-12.7-7.1.6-1.7 2.8-3.1 5.7-4 1.3-.4 2-1.7 1.8-3l-.2-.9c-.3 0-.7.1-1.1.1-.5.1-1 .1-1.4.2l-.6.1c0 .3-.2.6-.6.9-.2.1-.4.3-.7.4-.3.1-.6.3-1 .4l-1.2.3c-.4.1-.9.1-1.3.2-.9.1-1.8.1-2.6 0l-.1.1c-.1 0-.2.1-.4.2-.3.1-.7.3-1.1.5-.4.2-.8.4-1.1.6l-.3.2-.1.1c.6.3.9.6.9 1 .1.4-.1.8-.4 1.3-.2.2-.5.4-.8.7-.3.2-.7.4-1.1.6-.8.4-1.9.7-3 .9l-.2.4-.3.9c0 .3-.1.7-.1.9v.4c1.2 0 2.2.2 3 .5.9.3 1.5.8 1.9 1.3.3.6.5 1.2.2 1.9-.2.7-.8 1.5-1.7 2.2l.1.1.4.3c.4.3.8.6 1.4.9l1.6.9.6.3.2.1c1.3-.6 2.7-.9 4.1-1 .7-.1 1.4-.1 2.1-.1.7 0 1.4.1 2 .2.6.2 1.3.3 1.8.6.6.2 1 .5 1.5.8.9.6 1.6 1.5 1.9 2.5h1.2c.7 0 1.7.1 2.6 0 1 0 1.9 0 2.6-.1l1.2-.1c.1-.5.3-1 .6-1.4.1-.2.3-.4.5-.6l.6-.6c.4-.4.9-.6 1.4-.9.5-.2 1.1-.5 1.7-.6.7-.1 1.3-.3 1.9-.3.7-.1 1.4 0 2 0 1.4.1 2.9.4 4.2.9 0 0 .3-.2.7-.4.4-.2 1-.5 1.5-.9.5-.3 1-.7 1.3-.9l.5-.5c-1-.7-1.5-1.4-1.9-2.1-.2-.3-.2-.7-.2-1 0-.3 0-.6.2-.9.1-.4.8-.9 1.5-1.2z"/><linearGradient id="SVGID_1_" gradientUnits="userSpaceOnUse" x1="-297.948" y1="693.849" x2="-297.656" y2="693.849" gradientTransform="scale(-229.5344 229.5344) rotate(81.87 248.684 517.51)"><stop offset="0" stop-color="#41b4e7"/><stop offset="1" stop-color="#3b5ca9"/></linearGradient><path class="st8" d="M735.5 324.6c2-1.6 3.3-4 3.3-6.6 0-4.9-4.7-8.9-10.4-8.9s-10.4 4-10.4 8.9c0 2.6 1.2 4.9 3.3 6.6 2.5 2 4.6 6.2 4.7 10.7.1 5-.2 10.8-.4 13.7-2.7.4-4.6 1.3-4.6 2.3 0 1.4 3.3 3 7.4 3 4.1 0 7.4-1.6 7.4-3 0-1-1.9-1.9-4.6-2.3-.2-2.9-.6-8.7-.4-13.7.1-4.5 2.1-8.6 4.7-10.7z"/><path class="st7" d="M666.3 425v-16.1h11.6v2.9h-8.5v4.4h8.1v2.8h-8.1v6h-3.1zm18.7-7.9c.1 2.6 1.5 5.5 5.3 5.5s5.2-2.9 5.3-5.5c0-2.7-1.5-5.7-5.3-5.7-3.8-.1-5.4 3-5.3 5.7zm13.5-.1c0 4.2-2.6 8.3-8.3 8.3-5.7 0-8.3-4.1-8.3-8.3 0-4.2 2.7-8.5 8.3-8.5 5.6 0 8.4 4.3 8.3 8.5zm19.1-8.1v9.2c0 4.8-2.9 7.2-7 7.2-3.9 0-7.2-2.3-7.2-7.2v-9.2h3v9.2c0 2.9 1.7 4.4 4.2 4.4s3.9-1.7 3.9-4.4v-9.2h3.1zm16.3-.1h3V425H735l-8.5-10.9V425h-3v-16.1h2.5l7.9 10v-10.1zm11.3 13.2h3.3c3.7 0 5.1-2.7 5-5.3-.1-2.5-1.5-5-5-5h-3.3V422zm11.4-5.2c.1 4.1-2.4 8.2-8.1 8.2h-6.3v-16.1h6.3c5.5 0 8 3.9 8.1 7.9zm7.7-5.1v5.2h4.6c1.9 0 2.8-1.3 2.8-2.6s-.8-2.6-2.8-2.6h-4.6zm11.2 13.3h-3.6l-4.7-5.4h-2.9v5.4h-3v-16.1h7.7c3.8 0 5.8 2.6 5.8 5.3 0 2.2-1 4.4-4.1 5.1l4.9 5.5-.1.2zm10.8-9.5l4.3-6.6h3.7v.1l-6.4 9.3v6.6h-3v-6.6l-6.2-9.3v-.1h3.6l4 6.6z"/><path d="M669.7 458.7h-1c-.2-.3-.4-.7-.6-1.2-.2-.5-.4-1-.6-1.6-.2-.6-.3-1.2-.4-1.9-.1-.7-.2-1.4-.2-2.1 0-.7.1-1.4.2-2.1.1-.7.2-1.3.4-1.9.2-.6.4-1.1.6-1.6.2-.5.4-.9.6-1.2h.8c-.1.2-.3.5-.5.9s-.4.9-.6 1.4c-.2.6-.4 1.2-.5 1.9-.1.7-.2 1.5-.2 2.4 0 .9.1 1.7.2 2.4s.3 1.4.5 1.9c.2.6.4 1 .6 1.4.5.8.6 1.1.7 1.3zm2-12.8h.8v4.2c.2-.3.5-.6.9-.8s.9-.4 1.5-.4c.4 0 .8.1 1.2.2.4.1.7.4.9.6.3.3.5.7.6 1.1.1.4.2 1 .2 1.6 0 1.3-.3 2.2-1 2.9-.7.7-1.7 1.1-3 1.1-.4 0-.8 0-1.2-.1-.4-.1-.7-.2-1-.3v-10.1zm.9 9.6c.2.1.4.1.7.2h.8c.4 0 .7-.1 1.1-.2.3-.1.6-.3.9-.6.3-.3.5-.6.6-1 .2-.4.2-.9.2-1.4 0-.9-.2-1.5-.5-2s-.9-.7-1.6-.7c-.2 0-.5 0-.7.1-.3.1-.5.2-.7.4-.2.2-.4.4-.6.7s-.2.7-.2 1.1v3.4zm11.4-3.9c0-.6-.1-1.1-.4-1.4-.3-.3-.7-.4-1.3-.4-.4 0-.7 0-1 .1-.3.1-.6.1-.8.2 0-.1-.1-.2-.1-.4v-.5c.2-.1.5-.1.9-.2s.7-.1 1.1-.1c.9 0 1.6.2 2 .6.4.4.7 1 .7 1.9v4.8c-.3.1-.7.1-1.2.2s-.9.1-1.3.1c-.9 0-1.6-.2-2.1-.5s-.8-.9-.8-1.7c0-.4.1-.7.2-1 .1-.3.3-.5.6-.8.3-.2.6-.4.9-.5.4-.1.8-.2 1.2-.2h.9c.2 0 .4 0 .6.1v-.3zm0 1.2c-.2 0-.4 0-.6-.1h-.7c-.7 0-1.3.1-1.6.4-.4.3-.6.6-.6 1.1 0 .3.1.6.2.8.1.2.3.3.5.4.2.1.4.2.6.2h1.5c.3 0 .5-.1.8-.1v-2.7zm3.1 2.6c.2.1.5.2.8.2.3.1.6.1.9.1.6 0 1-.1 1.3-.4.3-.2.5-.6.5-.9 0-.3 0-.5-.1-.6-.1-.2-.2-.3-.4-.4l-.6-.3c-.2-.1-.4-.1-.6-.2-.2-.1-.5-.2-.7-.3-.2-.1-.4-.2-.6-.4s-.3-.3-.4-.5c-.1-.2-.2-.5-.2-.8 0-.6.2-1 .6-1.4.4-.4 1.1-.5 1.9-.5.4 0 .7 0 1.1.1.3.1.6.1.8.2 0 .3-.1.5-.2.8-.2-.1-.5-.1-.8-.2-.3-.1-.6-.1-1-.1-.6 0-1 .1-1.2.3-.2.2-.4.5-.4.8 0 .2 0 .3.1.5l.3.3c.1.1.3.2.5.2.2.1.4.1.6.2.3.1.5.2.8.3.3.1.5.2.7.4.2.2.4.4.5.6.1.2.2.6.2.9 0 .3-.1.6-.2.9-.1.3-.3.5-.6.7-.2.2-.5.3-.9.4-.3.1-.7.2-1.1.2-.5 0-.9 0-1.2-.1-.4-.1-.6-.1-.9-.2.3-.3.4-.6.5-.8zm7.2-2.5c0 1 .2 1.7.7 2.1.4.5 1.1.7 2 .7.4 0 .7 0 1-.1.3-.1.6-.1.9-.2 0 .1.1.2.1.4s0 .3.1.4c-.3.1-.6.2-1 .3-.4.1-.8.1-1.2.1-.6 0-1.2-.1-1.6-.3-.4-.2-.8-.4-1.1-.8-.3-.3-.5-.7-.6-1.2-.1-.5-.2-1-.2-1.5s.1-1 .2-1.5.3-.9.6-1.2c.3-.3.6-.6 1-.8.4-.2.9-.3 1.5-.3.5 0 .9.1 1.3.2.4.2.7.4.9.7.2.3.4.6.6 1 .1.4.2.8.2 1.3v.6h-5.4zm4.3-.8c0-.3 0-.6-.1-.9-.1-.3-.2-.5-.4-.7-.2-.2-.4-.4-.6-.5-.3-.1-.6-.2-.9-.2-.7 0-1.2.2-1.5.6-.4.4-.6 1-.7 1.7h4.2zm7.8-6.2h.8v10.2c-.3.1-.7.2-1.1.2-.4.1-.9.1-1.4.1-.5 0-1-.1-1.5-.2s-.8-.3-1.2-.6c-.3-.3-.6-.7-.8-1.1-.2-.5-.3-1-.3-1.7 0-.6.1-1.2.3-1.7.2-.5.4-.9.7-1.2.3-.3.7-.6 1.1-.8s.9-.3 1.5-.3c.3 0 .6 0 .9.1.3.1.6.1.7.2v-3.2zm0 4.2c-.2-.1-.4-.1-.7-.2-.3-.1-.6-.1-.9-.1-.4 0-.8.1-1.2.2-.3.2-.6.4-.8.6-.2.3-.4.6-.5 1-.1.4-.2.8-.2 1.2 0 1 .2 1.7.7 2.1.5.4 1.1.7 2 .7h.9c.3 0 .5-.1.7-.1v-5.4zm9.8 6.4c-.5 0-1-.1-1.4-.3-.4-.2-.7-.5-1-.8-.3-.3-.5-.7-.6-1.2-.1-.5-.2-1-.2-1.5s.1-1 .2-1.5.3-.9.6-1.2c.3-.3.6-.6 1-.8.4-.2.9-.3 1.4-.3.5 0 1 .1 1.4.3.4.2.7.5 1 .8.3.3.5.7.6 1.2.1.5.2 1 .2 1.5s-.1 1-.2 1.5-.3.9-.6 1.2c-.3.3-.6.6-1 .8-.4.2-.9.3-1.4.3zm0-.8c.8 0 1.3-.3 1.7-.8.4-.5.6-1.3.6-2.2s-.2-1.6-.6-2.2c-.4-.5-.9-.8-1.7-.8-.8 0-1.3.3-1.7.8-.4.5-.6 1.3-.6 2.2s.2 1.6.6 2.2c.4.5.9.8 1.7.8zm5.3-6.6h.8v1.3c.1-.2.2-.3.4-.5l.5-.5c.2-.1.4-.3.7-.3s.6-.1.9-.1c.8 0 1.4.2 1.8.7.4.5.6 1.2.6 2.1v4.6h-.8v-4.3c0-.8-.1-1.4-.4-1.7-.3-.3-.6-.5-1.1-.5-.3 0-.6.1-.9.2-.3.1-.5.3-.8.6-.2.2-.4.6-.5.9-.1.4-.2.8-.2 1.3v3.6h-.8v-7.4zm16.5-3.2h.8v10.2c-.3.1-.7.2-1.1.2-.4.1-.9.1-1.4.1-.5 0-1-.1-1.5-.2s-.8-.3-1.2-.6c-.3-.3-.6-.7-.8-1.1-.2-.5-.3-1-.3-1.7 0-.6.1-1.2.3-1.7.2-.5.4-.9.7-1.2.3-.3.7-.6 1.1-.8.4-.2.9-.3 1.5-.3.3 0 .6 0 .9.1.3.1.6.1.7.2v-3.2zm0 4.2c-.2-.1-.4-.1-.7-.2-.3-.1-.6-.1-.9-.1-.4 0-.8.1-1.2.2-.3.2-.6.4-.8.6-.2.3-.4.6-.5 1-.1.4-.2.8-.2 1.2 0 1 .2 1.7.7 2.1.5.4 1.1.7 2 .7h.9c.3 0 .5-.1.7-.1v-5.4zm4 2.8c0 1 .2 1.7.7 2.1.4.5 1.1.7 2 .7.4 0 .7 0 1-.1.3-.1.6-.1.9-.2 0 .1.1.2.1.4s0 .3.1.4c-.3.1-.6.2-1 .3-.4.1-.8.1-1.2.1-.6 0-1.2-.1-1.6-.3-.4-.2-.8-.4-1.1-.8s-.5-.7-.6-1.2c-.1-.5-.2-1-.2-1.5s.1-1 .2-1.5.3-.9.6-1.2.6-.6 1-.8c.4-.2.9-.3 1.5-.3.5 0 .9.1 1.3.2.4.2.7.4.9.7.2.3.4.6.6 1 .1.4.2.8.2 1.3v.6H742zm4.3-.8c0-.3 0-.6-.1-.9-.1-.3-.2-.5-.4-.7-.2-.2-.4-.4-.6-.5-.3-.1-.6-.2-.9-.2-.7 0-1.2.2-1.5.6-.4.4-.6 1-.7 1.7h4.2zm2.8 3.3c.2.1.5.2.8.2.3.1.6.1.9.1.6 0 1-.1 1.3-.4.3-.2.5-.6.5-.9 0-.3 0-.5-.1-.6-.1-.2-.2-.3-.4-.4l-.6-.3c-.2-.1-.4-.1-.6-.2-.2-.1-.5-.2-.7-.3-.2-.1-.4-.2-.6-.4s-.3-.3-.4-.5c-.1-.2-.2-.5-.2-.8 0-.6.2-1 .6-1.4.4-.4 1.1-.5 1.9-.5.4 0 .7 0 1.1.1.3.1.6.1.8.2 0 .3-.1.5-.2.8-.2-.1-.5-.1-.8-.2-.3-.1-.6-.1-1-.1-.6 0-1 .1-1.2.3-.2.2-.4.5-.4.8 0 .2 0 .3.1.5l.3.3c.1.1.3.2.5.2.2.1.4.1.6.2.3.1.5.2.8.3.3.1.5.2.7.4.2.2.4.4.5.6.1.2.2.6.2.9 0 .3-.1.6-.2.9-.1.3-.3.5-.6.7-.2.2-.5.3-.9.4-.3.1-.7.2-1.1.2-.5 0-.9 0-1.2-.1-.4-.1-.6-.1-.9-.2.3-.3.4-.6.5-.8zm7-5.5h-.9v-.8h1.8v7.2h-.8v-6.4zm-.5-2.5v-1.2h1.2v1.2h-1.2zm3.9 1.7h.8v1.2c.2-.3.5-.6.8-.9.3-.2.8-.4 1.3-.4h.3v.9h-.3c-.6 0-1.2.2-1.5.6-.4.4-.6 1.1-.6 2v3.7h-.8v-7.1zm5.4 3.8c0 1 .2 1.7.7 2.1.4.5 1.1.7 2 .7.4 0 .7 0 1-.1.3-.1.6-.1.9-.2 0 .1.1.2.1.4s0 .3.1.4c-.3.1-.6.2-1 .3-.4.1-.8.1-1.2.1-.6 0-1.2-.1-1.6-.3-.4-.2-.8-.4-1.1-.8-.3-.3-.5-.7-.6-1.2-.1-.5-.2-1-.2-1.5s.1-1 .2-1.5.3-.9.6-1.2c.3-.3.6-.6 1-.8.4-.2.9-.3 1.5-.3.5 0 .9.1 1.3.2.4.2.7.4.9.7.2.3.4.6.6 1 .1.4.2.8.2 1.3v.6h-5.4zm4.2-.8c0-.3 0-.6-.1-.9-.1-.3-.2-.5-.4-.7-.2-.2-.4-.4-.6-.5-.3-.1-.6-.2-.9-.2-.7 0-1.2.2-1.5.6-.4.4-.6 1-.7 1.7h4.2zm7.9-6.2h.8v10.2c-.3.1-.7.2-1.1.2-.4.1-.9.1-1.4.1-.5 0-1-.1-1.5-.2s-.8-.3-1.2-.6c-.3-.3-.6-.7-.8-1.1-.2-.5-.3-1-.3-1.7 0-.6.1-1.2.3-1.7.2-.5.4-.9.7-1.2.3-.3.7-.6 1.1-.8.4-.2.9-.3 1.5-.3.3 0 .6 0 .9.1.3.1.6.1.7.2v-3.2zm0 4.2c-.2-.1-.4-.1-.7-.2s-.6-.1-.9-.1c-.4 0-.8.1-1.2.2-.3.2-.6.4-.8.6-.2.3-.4.6-.5 1-.1.4-.2.8-.2 1.2 0 1 .2 1.7.7 2.1.5.4 1.1.7 2 .7h.9c.3 0 .5-.1.7-.1v-5.4zm6.3-3.9h.9l-3.5 10.2h-.9l3.5-10.2zm6.9 9.3c0 .1.1.2.1.4s.1.3.1.4c-.2.1-.5.2-.8.2-.3.1-.6.1-1 .1-1.2 0-2.1-.3-2.7-1-.6-.6-.9-1.6-.9-2.8 0-.5.1-1 .2-1.5.2-.5.4-.9.7-1.2.3-.3.7-.6 1.1-.8.4-.2.9-.3 1.5-.3.4 0 .7 0 1 .1.3.1.6.1.8.2v.4c0 .2-.1.3-.1.4-.2-.1-.4-.1-.7-.2-.3 0-.6-.1-.9-.1-.4 0-.8.1-1.1.2-.3.1-.6.4-.8.6-.2.3-.4.6-.5.9-.1.4-.2.8-.2 1.2 0 1 .2 1.8.7 2.2.5.5 1.1.7 2 .7.3 0 .6 0 .8-.1.2.1.5 0 .7 0zm1.9-6.4h.8v4.1c0 .5.1.9.2 1.3.1.3.3.6.5.8.2.2.5.3.7.4.3.1.6.1 1 .1h.8c.2 0 .5-.1.7-.1v-6.4h.8v7c-.3.1-.7.2-1.2.2-.4.1-.9.1-1.3.1s-.9 0-1.3-.1-.7-.2-1-.5c-.3-.2-.5-.6-.7-1-.2-.4-.3-1-.3-1.7v-4.2zm8.2 0h.8v1.2c.2-.3.5-.6.8-.9.3-.2.8-.4 1.3-.4h.3v.9h-.3c-.6 0-1.2.2-1.5.6-.4.4-.6 1.1-.6 2v3.7h-.8v-7.1zm5 0h.8v1.2c.2-.3.5-.6.8-.9.3-.2.8-.4 1.3-.4h.3v.9h-.3c-.6 0-1.2.2-1.5.6-.4.4-.6 1.1-.6 2v3.7h-.8v-7.1zm5.3 3.8c0 1 .2 1.7.7 2.1.4.5 1.1.7 2 .7.4 0 .7 0 1-.1.3-.1.6-.1.9-.2 0 .1.1.2.1.4s0 .3.1.4c-.3.1-.6.2-1 .3-.4.1-.8.1-1.2.1-.6 0-1.2-.1-1.6-.3s-.8-.4-1.1-.8c-.3-.3-.5-.7-.6-1.2-.1-.5-.2-1-.2-1.5s.1-1 .2-1.5.3-.9.6-1.2c.3-.3.6-.6 1-.8.4-.2.9-.3 1.5-.3.5 0 .9.1 1.3.2.4.2.7.4.9.7.2.3.4.6.6 1 .1.4.2.8.2 1.3v.6h-5.4zm4.3-.8c0-.3 0-.6-.1-.9-.1-.3-.2-.5-.4-.7-.2-.2-.4-.4-.6-.5-.3-.1-.6-.2-.9-.2-.7 0-1.2.2-1.5.6-.4.4-.6 1-.7 1.7h4.2zm3-3h.8v1.3c.1-.2.2-.3.4-.5l.5-.5c.2-.1.4-.3.7-.3s.6-.1.9-.1c.8 0 1.4.2 1.8.7.4.5.6 1.2.6 2.1v4.6h-.8v-4.3c0-.8-.1-1.4-.4-1.7-.3-.3-.6-.5-1.1-.5-.3 0-.6.1-.9.2-.3.1-.5.3-.8.6-.2.2-.4.6-.5.9-.1.4-.2.8-.2 1.3v3.6h-.8v-7.4zm8.4.8H825v-.8h1.2v-1.4l.9-.9h.1v2.2h2v.8h-2v4.7c0 .2 0 .4.1.6.1.1.1.2.2.3.1.1.2.1.3.1h.4c.3 0 .6 0 .9-.1.1.2.1.5.1.8-.3.1-.7.2-1.2.2s-1-.1-1.3-.4c-.3-.3-.5-.8-.5-1.4v-4.7zm7.8 5.5c.2.1.5.2.8.2.3.1.6.1.9.1.6 0 1-.1 1.3-.4.3-.2.5-.6.5-.9 0-.3 0-.5-.1-.6-.1-.2-.2-.3-.4-.4l-.6-.3c-.2-.1-.4-.1-.6-.2-.2-.1-.5-.2-.7-.3-.2-.1-.4-.2-.6-.4s-.3-.3-.4-.5c-.1-.2-.2-.5-.2-.8 0-.6.2-1 .6-1.4.4-.4 1.1-.5 1.9-.5.4 0 .7 0 1.1.1.3.1.6.1.8.2 0 .3-.1.5-.2.8-.2-.1-.5-.1-.8-.2-.3-.1-.6-.1-1-.1-.6 0-1 .1-1.2.3-.2.2-.4.5-.4.8 0 .2 0 .3.1.5l.3.3c.1.1.3.2.5.2.2.1.4.1.6.2.3.1.5.2.8.3.3.1.5.2.7.4.2.2.4.4.5.6s.2.6.2.9c0 .3-.1.6-.2.9-.1.3-.3.5-.6.7-.2.2-.5.3-.9.4-.3.1-.7.2-1.1.2-.5 0-.9 0-1.2-.1-.4-.1-.6-.1-.9-.2.3-.3.4-.6.5-.8zm6.9-5.5h-1.2v-.8h1.2v-1.4l.9-.9h.1v2.2h2v.8h-2v4.7c0 .2 0 .4.1.6.1.1.1.2.2.3.1.1.2.1.3.1h.4c.3 0 .6 0 .9-.1.1.2.1.5.1.8-.3.1-.7.2-1.2.2s-1-.1-1.3-.4c-.3-.3-.5-.8-.5-1.4v-4.7zm8.5 1.7c0-.6-.1-1.1-.4-1.4-.3-.3-.7-.4-1.3-.4-.4 0-.7 0-1 .1-.3.1-.6.1-.8.2 0-.1-.1-.2-.1-.4v-.5c.2-.1.5-.1.9-.2s.7-.1 1.1-.1c.9 0 1.6.2 2 .6.4.4.7 1 .7 1.9v4.8c-.3.1-.7.1-1.2.2s-.9.1-1.3.1c-.9 0-1.6-.2-2.1-.5s-.8-.9-.8-1.7c0-.4.1-.7.2-1 .1-.3.3-.5.6-.8.3-.2.6-.4.9-.5.4-.1.8-.2 1.2-.2h.9c.2 0 .4 0 .6.1v-.3zm0 1.2c-.2 0-.4 0-.6-.1h-.7c-.7 0-1.3.1-1.6.4-.4.3-.6.6-.6 1.1 0 .3.1.6.2.8.1.2.3.3.5.4.2.1.4.2.6.2h1.5c.3 0 .5-.1.8-.1v-2.7zm3.6-2.9h-1.2v-.8h1.2v-1.4l.9-.9h.1v2.2h2v.8h-2v4.7c0 .2 0 .4.1.6.1.1.1.2.2.3.1.1.2.1.3.1h.4c.3 0 .6 0 .9-.1.1.2.1.5.1.8-.3.1-.7.2-1.2.2s-1-.1-1.3-.4c-.3-.3-.5-.8-.5-1.4v-4.7zm5.1 3c0 1 .2 1.7.7 2.1.4.5 1.1.7 2 .7.4 0 .7 0 1-.1.3-.1.6-.1.9-.2 0 .1.1.2.1.4s0 .3.1.4c-.3.1-.6.2-1 .3-.4.1-.8.1-1.2.1-.6 0-1.2-.1-1.6-.3-.4-.2-.8-.4-1.1-.8-.3-.3-.5-.7-.6-1.2-.1-.5-.2-1-.2-1.5s.1-1 .2-1.5.3-.9.6-1.2c.3-.3.6-.6 1-.8.4-.2.9-.3 1.5-.3.5 0 .9.1 1.3.2.4.2.7.4.9.7.2.3.4.6.6 1 .1.4.2.8.2 1.3v.6h-5.4zm4.2-.8c0-.3 0-.6-.1-.9-.1-.3-.2-.5-.4-.7-.2-.2-.4-.4-.6-.5-.3-.1-.6-.2-.9-.2-.7 0-1.2.2-1.5.6-.4.4-.6 1-.7 1.7h4.2zm2.5 6.6c.1-.2.3-.5.5-.9s.4-.9.6-1.4c.2-.6.4-1.2.5-1.9.1-.7.2-1.5.2-2.4 0-.9-.1-1.7-.2-2.4s-.3-1.4-.5-1.9c-.2-.6-.4-1-.6-1.4-.2-.4-.4-.7-.5-.9h.8c.2.3.4.7.6 1.2.2.5.4 1 .6 1.6.2.6.3 1.2.4 1.9.1.7.2 1.4.2 2.1 0 .7-.1 1.4-.2 2.1-.1.7-.2 1.3-.4 1.9-.2.6-.4 1.1-.6 1.6-.2.5-.4.8-.6 1.2h-.7c-.1 0-.1-.4-.1-.4zM667.3 195.2c0-.2.1-.3.3-.3h4.8c1.9 0 2.9 1 2.9 2.9v8.2c0 1.9-1 2.9-2.9 2.9h-4.8c-.2 0-.3-.1-.3-.3v-13.4zm4.6 11c.5 0 .8-.3.8-.8v-7.1c0-.5-.3-.8-.8-.8h-1.8v8.7h1.8zm13.4-9c0 .2-.1.3-.3.3h-4.9v3.1h3.8c.2 0 .3.1.3.3v2c0 .2-.1.3-.3.3h-3.8v3h4.9c.2 0 .3.1.3.3v2c0 .2-.1.3-.3.3h-7.4c-.2 0-.3-.1-.3-.3v-13.4c0-.2.1-.3.3-.3h7.4c.2 0 .3.1.3.3v2.1zm2-2c0-.2.1-.3.3-.3h4.8c1.9 0 2.9 1 2.9 2.9v3.9c0 1.9-1 2.9-2.9 2.9h-2.5v4c0 .2-.1.3-.3.3h-2c-.2 0-.3-.1-.3-.3v-13.4zm4.6 6.8c.5 0 .8-.3.8-.8v-2.9c0-.5-.3-.8-.8-.8h-2v4.5h2zm8.2 4.2h4c.2 0 .3.1.3.3v2c0 .2-.1.3-.3.3h-6.4c-.2 0-.3-.1-.3-.3v-13.4c0-.2.1-.3.3-.3h2.1c.2 0 .3.1.3.3v11.1zm5.7-8.5c0-1.9 1-2.9 2.9-2.9h2.2c1.9 0 2.9 1 2.9 2.9v8.2c0 1.9-1 2.9-2.9 2.9h-2.2c-1.9 0-2.9-1-2.9-2.9v-8.2zm4.6 8.6c.5 0 .8-.3.8-.8v-7.2c0-.5-.3-.8-.8-.8h-1.3c-.5 0-.8.3-.8.8v7.2c0 .5.3.8.8.8h1.3zm13.3-11.4c.3 0 .4.2.3.5l-3.7 8.3v4.8c0 .3-.1.4-.4.4H718c-.3 0-.4-.1-.4-.4v-4.8l-3.7-8.3c-.1-.3 0-.5.3-.5h2c.2 0 .4.1.5.3l2.2 5.1 2.2-5.1c.1-.2.2-.3.5-.3h2.1zm14.6 5c0 .2-.1.3-.3.3h-1.9c-.2 0-.3-.1-.3-.3v-1.6c0-.5-.3-.8-.8-.8h-1.3c-.5 0-.8.3-.8.8v7.3c0 .5.3.8.8.8h1.3c.5 0 .8-.3.8-.8v-1.7c0-.2.1-.3.3-.3h1.9c.2 0 .3.1.3.3v2.2c0 1.9-1 2.9-2.9 2.9h-2.2c-1.9 0-2.9-1-2.9-2.9v-8.2c0-1.9 1-2.9 2.9-2.9h2.2c1.9 0 2.9 1 2.9 2.9v2zm2-2.2c0-1.9 1-2.9 2.9-2.9h2.2c1.9 0 2.9 1 2.9 2.9v8.2c0 1.9-1 2.9-2.9 2.9h-2.2c-1.9 0-2.9-1-2.9-2.9v-8.2zm4.7 8.6c.5 0 .8-.3.8-.8v-7.2c0-.5-.3-.8-.8-.8h-1.3c-.5 0-.8.3-.8.8v7.2c0 .5.3.8.8.8h1.3zm16.3-11.4c.3 0 .4.1.4.4v13.2c0 .3-.1.4-.4.4h-1.9c-.3 0-.4-.1-.4-.4v-7.9h-.1l-1.9 7.9c-.1.2-.2.3-.4.3h-1.2c-.2 0-.4-.1-.4-.3l-1.9-7.9h-.1v7.9c0 .3-.1.4-.4.4h-1.8c-.3 0-.4-.1-.4-.4v-13.2c0-.3.1-.4.4-.4h2.6c.2 0 .4.1.4.3l2.2 8.9 2.2-8.9c.1-.2.2-.3.4-.3h2.7zm2.4.3c0-.2.1-.3.3-.3h4.8c1.9 0 2.9 1 2.9 2.9v3.9c0 1.9-1 2.9-2.9 2.9h-2.5v4c0 .2-.1.3-.3.3h-2c-.2 0-.3-.1-.3-.3v-13.4zm4.6 6.8c.5 0 .8-.3.8-.8v-2.9c0-.5-.3-.8-.8-.8h-2v4.5h2zm8.2 4.2h4c.2 0 .3.1.3.3v2c0 .2-.1.3-.3.3h-6.4c-.2 0-.3-.1-.3-.3v-13.4c0-.2.1-.3.3-.3h2.1c.2 0 .3.1.3.3v11.1zm14-9c0 .2-.1.3-.3.3h-4.9v3.1h3.8c.2 0 .3.1.3.3v2c0 .2-.1.3-.3.3h-3.8v3h4.9c.2 0 .3.1.3.3v2c0 .2-.1.3-.3.3h-7.4c-.2 0-.3-.1-.3-.3v-13.4c0-.2.1-.3.3-.3h7.4c.2 0 .3.1.3.3v2.1zm11.6 11.2c.1.3 0 .5-.3.5h-2.1c-.2 0-.4-.1-.5-.3l-2.1-4.3-2.1 4.3c-.1.2-.2.3-.5.3h-2.1c-.3 0-.4-.2-.3-.5l3.4-6.7-3.2-6.4c-.1-.3 0-.5.3-.5h2.1c.2 0 .4.1.5.3l1.9 4 1.9-4c.1-.2.2-.3.5-.3h2.1c.3 0 .4.2.3.5l-3.2 6.4 3.4 6.7zm-127.2 21.7c-.2 0-.3-.1-.3-.3l-.6-2.5h-3.8l-.6 2.5c0 .2-.1.3-.3.3h-2c-.2 0-.3-.1-.3-.3l3.3-13.4c0-.2.2-.3.3-.3h2.8c.2 0 .3.1.3.3l3.3 13.4c.1.2 0 .3-.3.3h-1.8zm-2.9-10.6l-1.3 5.4h2.5l-1.2-5.4zm14.5 3.5c0 1.2-.4 2-1.1 2.4l1 4.3c.1.2-.1.4-.3.4h-2c-.2 0-.3-.1-.3-.3l-1-3.9H681v3.9c0 .2-.1.3-.3.3h-2c-.2 0-.3-.1-.3-.3v-13.4c0-.2.1-.3.3-.3h4.8c1.9 0 2.9 1 2.9 2.9v4zm-3.4.3c.5 0 .8-.3.8-.8v-3c0-.5-.3-.8-.8-.8h-2v4.6h2zm13.4-2.2c0 .2-.1.3-.3.3h-1.9c-.2 0-.3-.1-.3-.3v-1.6c0-.5-.3-.8-.8-.8h-1.3c-.5 0-.8.3-.8.8v7.3c0 .5.3.8.8.8h1.3c.5 0 .8-.3.8-.8v-1.7c0-.2.1-.3.3-.3h1.9c.2 0 .3.1.3.3v2.2c0 1.9-1 2.9-2.9 2.9h-2.2c-1.9 0-2.9-1-2.9-2.9V219c0-1.9 1-2.9 2.9-2.9h2.2c1.9 0 2.9 1 2.9 2.9v2.1zm7.3-4.7c0-.2.1-.3.3-.3h2.1c.2 0 .3.1.3.3v13.4c0 .2-.1.3-.3.3h-2.1c-.2 0-.3-.1-.3-.3v-5.3h-2.6v5.3c0 .2-.1.3-.3.3h-2.1c-.2 0-.3-.1-.3-.3v-13.4c0-.2.1-.3.3-.3h2.1c.2 0 .3.1.3.3v5.4h2.6v-5.4zm5.1 13.7c-.2 0-.3-.1-.3-.3v-13.4c0-.2.1-.3.3-.3h2.1c.2 0 .3.1.3.3v13.4c0 .2-.1.3-.3.3h-2.1zm11.4-14c.2 0 .3.1.3.3v2c0 .2-.1.3-.3.3H718v11c0 .2-.1.3-.3.3h-2.1c-.2 0-.3-.1-.3-.3v-11H713c-.2 0-.3-.1-.3-.3v-2c0-.2.1-.3.3-.3h7.3zm9.9 2.3c0 .2-.1.3-.3.3H725v3.1h3.8c.2 0 .3.1.3.3v2c0 .2-.1.3-.3.3H725v3h4.9c.2 0 .3.1.3.3v2c0 .2-.1.3-.3.3h-7.4c-.2 0-.3-.1-.3-.3v-13.4c0-.2.1-.3.3-.3h7.4c.2 0 .3.1.3.3v2.1zm10.1 2.7c0 .2-.1.3-.3.3h-1.9c-.2 0-.3-.1-.3-.3v-1.6c0-.5-.3-.8-.8-.8h-1.3c-.5 0-.8.3-.8.8v7.3c0 .5.3.8.8.8h1.3c.5 0 .8-.3.8-.8v-1.7c0-.2.1-.3.3-.3h1.9c.2 0 .3.1.3.3v2.2c0 1.9-1 2.9-2.9 2.9h-2.2c-1.9 0-2.9-1-2.9-2.9V219c0-1.9 1-2.9 2.9-2.9h2.2c1.9 0 2.9 1 2.9 2.9v2.1zm9.3-5c.2 0 .3.1.3.3v2c0 .2-.1.3-.3.3h-2.3v11c0 .2-.1.3-.3.3h-2.1c-.2 0-.3-.1-.3-.3v-11h-2.3c-.2 0-.3-.1-.3-.3v-2c0-.2.1-.3.3-.3h7.3zm9.5 0c.2 0 .4.2.4.4v10.7c0 1.9-1 2.9-2.9 2.9h-2.2c-1.9 0-2.9-1-2.9-2.9v-10.7c0-.2.2-.4.4-.4h1.9c.2 0 .4.2.4.4v10.2c0 .5.3.8.8.8h1c.5 0 .8-.3.8-.8v-10.2c0-.2.2-.4.4-.4h1.9zm10.4 6.9c0 1.2-.4 2-1.1 2.4l1 4.3c.1.2-.1.4-.3.4h-2c-.2 0-.3-.1-.3-.3l-1-3.9H764v3.9c0 .2-.1.3-.3.3h-2c-.2 0-.3-.1-.3-.3v-13.4c0-.2.1-.3.3-.3h4.8c1.9 0 2.9 1 2.9 2.9v4zm-3.4.3c.5 0 .8-.3.8-.8v-3c0-.5-.3-.8-.8-.8h-2v4.6h2zm13.4-4.9c0 .2-.1.3-.3.3h-4.9v3.1h3.8c.2 0 .3.1.3.3v2c0 .2-.1.3-.3.3h-3.8v3h4.9c.2 0 .3.1.3.3v2c0 .2-.1.3-.3.3h-7.4c-.2 0-.3-.1-.3-.3v-13.4c0-.2.1-.3.3-.3h7.4c.2 0 .3.1.3.3v2.1zm6.5-2.3c1.9 0 2.9 1 2.9 2.9v1.3c0 .2-.1.3-.3.3h-2c-.2 0-.3-.1-.3-.3v-.8c0-.5-.3-.8-.8-.8h-1.1c-.5 0-.8.3-.8.8v1.7l4.8 1.6c.3.1.5.4.5.7v3.8c0 1.9-1 2.9-2.9 2.9h-2.2c-1.9 0-2.9-1-2.9-2.9V226c0-.2.1-.3.3-.3h2c.2 0 .3.1.3.3v.8c0 .5.3.8.8.8h1.1c.5 0 .8-.3.8-.8v-2l-4.8-1.6c-.4-.1-.5-.4-.5-.7V219c0-1.9 1-2.9 2.9-2.9h2.2zm-111.4 21.2c.2 0 .3.1.3.3v2c0 .2-.1.3-.3.3h-2.3v11c0 .2-.1.3-.3.3h-2.1c-.2 0-.3-.1-.3-.3v-11h-2.3c-.2 0-.3-.1-.3-.3v-2c0-.2.1-.3.3-.3h7.3zm1.8 2.9c0-1.9 1-2.9 2.9-2.9h2.2c1.9 0 2.9 1 2.9 2.9v8.2c0 1.9-1 2.9-2.9 2.9h-2.2c-1.9 0-2.9-1-2.9-2.9v-8.2zm4.6 8.6c.5 0 .8-.3.8-.8v-7.2c0-.5-.3-.8-.8-.8h-1.3c-.5 0-.8.3-.8.8v7.2c0 .5.3.8.8.8h1.3zm19.3-11.5c.3 0 .4.2.3.5l-3.7 8.3v4.8c0 .3-.1.4-.4.4h-1.9c-.3 0-.4-.1-.4-.4v-4.8l-3.7-8.3c-.1-.3 0-.5.3-.5h2c.2 0 .4.1.5.3l2.2 5.1 2.2-5.1c.1-.2.2-.3.5-.3h2.1zm1.2 2.9c0-1.9 1-2.9 2.9-2.9h2.2c1.9 0 2.9 1 2.9 2.9v8.2c0 1.9-1 2.9-2.9 2.9h-2.2c-1.9 0-2.9-1-2.9-2.9v-8.2zm4.7 8.6c.5 0 .8-.3.8-.8v-7.2c0-.5-.3-.8-.8-.8h-1.3c-.5 0-.8.3-.8.8v7.2c0 .5.3.8.8.8h1.3zm12.9-11.5c.2 0 .4.2.4.4v10.7c0 1.9-1 2.9-2.9 2.9h-2.2c-1.9 0-2.9-1-2.9-2.9v-10.7c0-.2.2-.4.4-.4h1.9c.2 0 .4.2.4.4v10.2c0 .5.3.8.8.8h1c.5 0 .8-.3.8-.8v-10.2c0-.2.2-.4.4-.4h1.9zm10.4 7c0 1.2-.4 2-1.1 2.4l1 4.3c.1.2-.1.4-.3.4h-2c-.2 0-.3-.1-.3-.3l-1-3.9H724v3.9c0 .2-.1.3-.3.3h-2c-.2 0-.3-.1-.3-.3v-13.4c0-.2.1-.3.3-.3h4.8c1.9 0 2.9 1 2.9 2.9v4zm-3.4.3c.5 0 .8-.3.8-.8v-3c0-.5-.3-.8-.8-.8h-2v4.6h2zm10.4-6.9c0-.2.1-.3.3-.3h4.8c1.9 0 2.9 1 2.9 2.9v8.2c0 1.9-1 2.9-2.9 2.9h-4.8c-.2 0-.3-.1-.3-.3v-13.4zm4.6 11c.5 0 .8-.3.8-.8v-7.1c0-.5-.3-.8-.8-.8h-1.8v8.7h1.8zm13.4-9c0 .2-.1.3-.3.3h-4.9v3.1h3.8c.2 0 .3.1.3.3v2c0 .2-.1.3-.3.3h-3.8v3h4.9c.2 0 .3.1.3.3v2c0 .2-.1.3-.3.3h-7.4c-.2 0-.3-.1-.3-.3v-13.4c0-.2.1-.3.3-.3h7.4c.2 0 .3.1.3.3v2.1zm6.5-2.4c1.9 0 2.9 1 2.9 2.9v1.3c0 .2-.1.3-.3.3h-2c-.2 0-.3-.1-.3-.3v-.8c0-.5-.3-.8-.8-.8h-1.1c-.5 0-.8.3-.8.8v1.7l4.8 1.6c.3.1.5.4.5.7v3.8c0 1.9-1 2.9-2.9 2.9h-2.2c-1.9 0-2.9-1-2.9-2.9v-1.3c0-.2.1-.3.3-.3h2c.2 0 .3.1.3.3v.8c0 .5.3.8.8.8h1.1c.5 0 .8-.3.8-.8v-2l-4.8-1.6c-.4-.1-.5-.4-.5-.7v-3.5c0-1.9 1-2.9 2.9-2.9h2.2zm5.2 14.1c-.2 0-.3-.1-.3-.3v-13.4c0-.2.1-.3.3-.3h2.1c.2 0 .3.1.3.3V251c0 .2-.1.3-.3.3h-2.1zm12.4-7.1c0 1.2-.4 2-1.1 2.4l1 4.3c.1.2-.1.4-.3.4h-2c-.2 0-.3-.1-.3-.3l-1-3.9h-1.8v3.9c0 .2-.1.3-.3.3h-2c-.2 0-.3-.1-.3-.3v-13.4c0-.2.1-.3.3-.3h4.8c1.9 0 2.9 1 2.9 2.9v4zm-3.4.3c.5 0 .8-.3.8-.8v-3c0-.5-.3-.8-.8-.8h-2v4.6h2zm13.4-4.9c0 .2-.1.3-.3.3h-4.9v3.1h3.8c.2 0 .3.1.3.3v2c0 .2-.1.3-.3.3h-3.8v3h4.9c.2 0 .3.1.3.3v2c0 .2-.1.3-.3.3h-7.4c-.2 0-.3-.1-.3-.3v-13.4c0-.2.1-.3.3-.3h7.4c.2 0 .3.1.3.3v2.1zm2-2c0-.2.1-.3.3-.3h4.8c1.9 0 2.9 1 2.9 2.9v8.2c0 1.9-1 2.9-2.9 2.9h-4.8c-.2 0-.3-.1-.3-.3v-13.4zm4.6 11c.5 0 .8-.3.8-.8v-7.1c0-.5-.3-.8-.8-.8h-1.8v8.7h1.8zm-119.8 14.9c0 .2-.1.3-.3.3h-1.9c-.2 0-.3-.1-.3-.3V262c0-.5-.3-.8-.8-.8h-1.3c-.5 0-.8.3-.8.8v7.3c0 .5.3.8.8.8h1.3c.5 0 .8-.3.8-.8v-1.7c0-.2.1-.3.3-.3h1.9c.2 0 .3.1.3.3v2.2c0 1.9-1 2.9-2.9 2.9h-2.2c-1.9 0-2.9-1-2.9-2.9v-8.2c0-1.9 1-2.9 2.9-2.9h2.2c1.9 0 2.9 1 2.9 2.9v2zm4.7 6.4h4c.2 0 .3.1.3.3v2c0 .2-.1.3-.3.3h-6.4c-.2 0-.3-.1-.3-.3v-13.4c0-.2.1-.3.3-.3h2.1c.2 0 .3.1.3.3V270zm5.7-8.5c0-1.9 1-2.9 2.9-2.9h2.2c1.9 0 2.9 1 2.9 2.9v8.2c0 1.9-1 2.9-2.9 2.9h-2.2c-1.9 0-2.9-1-2.9-2.9v-8.2zm4.7 8.5c.5 0 .8-.3.8-.8V262c0-.5-.3-.8-.8-.8h-1.3c-.5 0-.8.3-.8.8v7.2c0 .5.3.8.8.8h1.3zm12.9-11.4c.2 0 .4.2.4.4v10.7c0 1.9-1 2.9-2.9 2.9h-2.2c-1.9 0-2.9-1-2.9-2.9V259c0-.2.2-.4.4-.4h1.9c.2 0 .4.2.4.4v10.2c0 .5.3.8.8.8h1c.5 0 .8-.3.8-.8V259c0-.2.2-.4.4-.4h1.9zm2.4.3c0-.2.1-.3.3-.3h4.8c1.9 0 2.9 1 2.9 2.9v8.2c0 1.9-1 2.9-2.9 2.9h-4.8c-.2 0-.3-.1-.3-.3v-13.4zm4.6 11.1c.5 0 .8-.3.8-.8v-7.1c0-.5-.3-.8-.8-.8h-1.8v8.7h1.8zm18.4-9.1c0 .2-.1.3-.3.3h-5v3.4h3.8c.2 0 .3.1.3.3v2c0 .2-.1.3-.3.3h-3.8v5c0 .2-.1.3-.3.3h-2.1c-.2 0-.3-.1-.3-.3v-13.4c0-.2.1-.3.3-.3h7.4c.2 0 .3.1.3.3v2.1zm1.4.6c0-1.9 1-2.9 2.9-2.9h2.2c1.9 0 2.9 1 2.9 2.9v8.2c0 1.9-1 2.9-2.9 2.9h-2.2c-1.9 0-2.9-1-2.9-2.9v-8.2zm4.7 8.5c.5 0 .8-.3.8-.8V262c0-.5-.3-.8-.8-.8h-1.3c-.5 0-.8.3-.8.8v7.2c0 .5.3.8.8.8h1.3zm12.9-11.4c.2 0 .4.2.4.4v10.7c0 1.9-1 2.9-2.9 2.9h-2.2c-1.9 0-2.9-1-2.9-2.9V259c0-.2.2-.4.4-.4h1.9c.2 0 .4.2.4.4v10.2c0 .5.3.8.8.8h1c.5 0 .8-.3.8-.8V259c0-.2.2-.4.4-.4h1.9zm10.6 0c.2 0 .3.1.3.3v13.4c0 .2-.1.3-.3.3h-1.6c-.2 0-.3-.1-.4-.3l-3.8-7.6v7.6c0 .2-.1.3-.3.3h-1.9c-.2 0-.3-.1-.3-.3v-13.4c0-.2.1-.3.3-.3h1.6c.2 0 .3.1.4.3l3.8 7.6v-7.6c0-.2.1-.3.3-.3h1.9zm2.4.3c0-.2.1-.3.3-.3h4.8c1.9 0 2.9 1 2.9 2.9v8.2c0 1.9-1 2.9-2.9 2.9h-4.8c-.2 0-.3-.1-.3-.3v-13.4zm4.5 11.1c.5 0 .8-.3.8-.8v-7.1c0-.5-.3-.8-.8-.8h-1.8v8.7h1.8zm13.5-4.5c0 1.2-.4 2-1.1 2.4l1 4.3c.1.2-.1.4-.3.4h-2c-.2 0-.3-.1-.3-.3l-1-3.9h-1.8v3.9c0 .2-.1.3-.3.3h-2c-.2 0-.3-.1-.3-.3v-13.4c0-.2.1-.3.3-.3h4.8c1.9 0 2.9 1 2.9 2.9v4zm-3.4.3c.5 0 .8-.3.8-.8v-3c0-.5-.3-.8-.8-.8h-2v4.6h2zm13.7-7.2c.3 0 .4.2.3.5l-3.7 8.3v4.8c0 .3-.1.4-.4.4h-1.9c-.3 0-.4-.1-.4-.4v-4.8l-3.7-8.3c-.1-.3 0-.5.3-.5h2c.2 0 .4.1.5.3l2.2 5.1 2.2-5.1c.1-.2.2-.3.5-.3h2.1z"/><path class="st1" d="M818.9 197.3h92.2v254.2h-29.7"/><path class="st0" d="M616.6 519.3c-1.1.6-1.5 1.4-1.5 2.5v9.2c0 1.4.7 2.1 2.1 2.1h11.5v-4.4c0-1.4.7-2.1 2.1-2.1H641c1.4 0 2.1.7 2.1 2.1V545c0 1.4-.7 2.1-2.1 2.1h-38.2c-1.4 0-2.1-.7-2.1-2.1v-31.3c0-2 .7-2.9 2.8-3.9l25.3-13.6v-15.7c0-2.8-1.6-4.2-4.2-4.2h-5.1c-2.9 0-4.2 1.5-4.2 4.2v8.3c0 1.1-.6 1.7-1.7 1.7h-11c-1.2 0-1.7-.6-1.7-1.7v-11.3c0-10 5.3-15.3 15.3-15.3h11.9c9.9 0 15.3 5.3 15.3 15.3v25.1c0 2-.8 2.9-2.9 3.9l-23.9 12.8zm-42-56.8H566v14.4s-.4-.4-.2-.4h6.2c2.8 0 4.1 1.8 4.1 4.6v49.1c0 2.9-1.3 3.3-4.1 3.3h-6.2c-.2 0 .2.9.2.9v13.1h8.6c10 0 15.4-4.7 15.4-14.7v-54.4c0-10-5.4-15.9-15.4-15.9z"/><path class="st9" d="M329.4 424v42.3h35.2v7.1h28.1v-7.1H456V424H329.4z"/><path class="st10" d="M350.5 431h-13.9v28.1h13.9v-21h7.1v21h7.1V431h-14.2zm21.2 0v35.2h14.2v-7.1h13.9V431h-28.1zm21 21.1h-6.8v-13.9h6.8v13.9zm28.1-21.1h-13.9v28.1h13.9v-21h7.1v21h7.1v-21h7.1v21h7.1V431h-28.4z"/><path d="M332.8 585h-1c-.2-.3-.4-.7-.6-1.2-.2-.5-.4-1-.6-1.6-.2-.6-.3-1.2-.4-1.9-.1-.7-.2-1.4-.2-2.1 0-.7.1-1.4.2-2.1s.2-1.3.4-1.9c.2-.6.4-1.1.6-1.6.2-.5.4-.9.6-1.2h.8c-.1.2-.3.5-.5.9s-.4.9-.6 1.4c-.2.6-.4 1.2-.5 1.9-.1.7-.2 1.5-.2 2.4 0 .9.1 1.7.2 2.4s.3 1.4.5 1.9c.2.6.4 1 .6 1.4.5.8.6 1.1.7 1.3zm2-9.6h.8l.1 1c.2-.3.5-.6.9-.8s.9-.4 1.5-.4c.4 0 .8.1 1.2.2.4.1.7.4.9.6.3.3.5.7.6 1.1.1.4.2 1 .2 1.6 0 .6-.1 1.2-.3 1.7-.2.5-.4.9-.7 1.3-.3.3-.7.6-1.2.8-.5.2-1 .3-1.6.3-.2 0-.5 0-.7-.1-.3 0-.5-.1-.7-.2v3.4h-.8v-10.5zm.9 6.3c.2.1.4.1.7.2.2 0 .5.1.9.1s.7-.1 1-.2c.3-.1.6-.3.9-.6.2-.3.4-.6.6-1 .1-.4.2-.9.2-1.4 0-.9-.2-1.5-.5-2s-.9-.7-1.6-.7c-.2 0-.5 0-.7.1-.3.1-.5.2-.7.4-.2.2-.4.4-.6.7-.1.3-.2.7-.2 1.1v3.3zm7.4-9.4h.8v8.7c0 .2 0 .4.1.6.1.1.1.2.2.3s.2.1.3.1h.9c0 .1.1.2.1.4v.4c-.1 0-.3.1-.4.1h-.5c-.2 0-.4 0-.6-.1-.2 0-.4-.1-.5-.2s-.3-.3-.4-.5c-.1-.2-.1-.5-.1-.8v-9zm8 5.6c0-.6-.1-1.1-.4-1.4-.3-.3-.7-.4-1.3-.4-.4 0-.7 0-1 .1s-.6.1-.8.2c0-.1-.1-.2-.1-.4v-.5c.2-.1.5-.1.9-.2s.7-.1 1.1-.1c.9 0 1.6.2 2 .6.4.4.7 1 .7 1.9v4.8c-.3.1-.7.1-1.2.2s-.9.1-1.3.1c-.9 0-1.6-.2-2.1-.5s-.8-.9-.8-1.7c0-.4.1-.7.2-1 .1-.3.3-.5.6-.8.3-.2.6-.4.9-.5.4-.1.8-.2 1.2-.2h.9c.2 0 .4 0 .6.1v-.3zm0 1.3c-.2 0-.4 0-.6-.1h-.7c-.7 0-1.3.1-1.6.4-.4.3-.6.6-.6 1.1 0 .3.1.6.2.8.1.2.3.3.5.4.2.1.4.2.6.2h1.5c.3 0 .5-.1.8-.1v-2.7zm3.3-3.8h.8v1.3c.1-.2.2-.3.4-.5l.5-.5c.2-.1.4-.3.7-.3.3-.1.6-.1.9-.1.8 0 1.4.2 1.8.7.4.5.6 1.2.6 2.1v4.6h-.8v-4.3c0-.8-.1-1.4-.4-1.7-.3-.3-.6-.5-1.1-.5-.3 0-.6.1-.9.2-.3.1-.5.3-.8.6-.2.2-.4.6-.5.9-.1.4-.2.8-.2 1.3v3.6h-.8v-7.4zm8.1 0h.8v1.3c.1-.2.2-.3.4-.5l.5-.5c.2-.1.4-.3.7-.3.3-.1.6-.1.9-.1.8 0 1.4.2 1.8.7.4.5.6 1.2.6 2.1v4.6h-.8v-4.3c0-.8-.1-1.4-.4-1.7-.3-.3-.6-.5-1.1-.5-.3 0-.6.1-.9.2-.3.1-.5.3-.8.6-.2.2-.4.6-.5.9-.1.4-.2.8-.2 1.3v3.6h-.8v-7.4zm8.7 3.8c0 1 .2 1.7.7 2.1.4.5 1.1.7 2 .7.4 0 .7 0 1-.1.3-.1.6-.1.9-.2 0 .1.1.2.1.4s0 .3.1.4c-.3.1-.6.2-1 .3-.4.1-.8.1-1.2.1-.6 0-1.2-.1-1.6-.3s-.8-.4-1.1-.8c-.3-.3-.5-.7-.6-1.2-.1-.5-.2-1-.2-1.5s.1-1 .2-1.5.3-.9.6-1.2c.3-.3.6-.6 1-.8.4-.2.9-.3 1.5-.3.5 0 .9.1 1.3.2.4.2.7.4.9.7s.4.6.6 1c.1.4.2.8.2 1.3v.6h-5.4zm4.2-.8c0-.3 0-.6-.1-.9-.1-.3-.2-.5-.4-.7-.2-.2-.4-.4-.6-.5-.3-.1-.6-.2-.9-.2-.7 0-1.2.2-1.5.6-.4.4-.6 1-.7 1.7h4.2zm7.8-6.1h.8v10.2c-.3.1-.7.2-1.1.2-.4.1-.9.1-1.4.1-.5 0-1-.1-1.5-.2s-.8-.3-1.2-.6c-.3-.3-.6-.7-.8-1.1-.2-.5-.3-1-.3-1.7 0-.6.1-1.2.3-1.7.2-.5.4-.9.7-1.2.3-.3.7-.6 1.1-.8s.9-.3 1.5-.3c.3 0 .6 0 .9.1.3.1.6.1.7.2v-3.2zm0 4.1c-.2-.1-.4-.1-.7-.2-.3-.1-.6-.1-.9-.1-.4 0-.8.1-1.2.2-.3.2-.6.4-.8.6-.2.3-.4.6-.5 1-.1.4-.2.8-.2 1.2 0 1 .2 1.7.7 2.1.5.4 1.1.7 2 .7h.9c.3 0 .5-.1.7-.1v-5.4zm2.9 8.6c.1-.2.3-.5.5-.9s.4-.9.6-1.4c.2-.6.4-1.2.5-1.9.1-.7.2-1.5.2-2.4 0-.9-.1-1.7-.2-2.4s-.3-1.4-.5-1.9c-.2-.6-.4-1-.6-1.4-.2-.4-.4-.7-.5-.9h.8c.2.3.4.7.6 1.2.2.5.4 1 .6 1.6.2.6.3 1.2.4 1.9.1.7.2 1.4.2 2.1 0 .7-.1 1.4-.2 2.1-.1.7-.2 1.3-.4 1.9-.2.6-.4 1.1-.6 1.6-.2.5-.4.8-.6 1.2h-.7c-.1 0 0-.4-.1-.4zm-55.7-224.1c0-1.9 1-2.9 2.9-2.9h2.2c1.9 0 2.9 1 2.9 2.9v1.5c0 .2-.1.3-.3.3h-1.9c-.2 0-.3-.1-.3-.3v-1c0-.5-.3-.8-.8-.8h-1.3c-.5 0-.8.3-.8.8v7.2c0 .5.3.8.8.8h1.3c.5 0 .8-.3.8-.8v-1.7h-1c-.2 0-.3-.1-.3-.3v-2c0-.2.1-.3.3-.3h3.2c.2 0 .3.1.3.3v4.6c0 1.9-1 2.9-2.9 2.9h-2.2c-1.9 0-2.9-1-2.9-2.9v-8.3zm18-.6c0 .2-.1.3-.3.3h-4.9v3.1h3.8c.2 0 .3.1.3.3v2c0 .2-.1.3-.3.3h-3.8v3h4.9c.2 0 .3.1.3.3v2c0 .2-.1.3-.3.3h-7.4c-.2 0-.3-.1-.3-.3v-13.4c0-.2.1-.3.3-.3h7.4c.2 0 .3.1.3.3v2.1zm8.9-2.3c.2 0 .3.1.3.3v2c0 .2-.1.3-.3.3H355v11c0 .2-.1.3-.3.3h-2.1c-.2 0-.3-.1-.3-.3v-11H350c-.2 0-.3-.1-.3-.3v-2c0-.2.1-.3.3-.3h7.3zm14.4 14c-.2 0-.3-.1-.3-.3l-.6-2.5H367l-.6 2.5c0 .2-.1.3-.3.3h-2c-.2 0-.3-.1-.3-.3l3.3-13.4c0-.2.2-.3.3-.3h2.8c.2 0 .3.1.3.3l3.3 13.4c.1.2 0 .3-.3.3h-1.8zm-2.8-10.6l-1.3 5.4h2.5l-1.2-5.4zm9.4 8h4c.2 0 .3.1.3.3v2c0 .2-.1.3-.3.3h-6.4c-.2 0-.3-.1-.3-.3v-13.4c0-.2.1-.3.3-.3h2.1c.2 0 .3.1.3.3v11.1zm9 0h4c.2 0 .3.1.3.3v2c0 .2-.1.3-.3.3h-6.4c-.2 0-.3-.1-.3-.3v-13.4c0-.2.1-.3.3-.3h2.1c.2 0 .3.1.3.3v11.1zm11.3-11.1c0-.2.1-.3.3-.3h4.8c1.9 0 2.9 1 2.9 2.9v8.2c0 1.9-1 2.9-2.9 2.9h-4.8c-.2 0-.3-.1-.3-.3v-13.4zm4.6 11.1c.5 0 .8-.3.8-.8v-7.1c0-.5-.3-.8-.8-.8h-1.8v8.7h1.8zm13.4-9.1c0 .2-.1.3-.3.3h-4.9v3.1h3.8c.2 0 .3.1.3.3v2c0 .2-.1.3-.3.3h-3.8v3h4.9c.2 0 .3.1.3.3v2c0 .2-.1.3-.3.3h-7.4c-.2 0-.3-.1-.3-.3v-13.4c0-.2.1-.3.3-.3h7.4c.2 0 .3.1.3.3v2.1zm2-2c0-.2.1-.3.3-.3h4.8c1.9 0 2.9 1 2.9 2.9v3.9c0 1.9-1 2.9-2.9 2.9h-2.5v4c0 .2-.1.3-.3.3h-2c-.2 0-.3-.1-.3-.3v-13.4zm4.6 6.8c.5 0 .8-.3.8-.8v-2.9c0-.5-.3-.8-.8-.8h-2v4.5h2zm13.4-4.8c0 .2-.1.3-.3.3h-4.9v3.1h3.8c.2 0 .3.1.3.3v2c0 .2-.1.3-.3.3h-3.8v3h4.9c.2 0 .3.1.3.3v2c0 .2-.1.3-.3.3h-7.4c-.2 0-.3-.1-.3-.3v-13.4c0-.2.1-.3.3-.3h7.4c.2 0 .3.1.3.3v2.1zm10.2-2.3c.2 0 .3.1.3.3v13.4c0 .2-.1.3-.3.3h-1.6c-.2 0-.3-.1-.4-.3l-3.8-7.6v7.6c0 .2-.1.3-.3.3h-1.9c-.2 0-.3-.1-.3-.3v-13.4c0-.2.1-.3.3-.3h1.6c.2 0 .3.1.4.3l3.8 7.6v-7.6c0-.2.1-.3.3-.3h1.9zm2.3.3c0-.2.1-.3.3-.3h4.8c1.9 0 2.9 1 2.9 2.9v8.2c0 1.9-1 2.9-2.9 2.9h-4.8c-.2 0-.3-.1-.3-.3v-13.4zm4.6 11.1c.5 0 .8-.3.8-.8v-7.1c0-.5-.3-.8-.8-.8h-1.8v8.7h1.8zm5.8 2.6c-.2 0-.3-.1-.3-.3v-13.4c0-.2.1-.3.3-.3h2.1c.2 0 .3.1.3.3v13.4c0 .2-.1.3-.3.3h-2.1zm12.6-14c.2 0 .3.1.3.3v13.4c0 .2-.1.3-.3.3h-1.6c-.2 0-.3-.1-.4-.3l-3.8-7.6v7.6c0 .2-.1.3-.3.3h-1.9c-.2 0-.3-.1-.3-.3v-13.4c0-.2.1-.3.3-.3h1.6c.2 0 .3.1.4.3l3.8 7.6v-7.6c0-.2.1-.3.3-.3h1.9zm2.3 2.9c0-1.9 1-2.9 2.9-2.9h2.2c1.9 0 2.9 1 2.9 2.9v1.5c0 .2-.1.3-.3.3h-1.9c-.2 0-.3-.1-.3-.3v-1c0-.5-.3-.8-.8-.8h-1.3c-.5 0-.8.3-.8.8v7.2c0 .5.3.8.8.8h1.3c.5 0 .8-.3.8-.8v-1.7h-1c-.2 0-.3-.1-.3-.3v-2c0-.2.1-.3.3-.3h3.2c.2 0 .3.1.3.3v4.6c0 1.9-1 2.9-2.9 2.9h-2.2c-1.9 0-2.9-1-2.9-2.9v-8.3zm-141.2 29.7h4c.2 0 .3.1.3.3v2c0 .2-.1.3-.3.3h-6.4c-.2 0-.3-.1-.3-.3v-13.4c0-.2.1-.3.3-.3h2.1c.2 0 .3.1.3.3v11.1zm6 2.6c-.2 0-.3-.1-.3-.3v-13.4c0-.2.1-.3.3-.3h2.1c.2 0 .3.1.3.3v13.4c0 .2-.1.3-.3.3h-2.1zm12.4-8.4c0 .7-.5 1.3-1.3 1.4.7.1 1.3.7 1.3 1.4v2.7c0 1.9-1 2.9-2.9 2.9h-4.8c-.2 0-.3-.1-.3-.3v-13.4c0-.2.1-.3.3-.3h4.8c1.9 0 2.9 1 2.9 2.9v2.7zm-2.5-2.2c0-.5-.3-.8-.8-.8h-2.2v3.2h2.2c.5 0 .8-.3.8-.8v-1.6zm0 5.8c0-.5-.3-.8-.8-.8h-2.2v3.1h2.2c.5 0 .8-.3.8-.8v-1.5zm12.5-2.3c0 1.2-.4 2-1.1 2.4l1 4.3c.1.2-.1.4-.3.4h-2c-.2 0-.3-.1-.3-.3l-1-3.9h-1.8v3.9c0 .2-.1.3-.3.3h-2c-.2 0-.3-.1-.3-.3v-13.4c0-.2.1-.3.3-.3h4.8c1.9 0 2.9 1 2.9 2.9v4zm-3.4.3c.5 0 .8-.3.8-.8v-3c0-.5-.3-.8-.8-.8h-2v4.6h2zm12.5 6.8c-.2 0-.3-.1-.3-.3l-.6-2.5H366l-.6 2.5c0 .2-.1.3-.3.3h-2c-.2 0-.3-.1-.3-.3l3.3-13.4c0-.2.2-.3.3-.3h2.8c.2 0 .3.1.3.3l3.3 13.4c.1.2 0 .3-.3.3h-1.8zm-2.8-10.5l-1.3 5.4h2.5l-1.2-5.4zm14.5 3.4c0 1.2-.4 2-1.1 2.4l1 4.3c.1.2-.1.4-.3.4h-2c-.2 0-.3-.1-.3-.3l-1-3.9H377v3.9c0 .2-.1.3-.3.3h-2c-.2 0-.3-.1-.3-.3v-13.4c0-.2.1-.3.3-.3h4.8c1.9 0 2.9 1 2.9 2.9v4zm-3.4.3c.5 0 .8-.3.8-.8v-3c0-.5-.3-.8-.8-.8h-2v4.6h2zm5.7 6.8c-.2 0-.3-.1-.3-.3v-13.4c0-.2.1-.3.3-.3h2.1c.2 0 .3.1.3.3v13.4c0 .2-.1.3-.3.3h-2.1zm12.4-11.6c0 .2-.1.3-.3.3h-4.9v3.1h3.8c.2 0 .3.1.3.3v2c0 .2-.1.3-.3.3h-3.8v3h4.9c.2 0 .3.1.3.3v2c0 .2-.1.3-.3.3h-7.4c-.2 0-.3-.1-.3-.3v-13.4c0-.2.1-.3.3-.3h7.4c.2 0 .3.1.3.3v2.1zm6.5-2.4c1.9 0 2.9 1 2.9 2.9v1.3c0 .2-.1.3-.3.3h-2c-.2 0-.3-.1-.3-.3v-.8c0-.5-.3-.8-.8-.8H402c-.5 0-.8.3-.8.8v1.7l4.8 1.6c.3.1.5.4.5.7v3.8c0 1.9-1 2.9-2.9 2.9h-2.2c-1.9 0-2.9-1-2.9-2.9v-1.3c0-.2.1-.3.3-.3h2c.2 0 .3.1.3.3v.8c0 .5.3.8.8.8h1.1c.5 0 .8-.3.8-.8v-2l-4.8-1.6c-.4-.1-.5-.4-.5-.7v-3.5c0-1.9 1-2.9 2.9-2.9h2.2zm13.3-2c.3 0 .4.2.3.5l-6.4 16.8c-.1.2-.2.3-.5.3h-1.9c-.3 0-.4-.2-.3-.5l6.4-16.8c.1-.2.2-.3.5-.3h1.9zm10.1 7.1c0 .2-.1.3-.3.3h-1.9c-.2 0-.3-.1-.3-.3v-1.6c0-.5-.3-.8-.8-.8h-1.3c-.5 0-.8.3-.8.8v7.3c0 .5.3.8.8.8h1.3c.5 0 .8-.3.8-.8v-1.7c0-.2.1-.3.3-.3h1.9c.2 0 .3.1.3.3v2.2c0 1.9-1 2.9-2.9 2.9h-2.2c-1.9 0-2.9-1-2.9-2.9v-8.2c0-1.9 1-2.9 2.9-2.9h2.2c1.9 0 2.9 1 2.9 2.9v2zm2-2.2c0-1.9 1-2.9 2.9-2.9h2.2c1.9 0 2.9 1 2.9 2.9v8.2c0 1.9-1 2.9-2.9 2.9h-2.2c-1.9 0-2.9-1-2.9-2.9v-8.2zm4.7 8.6c.5 0 .8-.3.8-.8v-7.2c0-.5-.3-.8-.8-.8h-1.3c-.5 0-.8.3-.8.8v7.2c0 .5.3.8.8.8h1.3zm16.3-11.5c.3 0 .4.1.4.4v13.2c0 .3-.1.4-.4.4h-1.9c-.3 0-.4-.1-.4-.4V385h-.1l-1.9 7.9c-.1.2-.2.3-.4.3h-1.2c-.2 0-.4-.1-.4-.3l-1.9-7.9h-.1v7.9c0 .3-.1.4-.4.4h-1.8c-.3 0-.4-.1-.4-.4v-13.2c0-.3.1-.4.4-.4h2.6c.2 0 .4.1.4.3l2.2 8.9 2.2-8.9c.1-.2.2-.3.4-.3h2.7zm2.4.4c0-.2.1-.3.3-.3h4.8c1.9 0 2.9 1 2.9 2.9v3.9c0 1.9-1 2.9-2.9 2.9H455v4c0 .2-.1.3-.3.3h-2c-.2 0-.3-.1-.3-.3v-13.4zm4.6 6.7c.5 0 .8-.3.8-.8v-2.9c0-.5-.3-.8-.8-.8h-2v4.5h2zm5.2-4.2c0-1.9 1-2.9 2.9-2.9h2.2c1.9 0 2.9 1 2.9 2.9v8.2c0 1.9-1 2.9-2.9 2.9h-2.2c-1.9 0-2.9-1-2.9-2.9v-8.2zm4.7 8.6c.5 0 .8-.3.8-.8v-7.2c0-.5-.3-.8-.8-.8h-1.3c-.5 0-.8.3-.8.8v7.2c0 .5.3.8.8.8h1.3zm13.6-11.5c.2 0 .3.1.3.3v13.4c0 .2-.1.3-.3.3h-1.6c-.2 0-.3-.1-.4-.3l-3.8-7.6v7.6c0 .2-.1.3-.3.3h-1.9c-.2 0-.3-.1-.3-.3v-13.4c0-.2.1-.3.3-.3h1.6c.2 0 .3.1.4.3l3.8 7.6v-7.6c0-.2.1-.3.3-.3h1.9zm10.3 2.4c0 .2-.1.3-.3.3h-4.9v3.1h3.8c.2 0 .3.1.3.3v2c0 .2-.1.3-.3.3h-3.8v3h4.9c.2 0 .3.1.3.3v2c0 .2-.1.3-.3.3h-7.4c-.2 0-.3-.1-.3-.3v-13.4c0-.2.1-.3.3-.3h7.4c.2 0 .3.1.3.3v2.1zm10.2-2.4c.2 0 .3.1.3.3v13.4c0 .2-.1.3-.3.3h-1.6c-.2 0-.3-.1-.4-.3l-3.8-7.6v7.6c0 .2-.1.3-.3.3H493c-.2 0-.3-.1-.3-.3v-13.4c0-.2.1-.3.3-.3h1.6c.2 0 .3.1.4.3l3.8 7.6v-7.6c0-.2.1-.3.3-.3h1.9zm9.6 0c.2 0 .3.1.3.3v2c0 .2-.1.3-.3.3h-2.3v11c0 .2-.1.3-.3.3h-2.1c-.2 0-.3-.1-.3-.3v-11h-2.3c-.2 0-.3-.1-.3-.3v-2c0-.2.1-.3.3-.3h7.3zm7.1 0c1.9 0 2.9 1 2.9 2.9v1.3c0 .2-.1.3-.3.3h-2c-.2 0-.3-.1-.3-.3v-.8c0-.5-.3-.8-.8-.8H516c-.5 0-.8.3-.8.8v1.7l4.8 1.6c.3.1.5.4.5.7v3.8c0 1.9-1 2.9-2.9 2.9h-2.2c-1.9 0-2.9-1-2.9-2.9v-1.3c0-.2.1-.3.3-.3h2c.2 0 .3.1.3.3v.8c0 .5.3.8.8.8h1.1c.5 0 .8-.3.8-.8v-2l-4.8-1.6c-.4-.1-.5-.4-.5-.7v-3.5c0-1.9 1-2.9 2.9-2.9h2.3z"/><path class="st11" d="M386.3 517.1c1.3-3 1.3-6 .5-8.4-1-2.9-5-6.7-6.3-5.2-.2.2-2.5-.1-2.8.4-.6.7-.2.9 0 1.2.8.7 2.9 1.5 3.8 4 .4 1 1.3 3.5-.3 4.9-1.8 1.6-3.8 2-12.1-5.7-8.8-8.2-20.7-4.9-24.6-3.6s-5.7 2.6-4.2 5.6c2.1 4.1 1.4 2.8 3.5 6.3 3.2 5.4 10.4-2.5 10.4-2.5-5.3 8-9.9 6.1-11.6 3.3-1.6-2.5-2.8-5.4-2.8-5.4-13.4 4.8-9.8 26.2-9.8 26.2h6.7c1.7-7.9 7.8-7.6 8.8 0h5.1c4.5-15.4 14.1 0 14.1 0h5.7c0-8.2-.9-11.3 3.3-11.9 7-.8 10.4-4.1 12.6-9.2z"/><path class="st12" d="M410.3 515v3.2c.7-1.2 2.3-3.9 7.4-3.7v5.6c-1.2 0-3.2.1-4.9 1.3-2.3 1.8-2.4 4.1-2.4 7.9v8.6H405v-23l5.3.1zm9.6 6.9c.1-1.1.2-2.3.9-3.6 2.2-4 7.6-3.9 9.1-3.9 2.2 0 4.8.3 6.8 1.5 2.7 1.6 2.7 3.8 2.7 6.3v12.1c0 1.7 0 2.4 1 3.8h-6.5c0-.6-.1-1.6-.1-1.9-1.2 1-3.6 2.3-6.7 2.3-5.1 0-8.2-3.2-8.2-7.1 0-1.1.3-2.2.8-3.1 1.6-3.3 5.1-4 7.3-4.4 7.4-1.2 7-2 6.9-3.1-.1-1-1.2-2-3.7-2-2.3 0-3.5.7-4.1 1.4-.6.7-.6 1.2-.6 1.8l-5.6-.1zm14 4.6c-1.1.6-2.3.9-4.8 1.3-2 .3-4.6.7-4.6 3.1 0 1.8 1.5 2.7 3.7 2.7 2.8 0 4.7-1.2 5.3-2.6.3-.7.3-1.4.3-2v-2.5zm29.9-20.7l-.1 32.2h-5.4v-2.2c-1.7 2-4 2.8-6.3 2.8-5.4 0-10.1-4.1-10.1-11.6 0-6.8 3.9-12.5 10.4-12.5 2.2 0 4.3.7 6 2.6v-11.2h5.5zm-6.7 15.8c-.8-1.2-2.2-2.1-4-2.1-3.7 0-5.5 3.3-5.5 6.9 0 .4 0 7.2 5.3 7.2 2.8 0 5.4-2.1 5.3-7 0-1.4-.1-3.5-1.1-5zm16.2-15.8l-.1 32.2h-5.5v-32.2h5.6zm24.4 26.8c-2.5 4.5-5.7 6.1-10.4 6.1-6 0-11.7-3.8-11.7-12.2 0-7.6 4.9-12 11.4-11.9 6 0 8.5 3.6 8.9 4.3 1.9 2.7 2.3 6.6 2.3 8.9l-16.8-.1c.6 3.6 2.8 5.7 6.5 5.7s4.7-2.2 5.4-3.1l4.4 2.3zm-5.4-8.8c-.5-3.5-2.7-4.8-5.1-4.8-2.9 0-4.9 1.7-5.6 4.7l10.7.1zm-104.1-2.6v4.7h8.1v5.5c-2.1 1.3-4.4 2.1-7.8 2.1-5.4 0-9.9-4.6-9.9-11.7 0-7 4.1-11.6 10.4-11.6 5 0 6.9 4.2 7.2 5.7h5.5c0-3.2-3.8-11.1-13.2-11.1-10 0-15.9 7.1-15.9 17 0 10.3 7.1 16.8 15.5 16.8 12.5 0 13.6-6.3 13.6-6.3V521h-13.5v.2z"/><path class="st11" d="M387.3 511.6c-1.2.1-2.4.3-3.6.6l-.1.1c-.5.6-1.2 1.1-1.9 1.5-.1.1-.2.1-.3.1l-.2.2c-1.8 1.6-4 2-12.1-5.7-8.7-8.3-20.7-4.9-24.6-3.6s-5.7 2.6-4.2 5.6c2.1 4.1 1.4 2.8 3.5 6.3 3.2 5.4 10.4-2.5 10.4-2.5-5.3 8-9.9 6.1-11.6 3.3-1.6-2.5-2.8-5.4-2.8-5.4-13.4 4.8-9.8 26.2-9.8 26.2h6.7c1.7-7.9 7.8-7.6 8.8 0h5.1c4.5-15.4 14.1 0 14.1 0h5.7c0-8.2-.9-11.3 3.3-11.9 7.2-1 10.5-4.3 12.6-9.4.8-1.8 1.1-3.7 1-5.4z"/><path class="st10" d="M363.1 513.7s3.1 1 7.2 2.4c-.2 1.1-2.3 3.2-4.9 2.3-3.6-1.2-2.3-4.7-2.3-4.7z"/><ellipse transform="rotate(-96.062 366.57 515.909)" class="st11" cx="366.6" cy="515.9" rx="1.8" ry="1.9"/><path class="st11" d="M377.6 505.2c.2.2.5.4.8.6 1.4-1.1 3.2-1.1 4.7-1.7-1.3-1.2-3.5-2.2-4.2-1.4-.2.2-1 .9-1.4 1.3-.5.7-.2 1 .1 1.2z"/><path class="st1" d="M532.8 363.5h32.3v215.2H413.7"/></svg>