<svg id="Layer_1" xmlns="http://www.w3.org/2000/svg" viewBox="105 160.5 190 79"><style>.st0{fill:#0065a6}</style><path class="st0" d="M171.1 209.9l-.2.6-.2.8s-3.1 13.9-3.6 16.1c-.1-.6-3.1-14.4-3.1-14.4-.1-.6-.3-1.4-.5-2.1l-.2-.6c-.9-2.1-2.9-3.5-5.2-3.5-2.2 0-4.2 1.3-5.1 3.3-.2.4-.3.9-.4 1.4l-.3 1.5s-2.6 12.4-3.1 14.5c-.1-.6-3.9-16.2-3.9-16.2l-.2-.7c-.1-.4-.2-.7-.3-1-.7-1.7-2.4-2.8-4.2-2.8-1.3 0-2.6.6-3.5 1.6-.6.7-1 1.7-1.1 2.6v1c.1.9.3 1.7.6 2.4l6.1 19.8.1.4.3.9c.9 2.1 3.1 3.5 5.4 3.6 2.4 0 4.6-1.5 5.5-3.7l.3-1 .1-.2s3.5-13.8 3.6-14.3c.1.5 3.6 14.5 3.6 14.5l.3.9c.9 2.3 3.1 3.8 5.5 3.8 2.3 0 4.4-1.4 5.3-3.4.1-.3.2-.7.4-1.1l.1-.3 6.1-19.8c.2-.7.5-1.5.6-2.4v-1c-.1-1-.5-1.9-1.1-2.6-.9-1-2.1-1.6-3.5-1.6-1.8 0-3.5 1.2-4.2 3m-20.5-44.3v34.2c0 2.6 2.1 4.8 4.8 4.8 2.6 0 4.7-2.1 4.8-4.7V186c0-3.7 3-5.9 5.7-5.9 4 0 4.6 3.2 4.6 5.1v14.6c0 2.6 2.2 4.7 4.8 4.7 2.6 0 4.8-2.1 4.8-4.8v-16.2c0-7.2-4.1-11.5-11.1-11.5-3.5 0-6.5 1.2-8.8 3.5v-10.1c0-2.6-2.2-4.7-4.8-4.7-2.7.1-4.8 2.2-4.8 4.9m-24.8 61.6c0 3.1-2.8 6-7.3 6-2.8 0-4.6-1.5-4.6-3.4 0-2.5 1.9-3.6 5.4-4.1l3-.5c1-.2 2.7-.5 3.6-1.3v3.3zm9.3 6.7c-.2-.9-.6-1.9-.6-4v-14c0-5.8-5-9-14-9-8.5 0-13.7 4-13.7 7.8 0 2.1 1.7 3.9 3.9 3.9.9 0 1.8-.3 2.4-.9.4-.3.8-.7 1.2-1.1 1.3-1.2 2.7-2.7 6.1-2.7 2.3 0 4.8.8 4.8 2.9 0 1.9-1.1 2.4-3.2 2.6l-5.1.6c-6 .7-12 2.4-12 10 0 5.6 5 9 9.9 9 4.6 0 8.1-1.4 11-4.3.5 2.8 2.3 4.3 5.3 4.3 2.4 0 4.2-1.6 4.2-3.7.1-.4 0-.9-.2-1.4m-14.4-56.2zm3.8-4.2c-.4 0-.9.1-1.3.2-1.6.5-2.7 2-2.7 3.7 0 1.7 1.1 3.2 2.7 3.7.4.1.9.2 1.3.2h10.6c-.4.4-14.7 16-14.7 16-.8.9-1.2 2-1.2 3.4v.2c.1 1.7 1.4 3.5 4 3.7h21.5c.5 0 .9-.1 1.3-.2 1.6-.5 2.7-2 2.7-3.7 0-1.7-1.1-3.1-2.7-3.7-.4-.1-.9-.2-1.3-.2h-12.3c.4-.4 14.4-15.8 14.4-15.8.9-1 1.5-2.2 1.5-3.2v-.4c0-.7-.2-1.3-.5-1.9-.4-.9-1.2-1.5-2.1-1.8-.4-.1-.9-.2-1.5-.2h-19.7zm76.3 5.5c2.6.6 3.3 2.1 3.3 3.6 0 2.3-1.7 4-5.2 4-3.6 0-5.2-1.8-5.2-3.2 0-.7.5-1.2 1.2-1.2 1.5 0 1.1 2.3 4 2.3 1.5 0 2.3-.8 2.3-1.7 0-.5-.2-1.1-1.2-1.3l-3.2-.8c-2.6-.7-3.1-2.1-3.1-3.4 0-2.8 2.6-3.8 5-3.8 2.2 0 4.9 1.3 4.9 2.9 0 .7-.6 1.1-1.3 1.1-1.3 0-1.1-1.9-3.7-1.9-1.3 0-2.1.6-2.1 1.5s1 1.1 1.9 1.4l2.4.5zm9.3-2c2.1 0 3.7 1.2 3.7 2.4 0 .7-.5 1.1-1.2 1.1-1.2 0-.8-1.5-2.6-1.5-1 0-2.2.7-2.2 3 0 1.6.7 2.6 2.1 2.6 1.8 0 1.4-1.6 2.7-1.6.6 0 1.1.5 1.1 1 0 1.1-1.3 2.6-3.9 2.6-3.1 0-4.6-1.9-4.6-4.6.1-3 1.8-5 4.9-5zm5-2.2c0-.8.5-1.3 1.3-1.3s1.3.4 1.3 1.3v3.5c.5-.7 1.4-1.3 2.8-1.3 1.5 0 3.2.8 3.2 3.3v4.9c0 .7-.3 1.3-1.3 1.3s-1.3-.6-1.3-1.3v-4.4c0-1-.5-1.8-1.6-1.8-.9 0-1.9.7-1.9 2v4.2c0 .7-.3 1.3-1.3 1.3s-1.3-.6-1.3-1.3v-10.4zm15 2.2c3.1 0 4.7 2.1 4.7 4.8 0 2.5-1.2 4.8-4.7 4.8s-4.7-2.2-4.7-4.8c0-2.8 1.6-4.8 4.7-4.8zm0 7.6c1.5 0 2.2-1.4 2.2-2.9 0-1.7-.7-2.9-2.2-2.9-1.5 0-2.2 1.2-2.2 2.9 0 1.6.7 2.9 2.2 2.9zm10.6-7.6c3.1 0 4.7 2.1 4.7 4.8 0 2.5-1.2 4.8-4.7 4.8s-4.7-2.2-4.7-4.8c0-2.8 1.7-4.8 4.7-4.8zm0 7.6c1.5 0 2.2-1.4 2.2-2.9 0-1.7-.7-2.9-2.2-2.9-1.5 0-2.2 1.2-2.2 2.9.1 1.6.7 2.9 2.2 2.9zm6.5-9.8c0-.8.5-1.3 1.3-1.3s1.3.4 1.3 1.3v10.4c0 .8-.5 1.3-1.3 1.3s-1.3-.4-1.3-1.3v-10.4zm14.4 2.2c3.1 0 4.7 2.1 4.7 4.8 0 2.5-1.2 4.8-4.7 4.8s-4.7-2.2-4.7-4.8c0-2.8 1.6-4.8 4.7-4.8zm0 7.6c1.5 0 2.2-1.4 2.2-2.9 0-1.7-.7-2.9-2.2-2.9s-2.2 1.2-2.2 2.9c0 1.6.6 2.9 2.2 2.9zm7.1-5.7h-.6c-.7 0-1-.3-1-.8 0-.6.3-.8 1-.8h.6V176c0-1.6 1.3-2.5 2.8-2.5.9 0 1.7.4 1.7 1.2 0 .5-.4.9-.8.9-.2 0-.4-.1-.6-.1-.4 0-.6.2-.6.6v1.1h.8c.7 0 1.1.2 1.1.8s-.4.8-1.1.8h-.8v6.4c0 .8-.5 1.3-1.3 1.3s-1.3-.4-1.3-1.3v-6.3zm-74.4 14.4c0-1.3.7-1.7 1.7-1.7h6.7c.8 0 1.4.2 1.4 1.1 0 .9-.6 1.1-1.4 1.1h-5.5v2.7h4.8c.7 0 1.3.2 1.3 1.1 0 .9-.6 1.1-1.3 1.1h-4.8v3h5.7c.8 0 1.4.2 1.4 1.1 0 .9-.6 1.1-1.4 1.1h-6.8c-1 0-1.7-.4-1.7-1.7v-8.9zm11.5 2.8c0-.8.3-1.3 1.1-1.3s1.1.5 1.1 1.3v.3c.7-.9 1.6-1.6 3.1-1.6s3.2.8 3.2 3.3v4.9c0 .7-.3 1.3-1.3 1.3s-1.3-.6-1.3-1.3v-4.4c0-1-.5-1.8-1.6-1.8-.9 0-1.9.7-1.9 2v4.2c0 .7-.3 1.3-1.3 1.3s-1.3-.6-1.3-1.3v-6.9zm19.2 7.3c0 3.1-1.9 4.5-4.5 4.5-1.9 0-3.8-.9-3.8-2.1 0-.6.5-1.1 1-1.1 1.1 0 1.3 1.3 2.7 1.3 1.5 0 2.2-.8 2.2-2.8v-.5c-.5.7-1.4 1.2-2.5 1.2-2.7 0-4.1-1.7-4.1-4.2 0-3.3 1.8-4.8 4-4.8 1.2 0 2.2.6 2.7 1.5v-.4c0-.8.4-1.2 1.1-1.2.8 0 1.1.4 1.1 1.2v7.4zm-4.4-1.4c1.1 0 2-.7 2-2.6 0-1.8-.7-2.7-1.9-2.7-1.6 0-2.1 1.2-2.1 2.8 0 1.2.6 2.5 2 2.5zm7.9-10.7c.7 0 1.3.6 1.3 1.3 0 .7-.6 1.3-1.3 1.3-.7 0-1.3-.6-1.3-1.3-.1-.7.5-1.3 1.3-1.3zm-1.3 4.8c0-.7.3-1.3 1.3-1.3s1.3.6 1.3 1.3v7c0 .7-.3 1.3-1.3 1.3s-1.3-.6-1.3-1.3v-7zm4.7 0c0-.8.3-1.3 1.1-1.3s1.1.5 1.1 1.3v.3c.7-.9 1.6-1.6 3.1-1.6s3.2.8 3.2 3.3v4.9c0 .7-.3 1.3-1.3 1.3s-1.3-.6-1.3-1.3v-4.4c0-1-.5-1.8-1.6-1.8-.9 0-1.9.7-1.9 2v4.2c0 .7-.3 1.3-1.3 1.3s-1.3-.6-1.3-1.3v-6.9zm12.8 3.9c0 1.3.9 2.3 2.4 2.3 1.9 0 1.9-1.3 2.9-1.3.6 0 1 .5 1 1 0 1.5-2.5 2.2-4 2.2-3.6 0-4.9-2.4-4.9-4.6 0-3 1.8-4.9 4.8-4.9 2.9 0 4.6 2.1 4.6 4.2 0 .9-.3 1.1-1.1 1.1h-5.7zm4.4-1.4c-.1-1.2-1-2-2.1-2-1.3 0-2 .8-2.3 2h4.4zm6.2 1.4c0 1.3.9 2.3 2.4 2.3 1.9 0 1.9-1.3 2.9-1.3.6 0 1 .5 1 1 0 1.5-2.5 2.2-4 2.2-3.6 0-4.9-2.4-4.9-4.6 0-3 1.8-4.9 4.8-4.9 2.9 0 4.6 2.1 4.6 4.2 0 .9-.3 1.1-1.1 1.1h-5.7zm4.5-1.4c-.1-1.2-1-2-2.1-2-1.3 0-2 .8-2.3 2h4.4zm4.2-2.6c0-.8.5-1.2 1.1-1.2.6 0 1.1.4 1.1 1.2v1c.3-1.1.9-2.2 2.1-2.2.8 0 1.4.5 1.4 1.2 0 .9-.6 1.3-1.3 1.3h-.5c-1 0-1.6.7-1.6 2.8v3c0 .7-.3 1.3-1.3 1.3s-1.3-.6-1.3-1.3V196zm8.3-4.7c.7 0 1.3.6 1.3 1.3 0 .7-.6 1.3-1.3 1.3-.7 0-1.3-.6-1.3-1.3 0-.7.6-1.3 1.3-1.3zm-1.2 4.8c0-.7.3-1.3 1.3-1.3s1.3.6 1.3 1.3v7c0 .7-.3 1.3-1.3 1.3s-1.3-.6-1.3-1.3v-7zm4.7 0c0-.8.3-1.3 1.1-1.3s1.1.5 1.1 1.3v.3c.7-.9 1.6-1.6 3.1-1.6s3.2.8 3.2 3.3v4.9c0 .7-.3 1.3-1.3 1.3s-1.3-.6-1.3-1.3v-4.4c0-1-.5-1.8-1.6-1.8-.9 0-1.9.7-1.9 2v4.2c0 .7-.3 1.3-1.3 1.3s-1.3-.6-1.3-1.3v-6.9zm19.2 7.3c0 3.1-1.9 4.5-4.5 4.5-1.9 0-3.8-.9-3.8-2.1 0-.6.5-1.1 1-1.1 1.1 0 1.3 1.3 2.7 1.3 1.5 0 2.2-.8 2.2-2.8v-.5c-.5.7-1.4 1.2-2.5 1.2-2.7 0-4.1-1.7-4.1-4.2 0-3.3 1.8-4.8 4-4.8 1.2 0 2.2.6 2.7 1.5v-.4c0-.8.4-1.2 1.1-1.2.8 0 1.1.4 1.1 1.2v7.4zm-4.4-1.4c1.1 0 2-.7 2-2.6 0-1.8-.7-2.7-1.9-2.7-1.6 0-2.1 1.2-2.1 2.8-.1 1.2.5 2.5 2 2.5z"/></svg>